<?xml version="1.0" encoding="utf-8"?>
<!-- Generator: Adobe Illustrator 27.5.0, SVG Export Plug-In . SVG Version: 6.00 Build 0)  -->
<svg version="1.1" id="Layer_1" xmlns="http://www.w3.org/2000/svg" xmlns:xlink="http://www.w3.org/1999/xlink" x="0px" y="0px"
	 viewBox="0 0 2844 2000" style="enable-background:new 0 0 2844 2000;" xml:space="preserve">
<rect style="fill:#FFFFFF;" width="2844" height="2000"/>
<g>
	<path style="fill:#FFF8E9;" d="M376.466,1791.233c0,0-363.806-207.604-163.552-716.992
		c200.254-509.389,718.204-376.516,910.491-605.731s579.701-578.055,1005.969-316.554
		c426.267,261.501,321.379,673.315,474.753,839.015c153.374,165.699,470.936,874.541-465.466,910.078
		C1202.258,1936.585,376.466,1791.233,376.466,1791.233z"/>
	<path style="opacity:0.3;fill:#FFFFFF;" d="M2248.938,703.887c38.201-1.104,75.849-9.613,114.01-11.655
		c41.488-2.22,84.839,2.939,123.165-13.103c0.728-0.305,1.437-0.643,2.156-0.963c-12.066-47.985-26.046-97.931-45.059-148.266
		c-0.834,0.239-1.673,0.463-2.503,0.712c-24.496,7.357-47.457,19.241-72.007,26.416c-45.967,13.435-96.818,9.38-140.076-11.168
		c-48.655-23.113-87.643-65.939-139.639-80.008c-37.901-10.255-78.179-3.88-117.242-7.849
		c-39.063-3.969-81.942-23.846-91.372-61.961c-1.774-7.172-2.168-15.039,1.046-21.692c6.751-13.97,25.204-16.522,40.703-17.232
		c39.56-1.813,79.363-3.615,118.628,1.529c49.98,6.548,100.469,24.272,149.594,12.974c15.016-3.454,29.307-9.542,44.227-13.386
		c39.687-10.225,81.426-4.126,121.795,3.869c-52.104-75.092-124.06-147.002-226.99-210.148c-2.944-1.806-5.887-3.572-8.826-5.32
		c-39.539,21.457-74.019,52.675-115.476,70.534c-49.737,21.427-105.774,22.068-159.844,18.994
		c-32.315-1.837-67.894-3.959-93.614,15.691c-18.837,14.393-28.541,37.926-46.066,53.89c-21.191,19.301-50.891,25.235-78.675,32.28
		c-35.267,8.943-70.933,21.522-97.477,46.404c-26.544,24.881-41.871,64.691-29.024,98.729c16.313,43.22,68.366,60.26,114.396,64.178
		c58.893,5.013,119.491-2.123,176.266,14.313c38.576,11.167,73.19,32.639,109.203,50.414
		c62.287,30.745,129.313,50.635,196.503,68.255C2146.574,693.391,2197.439,705.375,2248.938,703.887z"/>
	<path style="opacity:0.3;fill:#FFFFFF;" d="M320.331,887.383c10.719,4.957,21.439,9.914,32.158,14.87
		c29.765,13.764,60.008,27.676,92.401,32.782c29.842,4.704,60.298,1.739,90.362-1.235c36.643-3.626,73.588-7.31,108.736-18.289
		c38.734-12.098,74.592-32.85,114.112-42.058c43.479-10.131,88.804-5.74,133.423-4.24c59.264,1.992,119.676-1.423,175.538-21.313
		c55.862-19.889,107.125-57.915,133.092-111.224c13.73-28.19,20.661-60.637,42.043-83.571c22.131-23.737,55.964-33.038,80.157-54.67
		c35.871-32.073,43.273-91.373,16.389-131.281c-2.609-3.873-5.623-7.68-9.765-9.835c-6.46-3.362-14.225-2.083-21.454-1.21
		c-26.328,3.181-53.436-0.299-78.107-10.027c-20.763-8.188-39.905-20.713-59.97-30.354c-16.379,18.054-31.754,35.75-46.042,52.782
		c-18.965,22.607-41.108,41.68-65.792,58.206c16.938,4.586,33.414,10.884,49.054,18.842c13.109,6.671,27.101,16.773,27.919,31.458
		c0.796,14.302-11.416,25.836-23.596,33.375c-33.365,20.653-75.402,29.297-100.677,59.312
		c-22.318,26.504-28.566,66.68-58.068,84.852c-13.163,8.107-29.038,10.37-44.455,11.503c-51.298,3.771-104.968-2.623-152.467,17.114
		c-10.417,4.329-20.343,9.859-31.039,13.443c-13.998,4.69-28.892,5.908-43.628,6.791c-85.747,5.137-172.096-0.009-256.64-15.21
		C387.19,815.818,352.307,848.376,320.331,887.383z"/>
	<path style="fill:#07085B;" d="M2014.585,565.712c32.069,291.676-132.413,705.948-132.413,705.948s224.783-211.695,219.886-462.421
		l-71.897-1.244c0,0,37.038-24.159,68.5-43.858C2090.002,698.915,2064.522,631.808,2014.585,565.712z"/>
	<path style="fill:#55769F;" d="M1756.663,903.135l45.423-26.836l-39.226-5.729c11.708-48.86,32.957-92.165,58.328-129.682
		c29.63,8.988,63.534,18.407,63.534,18.407l-37.466-53.413c74.945-91.874,167.327-140.17,167.327-140.17
		c32.07,291.676-132.412,705.949-132.412,705.949C1769.83,1128.328,1742.14,1004.889,1756.663,903.135z"/>
	<path style="fill:#FF5B7E;" d="M2127.961,853.786c-49.229,21.167-88.775,50.293-120.549,83.475
		c4.503,20.336,9.385,44.81,9.385,44.81l-30.284-21.08c-110.396,136.151-108.892,320.399-108.892,320.399
		c108.431-44.677,173.24-104.056,211.211-164.309c-7.73-11.236-19.453-27.743-19.453-27.743l30.965,7.991
		c16.274-30.365,26.2-60.568,31.919-88.843c-16.145-4.035-34.243-9.127-34.243-9.127l38.588-17.98
		C2145.309,908.261,2127.961,853.786,2127.961,853.786z"/>
	<path style="fill:#E03268;" d="M2088.832,1117.082c-7.73-11.236-19.453-27.743-19.453-27.743l30.965,7.991
		c16.274-30.365,26.2-60.568,31.919-88.843c-16.145-4.035-34.243-9.127-34.243-9.127l38.588-17.98
		c8.701-73.119-8.646-127.594-8.646-127.594c-139.337,150.406-250.34,427.605-250.34,427.605
		C1986.052,1236.714,2050.861,1177.335,2088.832,1117.082z"/>
	
		<rect x="1660.297" y="1212.898" transform="matrix(0.494 -0.8695 0.8695 0.494 -190.3979 2479.5212)" style="fill:#8FD0D6;" width="749.498" height="380.88"/>
	<g>
		<path style="fill:#CBEFEF;" d="M2358.013,1183.761l-346.24,609.422l-299.692-170.269l346.24-609.422L2358.013,1183.761z
			 M2003.269,1762.304l323.865-570.039l-260.31-147.894l-323.865,570.039L2003.269,1762.304z"/>
	</g>
	
		<ellipse transform="matrix(0.494 -0.8695 0.8695 0.494 -190.1357 2480.0615)" style="fill:#CBEFEF;" cx="2035.65" cy="1403.384" rx="141.434" ry="155.371"/>
	<path style="fill:#8FD0D6;" d="M2005.857,1359.075c-8.346-2.203-16.06-2.536-23.573,2.788c1.044,0.86,1.744,1.62,2.598,2.112
		c11.568,6.671,23.2,13.231,34.708,20.005c2.521,1.484,3.937,1.169,6.093-0.798c5.026-4.586,10.272-8.983,15.771-12.988
		c19.313-14.063,39.422-11.544,57.398,1.766c21.654,16.033,27.718,36.423,19.619,62.276c-1.478,4.717-0.375,6.946,3.741,8.824
		c2.998,1.368,5.766,3.244,8.922,5.058c-2.885,5.021-5.604,9.751-8.584,14.937c-4.537-2.608-9.021-5.185-13.419-7.712
		c-23.969,29.553-53.014,25.898-71.242,17.236c4.105-9.389,8.216-18.791,12.432-28.434c11.192,3.06,21.678,2.886,33.114-3.489
		c-6.439-3.7-11.985-6.889-17.532-10.074c-7.581-4.354-15.237-8.583-22.705-13.124c-2.753-1.674-4.578-1.615-7.025,0.611
		c-7.81,7.107-16.39,13.087-26.741,15.963c-20.969,5.824-38.62-1.312-52.813-16.026c-13.253-13.74-15.167-30.883-8.944-48.864
		c0.415-1.2,0.85-2.395,1.236-3.604c0.143-0.448,0.174-0.932,0.328-1.816c-3.557-2.044-7.22-4.149-11.207-6.44
		c2.919-5.08,5.642-9.817,8.715-15.165c2.666,1.532,5.493,2.917,8.05,4.692c2.707,1.879,4.314,1.184,6.288-1.232
		c8.804-10.782,19.835-17.719,34.057-18.645c7.516-0.49,14.768,0.733,22.344,3.793
		C2013.582,1340.238,2009.813,1349.428,2005.857,1359.075z M2052.966,1402.77c13.636,7.836,26.886,15.45,40.153,23.074
		c4.418-9.758,0.498-21.901-9.08-28.555C2074.667,1390.78,2062.729,1392.692,2052.966,1402.77z M1972.854,1377.598
		c-1.406,10.554,3.047,20.111,10.625,23.879c8.367,4.158,18.904,2.64,24.855-3.489
		C1996.704,1391.304,1985.044,1384.604,1972.854,1377.598z"/>
	<path style="fill:#CBEFEF;" d="M1920.876,1604.291c-9.915-5.633-22.519-2.162-28.152,7.753c-5.633,9.914-2.161,22.519,7.753,28.151
		c9.915,5.633,22.52,2.162,28.152-7.753C1934.262,1622.528,1930.791,1609.924,1920.876,1604.291z"/>
	<path style="fill:#CBEFEF;" d="M2170.764,1164.461c-9.915-5.633-22.52-2.162-28.152,7.753s-2.162,22.519,7.753,28.151
		c9.915,5.634,22.519,2.162,28.151-7.752C2184.149,1182.698,2180.678,1170.094,2170.764,1164.461z"/>
	<path style="fill:#8FD0D6;" d="M2301.729,1319.464c-1.147-0.943,26.423-46.507,26.423-46.507l-357.602,138.158l4.737,28.2
		L2301.729,1319.464z"/>
	
		<rect x="1840.885" y="1362.969" transform="matrix(0.9378 -0.3472 0.3472 0.9378 -401.4962 865.8463)" style="fill:#8FD0D6;" width="749.498" height="380.88"/>
	<g>
		<path style="fill:#CBEFEF;" d="M2604.126,1593.359l-657.314,243.342l-119.667-323.243l657.314-243.343L2604.126,1593.359z
			 M1960.188,1807.6l614.837-227.616l-103.942-280.767l-614.836,227.617L1960.188,1807.6z"/>
	</g>
	
		<ellipse transform="matrix(0.9378 -0.3472 0.3472 0.9378 -401.6107 866.0013)" style="fill:#CBEFEF;" cx="2216.067" cy="1553.833" rx="141.434" ry="155.371"/>
	<path style="fill:#8FD0D6;" d="M2221.802,1500.748c-4.967-7.06-10.654-12.281-19.832-13.045c0.245,1.33,0.292,2.362,0.628,3.289
		c4.556,12.552,9.231,25.062,13.675,37.653c0.974,2.759,2.26,3.429,5.176,3.313c6.798-0.271,13.644-0.259,20.43,0.218
		c23.832,1.675,37.596,16.551,42.78,38.309c6.245,26.211-2.244,45.716-25.088,60.282c-4.168,2.657-4.76,5.073-2.819,9.16
		c1.413,2.978,2.322,6.194,3.569,9.614c-5.439,1.983-10.566,3.853-16.184,5.901c-1.793-4.917-3.564-9.775-5.303-14.541
		c-37.367,7.179-57.237-14.319-65.607-32.684c9.187-4.541,18.386-9.087,27.82-13.751c6.594,9.547,14.727,16.166,27.582,18.652
		c-2.544-6.978-4.734-12.988-6.927-18.997c-2.997-8.213-6.132-16.379-8.922-24.661c-1.028-3.053-2.462-4.184-5.769-4.055
		c-10.552,0.408-20.967-0.541-30.739-5.006c-19.793-9.045-28.704-25.87-30.089-46.268c-1.293-19.047,8.28-33.395,24.619-43.146
		c1.09-0.651,2.191-1.285,3.267-1.961c0.397-0.25,0.732-0.601,1.421-1.178c-1.405-3.854-2.854-7.824-4.429-12.145
		c5.505-2.008,10.638-3.879,16.433-5.992c1.053,2.89,2.324,5.77,3.138,8.773c0.862,3.181,2.539,3.684,5.604,3.105
		c13.679-2.58,26.585-0.784,38.063,7.664c6.065,4.464,10.825,10.069,14.652,17.288
		C2239.841,1491.31,2231.041,1495.914,2221.802,1500.748z M2229.711,1564.512c5.389,14.775,10.623,29.133,15.865,43.51
		c9.663-4.622,14.482-16.438,11.438-27.695C2254.035,1569.312,2243.67,1563.088,2229.711,1564.512z M2184.623,1493.669
		c-7.871,7.17-10.617,17.35-7.244,25.111c3.723,8.57,12.764,14.192,21.263,13.335
		C2194.047,1519.514,2189.439,1506.879,2184.623,1493.669z"/>
	<path style="fill:#CBEFEF;" d="M1998.89,1633.649c-3.959-10.694-15.837-16.153-26.531-12.194s-16.153,15.837-12.194,26.531
		c3.959,10.693,15.837,16.153,26.531,12.194C1997.389,1656.222,2002.849,1644.344,1998.89,1633.649z"/>
	<path style="fill:#CBEFEF;" d="M2473.284,1458.025c-3.959-10.694-15.837-16.154-26.531-12.195s-16.153,15.838-12.195,26.531
		c3.96,10.694,15.838,16.154,26.532,12.195C2471.783,1480.598,2477.243,1468.719,2473.284,1458.025z"/>
	
		<rect x="1763.172" y="1519.56" transform="matrix(1 -0.0031 0.0031 1 -5.2547 6.5905)" style="fill:#8FD0D6;" width="749.498" height="380.88"/>
	<g>
		<path style="fill:#CBEFEF;" d="M2488.906,1881.262l-700.909,2.158l-1.062-344.682l700.909-2.158L2488.906,1881.262z
			 M1810.575,1860.703l655.613-2.02l-0.922-299.387l-655.613,2.019L1810.575,1860.703z"/>
	</g>
	
		<ellipse transform="matrix(1 -0.0031 0.0031 1 -5.3023 6.6491)" style="fill:#CBEFEF;" cx="2138.181" cy="1710.547" rx="141.434" ry="155.371"/>
	<path style="fill:#8FD0D6;" d="M2161.841,1662.682c-2.232-8.338-5.774-15.198-14.128-19.075c-0.228,1.333-0.539,2.318-0.543,3.304
		c-0.045,13.354,0.038,26.709-0.125,40.061c-0.036,2.925,0.94,3.997,3.719,4.892c6.477,2.085,12.899,4.454,19.105,7.238
		c21.799,9.777,29.6,28.482,26.977,50.695c-3.161,26.758-17.848,42.147-44.309,47.959c-4.828,1.061-6.216,3.124-5.802,7.63
		c0.302,3.282,0.048,6.615,0.042,10.255c-5.79-0.011-11.247-0.021-17.227-0.031c0.01-5.234,0.019-10.405,0.028-15.478
		c-37.555-6.126-48.809-33.15-50.344-53.273c10.188-1.101,20.39-2.202,30.854-3.332c2.902,11.233,8.261,20.248,19.474,27.008
		c0.014-7.427,0.026-13.823,0.037-20.22c0.014-8.743-0.118-17.489,0.114-26.226c0.086-3.22-0.872-4.775-4.021-5.793
		c-10.047-3.249-19.498-7.727-27.136-15.283c-15.469-15.307-18.043-34.171-12.32-53.798c5.344-18.327,19.271-28.503,37.97-32.033
		c1.248-0.235,2.5-0.451,3.741-0.716c0.46-0.099,0.895-0.312,1.739-0.617c0.008-4.102,0.016-8.327,0.023-12.927
		c5.859,0.011,11.324,0.021,17.491,0.032c-0.006,3.076,0.196,6.217-0.074,9.317c-0.286,3.283,1.115,4.333,4.192,4.846
		c13.731,2.287,25.23,8.416,33.098,20.3c4.157,6.279,6.697,13.182,7.805,21.276
		C2182.027,1660.031,2172.18,1661.324,2161.841,1662.682z M2147.314,1725.271c-0.029,15.727-0.058,31.009-0.085,46.312
		c10.663-1.012,19.256-10.445,20.273-22.063C2168.498,1738.151,2160.909,1728.74,2147.314,1725.271z M2129.373,1643.235
		c-9.858,4.021-15.942,12.634-15.448,21.082c0.546,9.328,7.098,17.72,15.373,19.841
		C2129.322,1670.744,2129.347,1657.296,2129.373,1643.235z"/>
	<path style="fill:#CBEFEF;" d="M1906.801,1710.712c-0.035-11.403-9.308-20.619-20.711-20.584s-20.619,9.308-20.584,20.711
		s9.308,20.618,20.711,20.583C1897.62,1731.388,1906.836,1722.115,1906.801,1710.712z"/>
	<path style="fill:#CBEFEF;" d="M2412.658,1709.154c-0.035-11.403-9.309-20.619-20.711-20.584
		c-11.403,0.035-20.619,9.308-20.584,20.711s9.308,20.619,20.711,20.584C2403.477,1729.83,2412.692,1720.558,2412.658,1709.154z"/>
	<polygon style="fill:#8FD0D6;" points="2512.476,1646.421 2512.082,1518.407 1988.759,1519.512 1983.666,1489.191 
		2540.757,1487.421 2541.076,1636 	"/>
	
		<rect x="542.427" y="854.718" transform="matrix(0.9703 -0.2421 0.2421 0.9703 -208.402 178.4766)" style="fill:#CFE8EA;" width="159.409" height="165.275"/>
	
		<rect x="55.74" y="976.14" transform="matrix(0.9703 -0.2421 0.2421 0.9703 -252.2653 64.2745)" style="fill:#CFE8EA;" width="159.408" height="165.274"/>
	<path style="fill:#74BDC1;" d="M829.85,1440.675l-110.38-442.434l-154.668,38.588l111.792,448.09l0.787,2.281
		c0.801,2.588,8.852,29.33,11.225,64.771c2.037,30.421,0.229,74.287-19.954,110.512c-19.65,35.268-54.311,59.261-105.83,73.236
		c-4.547,1.036-9.011,1.937-13.404,2.717c0.001,0,0.003-0.001,0.005-0.001l38.643,154.89c2.372-0.481,4.748-0.979,7.131-1.503
		l0.044,0.178c2.07-0.516,4.126-1.05,6.175-1.591c2.063-0.484,4.128-0.979,6.198-1.496l-0.044-0.178
		c45.834-12.806,86.025-31.912,119.608-56.896c33.965-25.267,61.376-56.596,81.474-93.118
		c17.839-32.418,29.873-68.904,35.767-108.444c4.487-30.105,5.429-62.055,2.799-94.96
		C843.444,1488.116,833.366,1452.131,829.85,1440.675z"/>
	<path style="fill:#FF5B7E;" d="M434.988,1720.779c-34.833-22.499-57.035-60.375-69.526-88.188
		c-14.553-32.402-20.008-59.793-20.516-62.454l-0.377-2.383l-111.792-448.091L78.114,1158.25l110.376,442.436
		c2.277,11.765,10.284,48.267,29.125,91.709c13.135,30.284,28.974,58.047,47.077,82.516c23.777,32.139,51.539,58.696,82.516,78.936
		c34.898,22.801,73.813,37.583,115.666,43.934c39.261,5.959,81.291,4.448,125.187-4.453l-38.642-154.889
		C503.524,1746.59,465.94,1740.771,434.988,1720.779z"/>
	
		<ellipse transform="matrix(0.7071 -0.7071 0.7071 0.7071 -583.5928 1857.0186)" style="fill:#F4A640;" cx="1949.823" cy="1632.968" rx="271.053" ry="271.054"/>
	
		<ellipse transform="matrix(0.7071 -0.7071 0.7071 0.7071 -583.593 1857.0186)" style="fill:#F9CC4B;" cx="1949.823" cy="1632.968" rx="243.777" ry="243.776"/>
	<g>
		<g>
			<path style="fill:#F4A640;" d="M1952.262,1861.184c-125.838,1.344-229.309-99.938-230.653-225.776
				c-1.345-125.839,99.938-229.31,225.776-230.654s229.309,99.938,230.654,225.777
				C2179.383,1756.367,2078.101,1859.838,1952.262,1861.184z M1947.475,1413.139c-121.215,1.295-218.775,100.965-217.48,222.179
				c1.295,121.215,100.964,218.775,222.179,217.48c121.214-1.296,218.775-100.964,217.48-222.179
				C2168.357,1509.405,2068.689,1411.843,1947.475,1413.139z"/>
		</g>
	</g>
	<path style="opacity:0.5;fill:#FFF9FF;" d="M1986.963,1560.781c-3.585-12.745-9.149-23.199-22.035-28.984
		c-0.323,2.048-0.782,3.564-0.77,5.077c0.188,20.481,0.572,40.962,0.577,61.442c0.001,4.487,1.52,6.113,5.798,7.432
		c9.973,3.074,19.869,6.584,29.441,10.735c33.621,14.577,45.944,43.116,42.347,77.234c-4.334,41.101-26.563,64.985-67.036,74.406
		c-7.385,1.719-9.474,4.911-8.751,11.813c0.525,5.028,0.2,10.145,0.26,15.728c-8.88,0.095-17.249,0.185-26.421,0.282
		c-0.086-8.027-0.171-15.958-0.254-23.738c-57.716-8.675-75.494-49.906-78.234-80.74c15.604-1.883,31.229-3.769,47.256-5.702
		c4.668,17.173,13.059,30.896,30.387,41.049c-0.122-11.391-0.226-21.202-0.332-31.014c-0.146-13.408-0.517-26.82-0.328-40.224
		c0.069-4.94-1.429-7.308-6.277-8.809c-15.472-4.79-30.054-11.476-41.912-22.919c-24.019-23.179-28.329-52.062-19.929-82.274
		c7.845-28.212,29.011-44.085,57.62-49.858c1.909-0.386,3.825-0.74,5.725-1.17c0.703-0.159,1.366-0.495,2.656-0.979
		c-0.067-6.292-0.137-12.772-0.212-19.826c8.986-0.097,17.366-0.186,26.826-0.287c0.05,4.717,0.421,9.531,0.065,14.292
		c-0.376,5.04,1.793,6.624,6.523,7.351c21.103,3.244,38.856,12.424,51.151,30.499c6.497,9.552,10.524,20.089,12.379,32.482
		C2017.872,1556.328,2002.793,1558.501,1986.963,1560.781z M1965.883,1657.054c0.258,24.121,0.509,47.56,0.76,71.03
		c16.335-1.757,29.333-16.391,30.671-34.228C1998.621,1676.403,1986.801,1662.114,1965.883,1657.054z M1936.792,1531.579
		c-15.042,6.357-24.208,19.682-23.288,32.63c1.016,14.296,11.226,27.041,23.959,30.136
		C1937.243,1573.771,1937.022,1553.145,1936.792,1531.579z"/>
	<g>
		<path style="fill:#07085B;" d="M649.896,1767.953c0,0,119.077-164.623,57.261-195.081c0,0-11.044-17.474-55.499,44.993
			c0,0-27.469,9.034-29.034-22.824c-1.565-31.859,43.541-80.33,14.779-107.953s-43.611,22.08-63.882,31.521
			c-20.271,9.442-10.669-117.577-38.78-131.204c-28.11-13.626-35.763,36.484-51.498,42.332
			c-15.735,5.848-62.228-142.159-137.436-114.649c-75.208,27.511,10.707,82.921,46.793,117.217
			c36.085,34.296-38.405,15.154-46.184,59c-7.779,43.846,125.155,8.533,113.112,51.175c-12.043,42.641-50.139,18.34-57.238,50.189
			c-11.478,51.493,120.229,1.997,117.259,37.45c-2.369,28.272-50.129,9.676-55.218,31.53
			C459.243,1683.505,541.934,1761.838,649.896,1767.953z"/>
		<path style="opacity:0.1;fill:#FFFFFF;" d="M711.344,1575.328c-0.545-0.377-1.11-0.739-1.691-1.089
			c-2.261,6.767-5.05,14.155-8.472,21.843c-12.57,28.243-36.486,66.371-79.076,88.223c-10.872-23.548-24.313-48.201-40.27-73.839
			c11.301-64.363,33.873-100.319,50.819-119.149c1.468-1.632,2.918-3.156,4.349-4.6c-0.489-0.459-0.974-0.895-1.455-1.311
			c-1.39,1.408-2.8,2.891-4.229,4.475c-16.97,18.811-39.501,54.525-51.023,118.112c-0.067-0.108-0.133-0.215-0.2-0.322
			c-16.493-26.272-35.622-53.597-57.196-81.729c-0.401-2.843-4.095-29.962-3.877-62.492c0.157-23.365,2.419-53.125,10.909-77.816
			c-0.655-0.163-1.296-0.286-1.927-0.377c-8.504,24.905-10.777,54.742-10.935,78.18c-0.183,27.234,2.367,50.706,3.455,59.421
			c-16.511-21.398-34.424-43.257-53.67-65.471c-53.671-61.949-105.25-112.192-132.142-137.452c-0.619,0.325-1.217,0.654-1.802,0.986
			c26.72,25.076,78.532,75.488,132.469,137.744c9.07,10.47,18.438,21.557,27.925,33.15c-7.336-1.282-29.227-4.755-57.662-6.028
			c-23.958-1.072-56.337-0.696-89.166,5.202c-0.02,0.106-0.042,0.21-0.061,0.316c-0.104,0.588-0.178,1.158-0.232,1.718
			c32.858-5.977,65.34-6.359,89.336-5.287c32.542,1.454,56.458,5.798,59.684,6.406c20.984,25.749,42.496,53.939,62.65,83.424
			c-46.267-5.767-119.947,10.176-156.188,19.155c-0.057,0.699-0.082,1.375-0.078,2.03c36.366-9.038,111.684-25.414,157.745-19.021
			c28.569,42.025,54.28,86.604,71.699,130.416c-38.72,6.295-84.675-10.891-116.567-26.532
			c-19.727-9.676-36.621-19.949-47.656-27.109c-0.408,0.5-0.775,1.037-1.104,1.61c11.083,7.192,28.055,17.516,47.871,27.237
			c32.273,15.832,78.869,33.229,118.197,26.654c7.403,18.866,13.25,37.581,17.106,55.879c0.339,0.021,0.675,0.05,1.015,0.068
			c0,0,0.266-0.367,0.765-1.069c-5.352-25.132-14.63-52.139-27.734-80.798c2.777-1.422,5.513-2.925,8.2-4.517
			c15.66-9.271,29.768-21.385,42.039-36.11c11.657-13.989,21.69-30.353,29.823-48.637
			C706.348,1589.27,709.098,1582.008,711.344,1575.328z"/>
	</g>
	<path style="fill:#8FD0D6;" d="M726.825,1810.063c0,0-105.104-118.019-301.561-109.997l34.066,47.031l-54.898-43.104
		c0,0-113.907,9.449-191.519,37.254c0,0,166.809,87.866,208.926,95.58l56.222-16.709l-30.451,42.014
		c0,0,91.781,51.025,186.184,40.584C728.198,1892.275,726.825,1810.063,726.825,1810.063z"/>
	<path style="fill:#333333;" d="M1229.946,916.316h612.19c26.655,0,48.264,21.608,48.264,48.263v894.932
		c0,26.655-21.608,48.264-48.264,48.264h-612.19c-26.655,0-48.263-21.608-48.263-48.264V964.579
		C1181.684,937.924,1203.292,916.316,1229.946,916.316z"/>
	<rect x="1245.499" y="997.864" style="fill:#3CB4C5;" width="587.771" height="151.247"/>
	<polygon style="opacity:0.5;fill:#3CB4C5;" points="1261.093,1019.637 1833.27,1019.637 1833.27,997.864 1245.499,997.864 
		1245.499,1149.111 1261.093,1149.111 	"/>
	<path style="fill:#E87B50;" d="M1393.037,1246.745h-126.423c-11.661,0-21.114-9.453-21.114-21.114v-12.259
		c0-11.661,9.453-21.114,21.114-21.114h126.423c11.661,0,21.115,9.453,21.115,21.114v12.259
		C1414.151,1237.292,1404.698,1246.745,1393.037,1246.745z"/>
	<path style="fill:#E87B50;" d="M1602.596,1246.745h-126.423c-11.661,0-21.114-9.453-21.114-21.114v-12.259
		c0-11.661,9.453-21.114,21.114-21.114h126.423c11.661,0,21.114,9.453,21.114,21.114v12.259
		C1623.71,1237.292,1614.257,1246.745,1602.596,1246.745z"/>
	<path style="fill:#E87B50;" d="M1812.155,1246.745h-126.423c-11.662,0-21.115-9.453-21.115-21.114v-12.259
		c0-11.661,9.453-21.114,21.115-21.114h126.423c11.661,0,21.114,9.453,21.114,21.114v12.259
		C1833.27,1237.292,1823.816,1246.745,1812.155,1246.745z"/>
	<path style="fill:#CFE4FF;" d="M1346.462,1412.045h-71.408c-16.323,0-29.555-13.232-29.555-29.556v-63.043
		c0-16.322,13.232-29.555,29.555-29.555h71.408c16.323,0,29.555,13.232,29.555,29.555v63.043
		C1376.017,1398.813,1362.785,1412.045,1346.462,1412.045z"/>
	<path style="fill:#CFE4FF;" d="M1498.879,1412.045h-71.407c-16.323,0-29.555-13.232-29.555-29.556v-63.043
		c0-16.322,13.232-29.555,29.555-29.555h71.407c16.323,0,29.556,13.232,29.556,29.555v63.043
		C1528.435,1398.813,1515.202,1412.045,1498.879,1412.045z"/>
	<path style="fill:#CFE4FF;" d="M1651.297,1412.045h-71.407c-16.323,0-29.556-13.232-29.556-29.556v-63.043
		c0-16.322,13.232-29.555,29.556-29.555h71.407c16.323,0,29.556,13.232,29.556,29.555v63.043
		C1680.853,1398.813,1667.62,1412.045,1651.297,1412.045z"/>
	<path style="fill:#CFE4FF;" d="M1346.462,1562.638h-71.408c-16.323,0-29.555-13.232-29.555-29.556v-63.043
		c0-16.323,13.232-29.556,29.555-29.556h71.408c16.323,0,29.555,13.232,29.555,29.556v63.043
		C1376.017,1549.405,1362.785,1562.638,1346.462,1562.638z"/>
	<path style="fill:#CFE4FF;" d="M1498.879,1562.638h-71.407c-16.323,0-29.555-13.232-29.555-29.556v-63.043
		c0-16.323,13.232-29.556,29.555-29.556h71.407c16.323,0,29.556,13.232,29.556,29.556v63.043
		C1528.435,1549.405,1515.202,1562.638,1498.879,1562.638z"/>
	<path style="fill:#CFE4FF;" d="M1651.297,1562.638h-71.407c-16.323,0-29.556-13.232-29.556-29.556v-63.043
		c0-16.323,13.232-29.556,29.556-29.556h71.407c16.323,0,29.556,13.232,29.556,29.556v63.043
		C1680.853,1549.405,1667.62,1562.638,1651.297,1562.638z"/>
	<path style="fill:#FDB137;" d="M1806.68,1289.892h-77.339c-14.685,0-26.59,11.904-26.59,26.589v37.81v31.165v150.593
		c0,14.686,11.905,26.59,26.59,26.59h77.339c14.686,0,26.59-11.904,26.59-26.59v-150.593v-31.165v-37.81
		C1833.27,1301.796,1821.365,1289.892,1806.68,1289.892z"/>
	<path style="fill:#CFE4FF;" d="M1346.462,1713.23h-71.408c-16.323,0-29.555-13.232-29.555-29.556v-63.043
		c0-16.323,13.232-29.556,29.555-29.556h71.408c16.323,0,29.555,13.232,29.555,29.556v63.043
		C1376.017,1699.998,1362.785,1713.23,1346.462,1713.23z"/>
	<path style="fill:#CFE4FF;" d="M1498.879,1713.23h-71.407c-16.323,0-29.555-13.232-29.555-29.556v-63.043
		c0-16.323,13.232-29.556,29.555-29.556h71.407c16.323,0,29.556,13.232,29.556,29.556v63.043
		C1528.435,1699.998,1515.202,1713.23,1498.879,1713.23z"/>
	<path style="fill:#CFE4FF;" d="M1651.297,1713.23h-71.407c-16.323,0-29.556-13.232-29.556-29.556v-63.043
		c0-16.323,13.232-29.556,29.556-29.556h71.407c16.323,0,29.556,13.232,29.556,29.556v63.043
		C1680.853,1699.998,1667.62,1713.23,1651.297,1713.23z"/>
	<path style="fill:#FDB137;" d="M1803.714,1713.23h-71.407c-16.323,0-29.556-13.232-29.556-29.556v-63.043
		c0-16.323,13.232-29.556,29.556-29.556h71.407c16.323,0,29.556,13.232,29.556,29.556v63.043
		C1833.27,1699.998,1820.037,1713.23,1803.714,1713.23z"/>
	<path style="fill:#CFE4FF;" d="M1346.462,1863.822h-71.408c-16.323,0-29.555-13.232-29.555-29.555v-63.043
		c0-16.323,13.232-29.556,29.555-29.556h71.408c16.323,0,29.555,13.232,29.555,29.556v63.043
		C1376.017,1850.59,1362.785,1863.822,1346.462,1863.822z"/>
	<path style="fill:#CFE4FF;" d="M1498.879,1863.822h-71.407c-16.323,0-29.555-13.232-29.555-29.555v-63.043
		c0-16.323,13.232-29.556,29.555-29.556h71.407c16.323,0,29.556,13.232,29.556,29.556v63.043
		C1528.435,1850.59,1515.202,1863.822,1498.879,1863.822z"/>
	<path style="fill:#FDB137;" d="M1651.297,1863.822h-71.407c-16.323,0-29.556-13.232-29.556-29.555v-63.043
		c0-16.323,13.232-29.556,29.556-29.556h71.407c16.323,0,29.556,13.232,29.556,29.556v63.043
		C1680.853,1850.59,1667.62,1863.822,1651.297,1863.822z"/>
	<path style="fill:#E87B50;" d="M1803.714,1863.822h-71.407c-16.323,0-29.556-13.232-29.556-29.555v-63.043
		c0-16.323,13.232-29.556,29.556-29.556h71.407c16.323,0,29.556,13.232,29.556,29.556v63.043
		C1833.27,1850.59,1820.037,1863.822,1803.714,1863.822z"/>
	<g>
		<path style="fill:#FFFFFF;" d="M1333.102,1620.058v6.176l-30.132,63.03h-9.689l30.025-61.221v-0.213h-33.857v-7.772H1333.102z"/>
	</g>
	<g>
		<path style="fill:#FFFFFF;" d="M1440.326,1671.696c0-8.73,5.217-14.905,13.734-18.526l-0.106-0.318
			c-7.667-3.621-10.966-9.583-10.966-15.545c0-10.967,9.262-18.42,21.399-18.42c13.416,0,20.124,8.411,20.124,17.035
			c0,5.855-2.875,12.138-11.393,16.185v0.318c8.624,3.407,13.947,9.477,13.947,17.888c0,12.031-10.328,20.123-23.53,20.123
			C1449.056,1690.436,1440.326,1681.812,1440.326,1671.696z M1477.591,1671.271c0-8.411-5.856-12.457-15.226-15.118
			c-8.092,2.342-12.457,7.665-12.457,14.267c-0.32,7.026,5.004,13.202,13.841,13.202
			C1472.16,1683.621,1477.591,1678.404,1477.591,1671.271z M1451.824,1636.667c0,6.922,5.217,10.647,13.202,12.777
			c5.963-2.023,10.541-6.282,10.541-12.563c0-5.537-3.301-11.286-11.712-11.286
			C1456.084,1625.595,1451.824,1630.705,1451.824,1636.667z"/>
	</g>
	<g>
		<path style="fill:#FFFFFF;" d="M1487.173,1802.658c0,23.529-8.73,36.519-24.063,36.519c-13.522,0-22.679-12.67-22.891-35.562
			c0-23.21,10.007-35.986,24.062-35.986C1478.868,1767.629,1487.173,1780.618,1487.173,1802.658z M1449.588,1803.723
			c0,17.993,5.537,28.214,14.055,28.214c9.583,0,14.161-11.179,14.161-28.853c0-17.035-4.366-28.215-14.055-28.215
			C1455.551,1774.869,1449.588,1784.877,1449.588,1803.723z"/>
	</g>
	<g>
		<path style="fill:#FFFFFF;" d="M1601.214,1682.662c2.022,0.214,4.365,0,7.559-0.318c5.431-0.745,10.541-2.981,14.48-6.708
			c4.578-4.152,7.879-10.222,9.156-18.419h-0.319c-3.832,4.685-9.369,7.453-16.289,7.453c-12.458,0-20.443-9.37-20.443-21.188
			c0-13.096,9.476-24.595,23.637-24.595c14.16,0,22.892,11.499,22.892,29.173c0,15.226-5.11,25.873-11.925,32.475
			c-5.324,5.217-12.671,8.41-20.123,9.263c-3.407,0.532-6.389,0.639-8.624,0.532V1682.662z M1604.621,1642.843
			c0,8.624,5.217,14.692,13.308,14.692c6.282,0,11.18-3.087,13.629-7.24c0.532-0.851,0.852-1.916,0.852-3.406
			c0-11.818-4.365-20.868-14.16-20.868C1610.264,1626.021,1604.621,1633.048,1604.621,1642.843z"/>
	</g>
	<g>
		<path style="fill:#FFFFFF;" d="M1317.13,1535.724v-18.845h-32.153v-6.176l30.876-44.186h10.115v43.015h9.689v7.347h-9.689v18.845
			H1317.13z M1317.13,1509.532v-23.104c0-3.62,0.107-7.24,0.32-10.86h-0.32c-2.129,4.046-3.832,7.027-5.749,10.222l-16.928,23.529
			v0.214H1317.13z"/>
	</g>
	<g>
		<path style="fill:#FFFFFF;" d="M1482.488,1474.396h-26.404l-2.662,17.78c1.597-0.213,3.087-0.425,5.643-0.425
			c5.323,0,10.647,1.171,14.906,3.726c5.43,3.088,9.902,9.05,9.902,17.78c0,13.522-10.754,23.637-25.767,23.637
			c-7.56,0-13.947-2.129-17.248-4.258l2.342-7.135c2.875,1.704,8.518,3.834,14.8,3.834c8.837,0,16.396-5.75,16.396-15.014
			c-0.106-8.942-6.069-15.331-19.91-15.331c-3.939,0-7.026,0.426-9.582,0.745l4.472-33.219h33.112V1474.396z"/>
	</g>
	<g>
		<path style="fill:#FFFFFF;" d="M1635.284,1473.119c-1.916-0.106-4.365,0-7.026,0.426c-14.693,2.449-22.466,13.202-24.063,24.595
			h0.32c3.301-4.365,9.05-7.985,16.715-7.985c12.245,0,20.869,8.837,20.869,22.358c0,12.67-8.624,24.382-22.997,24.382
			c-14.801,0-24.489-11.498-24.489-29.492c0-13.628,4.897-24.382,11.712-31.196c5.749-5.643,13.416-9.156,22.146-10.221
			c2.769-0.427,5.111-0.532,6.814-0.532V1473.119z M1632.622,1513.045c0-9.901-5.643-15.863-14.267-15.863
			c-5.644,0-10.86,3.513-13.415,8.518c-0.64,1.064-1.064,2.448-1.064,4.151c0.212,11.394,5.429,19.804,15.226,19.804
			C1627.192,1529.654,1632.622,1522.946,1632.622,1513.045z"/>
	</g>
	<g>
		<path style="fill:#FFFFFF;" d="M1308.506,1328.105h-0.212l-12.031,6.495l-1.81-7.134l15.118-8.092h7.985v69.206h-9.05V1328.105z"
			/>
	</g>
	<g>
		<path style="fill:#FFFFFF;" d="M1441.177,1388.581v-5.749l7.347-7.135c17.674-16.821,25.66-25.766,25.767-36.199
			c0-7.027-3.407-13.521-13.734-13.521c-6.282,0-11.5,3.193-14.693,5.855l-2.981-6.602c4.791-4.046,11.605-7.027,19.591-7.027
			c14.905,0,21.188,10.222,21.188,20.123c0,12.777-9.263,23.104-23.85,37.159l-5.536,5.11v0.213h31.089v7.772H1441.177z"/>
	</g>
	<g>
		<path style="fill:#FFFFFF;" d="M1598.02,1377.827c2.662,1.704,8.837,4.366,15.331,4.366c12.032,0,15.758-7.667,15.651-13.416
			c-0.105-9.689-8.837-13.841-17.887-13.841h-5.217v-7.028h5.217c6.813,0,15.438-3.513,15.438-11.711
			c0-5.536-3.514-10.435-12.138-10.435c-5.536,0-10.86,2.449-13.841,4.578l-2.449-6.813c3.62-2.662,10.646-5.324,18.1-5.324
			c13.628,0,19.804,8.092,19.804,16.504c0,7.134-4.259,13.201-12.776,16.29v0.212c8.518,1.704,15.438,8.092,15.438,17.781
			c0,11.073-8.624,20.762-25.233,20.762c-7.772,0-14.587-2.448-17.994-4.685L1598.02,1377.827z"/>
	</g>
	<g>
		<path style="fill:#FFFFFF;" d="M1319.104,1828.881c0,4.609-3.737,8.347-8.347,8.347c-4.609,0-8.346-3.737-8.346-8.347
			s3.737-8.347,8.346-8.347C1315.368,1820.534,1319.104,1824.271,1319.104,1828.881z"/>
	</g>
	<g>
		<polygon style="fill:#FFFFFF;" points="1817.591,1430.67 1773.659,1430.67 1773.659,1386.737 1762.362,1386.737 1762.362,1430.67 
			1718.43,1430.67 1718.43,1441.966 1762.362,1441.966 1762.362,1485.898 1773.659,1485.898 1773.659,1441.966 1817.591,1441.966 		
			"/>
	</g>
	<g>
		<polygon style="fill:#FFFFFF;" points="1644.833,1828.749 1621.574,1805.49 1644.833,1782.23 1638.853,1776.25 1615.593,1799.509 
			1592.334,1776.25 1586.353,1782.23 1609.612,1805.49 1586.353,1828.749 1592.334,1834.73 1615.593,1811.471 1638.853,1834.73 		
			"/>
	</g>
	<g>
		<rect x="1728.511" y="1649.754" style="fill:#FFFFFF;" width="73.571" height="11.267"/>
	</g>
	<g>
		<rect x="1731.225" y="1779.967" style="fill:#FFFFFF;" width="73.571" height="11.267"/>
	</g>
	<g>
		<rect x="1731.225" y="1808.33" style="fill:#FFFFFF;" width="73.571" height="11.267"/>
	</g>
	<g>
		<rect x="1098.328" y="1379.905" style="fill:#F4A640;" width="247.91" height="104.901"/>
		<rect x="850.419" y="1379.905" style="fill:#FEB546;" width="247.909" height="104.901"/>
		<rect x="602.509" y="1379.905" style="fill:#F9C27A;" width="247.91" height="104.901"/>
		<g>
			<path style="fill:#E2881E;" d="M1348.179,1487.893H600.568v-111.071h747.611V1487.893z M604.452,1481.727h739.843v-98.739
				H604.452V1481.727z"/>
		</g>
	</g>
	<g>
		<rect x="1060.35" y="1589.717" style="fill:#F4A640;" width="247.909" height="104.901"/>
		<rect x="812.441" y="1589.717" style="fill:#FEB546;" width="247.909" height="104.901"/>
		<rect x="564.532" y="1589.717" style="fill:#F9C27A;" width="247.909" height="104.901"/>
		<g>
			<path style="fill:#E2881E;" d="M1310.202,1697.704H562.59v-111.071h747.611V1697.704z M566.474,1691.538h739.843v-98.739H566.474
				V1691.538z"/>
		</g>
	</g>
	<g>
		<rect x="1098.328" y="1694.623" style="fill:#F4A640;" width="247.91" height="104.9"/>
		<rect x="850.419" y="1694.623" style="fill:#FEB546;" width="247.909" height="104.9"/>
		<rect x="602.509" y="1694.623" style="fill:#F9C27A;" width="247.91" height="104.9"/>
		<g>
			<path style="fill:#E2881E;" d="M1348.179,1802.61H600.568v-111.072h747.611V1802.61z M604.452,1796.444h739.843v-98.74H604.452
				V1796.444z"/>
		</g>
	</g>
	<g>
		<rect x="1158.171" y="1799.528" style="fill:#F4A640;" width="247.909" height="104.901"/>
		<rect x="910.262" y="1799.528" style="fill:#FEB546;" width="247.909" height="104.901"/>
		<rect x="662.353" y="1799.528" style="fill:#F9C27A;" width="247.909" height="104.901"/>
		<g>
			<path style="fill:#E2881E;" d="M1408.022,1907.516H660.411v-111.071h747.611V1907.516z M664.295,1901.35h739.843v-98.739H664.295
				V1901.35z"/>
		</g>
	</g>
	<g>
		<rect x="1139.183" y="1484.811" style="fill:#F4A640;" width="247.909" height="104.901"/>
		<rect x="891.273" y="1484.811" style="fill:#FEB546;" width="247.909" height="104.901"/>
		<rect x="643.364" y="1484.811" style="fill:#F9C27A;" width="247.909" height="104.901"/>
		<g>
			<path style="fill:#E2881E;" d="M1389.034,1592.799H641.422v-111.072h747.611V1592.799z M645.307,1586.633h739.843v-98.74H645.307
				V1586.633z"/>
		</g>
	</g>
	<path style="fill:#6DB1B5;" d="M769.108,684.504l7.478,56.351l-40.027-29.231l-122.511-62.587l94.762,8.676
		c0,0,48.274,11.727,50.887,14.092C762.31,674.17,769.108,684.504,769.108,684.504z"/>
	<polygon style="fill:#FFC0BB;" points="1526.26,1046.111 1526.26,1055.74 1548.023,1061.426 1548.63,1040.186 	"/>
	<path style="fill:#FFC0BB;" d="M1575.647,1044.111v11.481c0,0,20.908,6.272,20.834,6.321s1.704-18.84,1.704-18.84
		L1575.647,1044.111z"/>
	<polygon style="fill:#8FD0D6;" points="811.069,650.476 614.049,649.037 769.108,684.504 	"/>
	<polygon style="fill:#8FD0D6;" points="705.773,741.195 757.397,699.728 614.049,649.037 	"/>
	<g>
		<path style="fill:#6DB1B5;" d="M1012.779,989.067l-2.6-3.843c3.982-2.693,7.63-5.995,10.843-9.814l3.55,2.987
			C1021.084,982.544,1017.116,986.134,1012.779,989.067z"/>
	</g>
	<g>
		<path style="fill:#6DB1B5;" d="M1038.849,951.253l-4.427-1.39c2.688-8.559,4.464-18.276,5.279-28.883l4.625,0.355
			C1043.484,932.294,1041.642,942.359,1038.849,951.253z M1044.171,891.011l-4.617,0.467c-0.128-1.273-0.276-2.544-0.446-3.813
			c-0.573-4.319-1.399-8.68-2.457-12.966c-0.974-3.95-2.167-7.928-3.547-11.825l4.375-1.548c1.429,4.039,2.667,8.165,3.678,12.262
			c1.097,4.45,1.956,8.98,2.552,13.465C1043.879,888.336,1044.035,889.668,1044.171,891.011z M1020.372,836.371
			c-4.959-8.102-10.877-16.074-17.587-23.695l3.481-3.066c6.888,7.821,12.965,16.01,18.063,24.339L1020.372,836.371z
			 M875.41,825.394c-3.16,0.779-11.207,0.957-16.373-2.123c-3.862-2.302-7.079-5.918-9.298-10.457l4.168-2.039
			c1.85,3.781,4.375,6.644,7.506,8.51c3.725,2.221,10.37,2.225,12.887,1.604c0.337-0.083,0.466-0.146,0.467-0.146
			c0.196-0.126,0.429-0.277,0.661-0.432l2.576,3.859c-0.265,0.177-0.532,0.351-0.802,0.521
			C876.744,824.98,876.157,825.21,875.41,825.394z M981.641,791.968c-7.383-6.284-15.377-12.251-23.76-17.735l2.541-3.883
			c8.544,5.591,16.695,11.675,24.227,18.085L981.641,791.968z M894.717,798.099l-4.542-0.952c0.599-2.858,0.907-5.774,0.914-8.666
			c0.011-4.073-0.512-8.279-1.553-12.501c-0.565-2.292-1.294-4.628-2.164-6.947l4.343-1.632c0.935,2.488,1.717,5,2.326,7.468
			c1.132,4.589,1.699,9.173,1.688,13.624C895.722,791.7,895.381,794.932,894.717,798.099z M853.93,783.821l-4.186-2.001
			c4.204-8.792,12.104-16.494,21.676-21.131l0.639-0.305l1.973,4.2l-0.589,0.281C864.8,769.051,857.688,775.961,853.93,783.821z
			 M930.904,763.017c-8.413-2.569-15.092-4.131-18.327-4.285c-3.71-0.177-7.102-0.215-10.37-0.116l-0.141-4.638
			c3.39-0.103,6.9-0.064,10.731,0.119c4.933,0.235,14.31,2.909,19.461,4.482L930.904,763.017z M872.332,744.236
			c-6.328-7.41-13.729-13.85-22-19.14l2.5-3.909c8.656,5.537,16.404,12.278,23.028,20.037L872.332,744.236z"/>
	</g>
	<g>
		<path style="fill:#6DB1B5;" d="M823.718,713.212c-4.88-1.342-9.808-2.271-14.649-2.762l0.469-4.617
			c5.097,0.517,10.282,1.495,15.411,2.905L823.718,713.212z"/>
	</g>
	<path style="fill:#07085B;" d="M1447.465,598.586l-3.992,25.04l-8.435-33.385c0,0,11.822-5.737,12.344-3.65
		C1447.903,588.677,1447.465,598.586,1447.465,598.586z"/>
	<polygon style="fill:#FFC0BB;" points="1380.362,652.48 1376.711,695.769 1414.911,693.943 1410.506,655.609 	"/>
	<path style="fill:#F99893;" d="M1412.601,673.84l-2.095-18.23l-30.144-3.129l-1.265,14.991
		C1385.091,673.442,1395.869,679.634,1412.601,673.84z"/>
	<g>
		<path style="fill:#F99893;" d="M1436.023,623.313c-2.297,4.75-1.078,10.09,2.722,11.928c3.801,1.837,8.743-0.524,11.04-5.274
			c2.297-4.75,1.078-10.091-2.722-11.928C1443.263,616.201,1438.32,618.563,1436.023,623.313z"/>
		<path style="fill:#FFC0BB;" d="M1432.815,651.751c1.347-2.026,2.515-4.192,3.484-6.476c2.733-6.125,4.334-12.71,5.267-18.483
			c0.2-1.239,0.472-2.463,0.766-3.683c1.188-4.926,1.505-10.208,0.68-15.713c-2.655-17.713-16.905-31.834-34.647-34.287
			c-23.902-3.304-44.957,14.393-46.444,37.832c-2.458-1.578-5.3-2.086-7.891-1.121c-4.971,1.853-7.123,8.392-4.808,14.605
			c2.316,6.213,8.224,9.749,13.194,7.896c0.69-0.257,1.32-0.613,1.897-1.038c0.768,20.073,16.132,36.504,35.752,37.423
			c9.595,0.449,18.521-2.895,25.452-8.754c0.459-0.338,0.945-0.737,1.459-1.205C1429.229,656.697,1431.154,654.319,1432.815,651.751
			z"/>
		<path style="fill:#F99893;" d="M1411.812,613.704c0.079,2.339,0.097,4.621,0.217,6.857c0.146,2.187,0.384,4.525,1.261,6.065
			l0.175,0.246c0.065,0.092,0.082,0.141,0.217,0.306c0.208,0.294,0.459,0.539,0.616,0.88c0.354,0.636,0.599,1.379,0.61,2.143
			c0.053,1.547-0.763,2.932-1.781,3.778c-2.085,1.754-4.787,1.921-7.024,1.37c2.282-0.403,4.47-1.188,5.743-2.678
			c0.589-0.741,0.98-1.569,0.844-2.344c-0.043-0.383-0.174-0.758-0.398-1.109c-0.076-0.188-0.261-0.341-0.378-0.518l-0.292-0.387
			l-0.327-0.453c-0.731-1.247-0.965-2.511-1.105-3.732c-0.114-1.227-0.097-2.418,0.016-3.599
			C1410.432,618.177,1410.933,615.882,1411.812,613.704z"/>
		<path style="fill:#333333;" d="M1398.271,616.794c-0.092,1.966-1.76,3.484-3.726,3.392c-1.965-0.092-3.484-1.76-3.392-3.726
			c0.092-1.965,1.76-3.484,3.726-3.392C1396.845,613.161,1398.364,614.829,1398.271,616.794z"/>
		<path style="fill:#333333;" d="M1428.741,620.23c-0.093,1.965-1.761,3.484-3.726,3.392c-1.966-0.092-3.484-1.76-3.393-3.726
			c0.092-1.965,1.76-3.484,3.726-3.392C1427.314,616.597,1428.833,618.265,1428.741,620.23z"/>
		<path style="fill:#F99893;" d="M1392.295,640.917c0.935,0.815,1.911,1.57,2.943,2.237c1.017,0.685,2.075,1.307,3.173,1.837
			c2.192,1.059,4.518,1.833,6.914,2.124c2.395,0.302,4.832,0.093,7.178-0.529c2.339-0.656,4.567-1.733,6.678-3.033
			c-0.95,0.798-1.965,1.525-3.043,2.16c-1.079,0.638-2.24,1.127-3.424,1.561c-1.197,0.398-2.44,0.675-3.702,0.808
			c-1.264,0.117-2.539,0.102-3.8-0.039c-2.519-0.328-4.953-1.171-7.134-2.419C1395.899,644.38,1393.897,642.821,1392.295,640.917z"
			/>
		<path style="fill:#07085B;" d="M1402.744,608.748c-1.813-0.56-3.521-0.988-5.21-1.25c-1.686-0.26-3.338-0.305-4.948-0.109
			c-1.601,0.215-3.212,0.559-4.76,1.262c-0.822,0.255-1.539,0.743-2.37,1.09c-0.802,0.399-1.545,0.907-2.443,1.301
			c0.448-0.826,0.971-1.635,1.582-2.376c0.672-0.671,1.315-1.429,2.155-1.94c1.567-1.191,3.536-1.876,5.521-2.123
			c1.999-0.24,4.041,0.052,5.855,0.778C1399.929,606.121,1401.58,607.222,1402.744,608.748z"/>
		<path style="fill:#07085B;" d="M1418.439,610.516c1.438-1.272,3.272-2.03,5.186-2.407c1.92-0.361,3.98-0.25,5.894,0.373
			c1.899,0.629,3.699,1.682,5.004,3.155c0.725,0.665,1.208,1.533,1.737,2.322c0.454,0.846,0.811,1.74,1.09,2.639
			c-0.805-0.561-1.435-1.203-2.144-1.751c-0.748-0.501-1.356-1.119-2.113-1.529c-1.382-0.991-2.896-1.641-4.424-2.163
			c-1.542-0.504-3.172-0.781-4.876-0.854C1422.085,610.231,1420.328,610.318,1418.439,610.516z"/>
	</g>
	<path style="fill:#E03268;" d="M1401.397,855.54c0,0-7.965,54.038,44.246,63.453c52.212,9.415,117.176,6.606,117.176,6.606
		l9.04,124.129l27.258,1.391c0,0,70.186-172.469-26.962-199.431l-87.305,0.428l-35.949-2.568c0,0-36.376-8.987-36.804-7.275
		C1411.668,843.985,1402.253,856.396,1401.397,855.54z"/>
	<path style="fill:#FF5B7E;" d="M1353.414,855.825c0,0-7.965,54.038,44.246,63.453c52.212,9.415,117.175,6.607,117.175,6.607
		l9.041,124.129l27.257,1.391c0,0,70.187-172.469-26.961-199.431l-87.305,0.428l-35.949-2.568c0,0-36.377-8.987-36.805-7.275
		C1363.685,844.27,1354.27,856.681,1353.414,855.825z"/>
	<path style="fill:#333333;" d="M1419.178,678.505c0,0,35.949,4.565,45.079,11.983c9.13,7.418,53.067,116.406,53.067,116.406
		l-36.52,42.796l-77.604,0.571c0,0-58.203,31.384-94.723,1.712c-36.52-29.672-17.689-132.954,3.423-155.208
		c21.113-22.254,58.774-21.684,58.774-21.684S1404.912,699.048,1419.178,678.505z"/>
	<path style="fill:#FFFFFF;" d="M1349.563,732.714c1.286,5.939,2.072,11.97,2.633,18.018c0.31,3.023,0.443,6.06,0.618,9.096
		c0.091,3.04,0.162,6.081,0.12,9.126c-0.119,6.084-0.453,12.189-1.499,18.213c-1.021,6.001-2.506,12.022-5.296,17.445
		c1.877-5.785,2.807-11.73,3.481-17.691c0.662-5.966,0.891-11.984,0.968-17.998c0.124-6.017-0.023-12.045-0.214-18.077
		C1350.161,744.813,1349.885,738.776,1349.563,732.714z"/>
	<path style="fill:#FFFFFF;" d="M1457.124,728.72c1.643,8.84,3.382,17.646,5.149,26.439c1.806,8.785,3.673,17.551,5.799,26.25
		c2.102,8.702,4.438,17.346,7.264,25.821c1.415,4.237,2.996,8.416,4.849,12.473c1.827,4.066,3.993,8.002,6.896,11.443
		c-3.302-3.084-5.732-6.993-7.927-10.93c-2.127-3.993-3.962-8.139-5.542-12.368c-1.615-4.218-3.001-8.516-4.313-12.83
		c-1.267-4.327-2.425-8.684-3.506-13.057c-1.031-4.385-2.02-8.778-2.907-13.19c-0.856-4.419-1.699-8.839-2.407-13.282
		C1459.01,746.613,1457.868,737.684,1457.124,728.72z"/>
	<path style="fill:#FFC0BB;" d="M1475.188,825.025c-0.229-1.806-13.942-3.824-18.984-4.084c-3.819-0.197-29.138-1.043-37.75-1.432
		l0.633,2.214l-0.13,9.779l-1.414,6.481c7.555,0.477,26.025,1.201,29.871,1.962c5.138,1.016,14.049,4.889,14.049,4.889
		s3.707-0.842-1.003-2.874c-3.781-1.631-6.436-4.161-7.559-5.416c-0.646-0.722,0.054-2.01,0.524-1.887
		c12.822,3.36,14.142,3.916,14.142,3.916s15.071-0.085,0.085-3.472c-8.982-2.03-12.201-3.211-13.002-4.219
		c-0.341-0.429,0.269-1.889,0.815-1.923c7.782-0.481,21.751,2.278,17.925,0.469c-3.12-1.476-12.946-3.093-16.769-3.702
		c-0.234-0.038-0.613-1.461,0.43-1.548C1464.465,823.561,1475.4,826.704,1475.188,825.025z"/>
	<path style="fill:#FFFFFF;" d="M1340.789,803.114c3.156,0.767,6.268,1.649,9.438,2.311c3.146,0.75,6.339,1.298,9.499,1.963
		c6.361,1.16,12.743,2.17,19.143,3.069c6.407,0.841,12.824,1.615,19.257,2.235c6.408,0.636,12.926,1.182,19.269,1.536l0.854,0.048
		l0.188,0.739c0.544,2.151,0.9,4.25,1.171,6.4c0.269,2.141,0.381,4.302,0.378,6.463c-0.018,2.163-0.205,4.328-0.561,6.47
		c-0.394,2.138-1.026,4.233-1.878,6.24l-0.074,0.174l-0.138,0.093l-7.048,4.728c-2.348,1.578-4.705,3.143-7.084,4.677
		c2.209-1.771,4.44-3.51,6.681-5.237l6.718-5.187l-0.212,0.266c0.707-1.939,1.205-3.947,1.477-5.999
		c0.249-2.055,0.363-4.128,0.301-6.207c-0.068-2.078-0.273-4.152-0.565-6.213c-0.301-2.049-0.708-4.13-1.247-6.079l1.041,0.787
		c-3.352-0.088-6.527-0.304-9.789-0.542c-3.241-0.239-6.479-0.496-9.71-0.837c-6.463-0.667-12.914-1.474-19.332-2.499
		c-6.416-1.035-12.8-2.288-19.125-3.782c-3.15-0.805-6.305-1.582-9.407-2.56C1346.905,805.295,1343.842,804.2,1340.789,803.114z"/>
	<path style="fill:#8FD0D6;" d="M1637.529,752.4h-140.372l-39.801,97.148h-48.451c-1.891,0-3.476,1.852-3.423,3.424
		c0.062,1.89,1.533,3.423,3.423,3.423h181.975L1637.529,752.4z"/>
	<path style="fill:#DAEEF7;" d="M1567.924,807.837c-0.828,4.14-4.437,6.909-8.06,6.184c-3.624-0.725-5.889-4.669-5.061-8.81
		c0.828-4.141,4.438-6.909,8.061-6.184C1566.487,799.752,1568.753,803.696,1567.924,807.837z"/>
	<path style="fill:#07085B;" d="M1448.231,574.896c0,0,11.984,0.386-0.593-9.748c-12.577-10.134-46.343-22.018-67.986-10.588
		c0,0-4.328-9.202-10.584-7.004c-6.257,2.197,4.068,8.527,4.068,8.527s-7.99-0.258-10.428,3.662
		c-1.803,2.897,3.09,3.024,5.765,2.893c-4.548,0.774-21.984,11.786-13.234,46.944c3.111-0.684,20.836-26.386,20.836-26.386
		s40.535,22.52,36.526,4.613c0,0,41.995,26.207,36.037,4.559C1448.638,592.366,1464.877,593.557,1448.231,574.896z"/>
	<path style="fill:#07085B;" d="M1355.205,609.792c0,0,3.358-1.179,6.967,1.685c3.61,2.865,3.21,12.931,3.21,12.931
		s17.231,11.111,15.415-35.906c-1.933-50.02-14.374,4.012-14.374,4.012L1355.205,609.792z"/>
	<polygon style="fill:#FEB546;" points="580.004,546.331 475.097,688.609 512.996,706.724 467.061,821.355 580.216,689.88 
		535.749,672.315 	"/>
	<path style="fill:#FFC0BB;" d="M848.596,1367.472l21.826-13.465l18.85,11.388l-6.585,4.688l-22.859,3.224
		c0,0-8.922-1.142-9.315-1.406C850.12,1371.635,848.596,1367.472,848.596,1367.472z"/>
	<path style="fill:#FF5B7E;" d="M848.596,1367.472l-5.531,3.559c-2.563,1.616-1.428,5.579,1.603,5.593l41.876,0.198
		c1.477,0.007,2.68-1.185,2.687-2.662l0.042-8.765C861.341,1374.143,851.721,1371.396,848.596,1367.472z"/>
	<path style="fill:#FFC0BB;" d="M940.458,1368.257l21.826-13.465l18.85,11.388l-6.585,4.687l-22.859,3.225
		c0,0-8.922-1.143-9.314-1.407C941.983,1372.42,940.458,1368.257,940.458,1368.257z"/>
	<path style="fill:#FF5B7E;" d="M940.458,1368.257l-5.531,3.559c-2.563,1.616-1.428,5.578,1.603,5.593l41.876,0.197
		c1.477,0.007,2.68-1.185,2.687-2.662l0.042-8.764C953.204,1374.927,943.583,1372.181,940.458,1368.257z"/>
	<polygon style="fill:#FEB546;" points="38.107,779.622 117.208,891.494 139.775,868.027 212.914,929.771 143.772,814.465 
		120.007,842.898 	"/>
	<polygon style="fill:#FEB546;" points="286.434,613.992 273.768,715.141 297.94,713.569 307.146,784.185 327.008,686.146 
		299.686,689.845 	"/>
	<path style="fill:#FF5B7E;" d="M1154.388,997.281c0,0,13.473-8.817,28.804,0c15.331,8.818,15.331,38.557,9.292,45.674
		s0.31,16.75-11.77,26.041c-12.079,9.292-31.311,12.702-42.291,1.848s-2.928-35.067-2.928-35.067L1154.388,997.281z"/>
	<path style="fill:#FFC0BB;" d="M984.756,1096.325c-0.253,0.624-1.099,0.724-1.481,0.17c-2.963-4.294-12.374-17.745-13.638-17.239
		c-1.503,0.602,6.613,12.825,5.711,14.027c-0.902,1.202-8.517-10.922-10.02-10.02c-1.503,0.901,5.811,11.723,5.31,12.324
		c-0.501,0.601-8.617-9.018-9.819-9.018c-1.203,0,6.212,11.322,5.811,12.224c-0.4,0.901-8.116-5.21-8.717-4.609
		c-0.601,0.602-1.103,0.902,12.324,19.639c0,0,5.842,5.897,6.243,8.302l7.083,2.219l7.214-7.113c0,0,0.702-29.658-0.301-30.36
		C989.522,1086.201,988.658,1086.718,984.756,1096.325z"/>
	<polygon style="fill:#191919;" points="1010.112,1273.903 982.688,1367.601 949.556,1358.333 960.602,1279.654 994.859,1256.15 	
		"/>
	<path style="fill:#07085B;" d="M1117.132,1081.617c0,0-57.511,70.764-67.263,82.016l-58.261-57.511c0,0-11.753,6.501-17.753,13.502
		c0,0,23.504,54.261,43.758,68.514l40.507,27.255l-7.751,18.504l14.503,11.252l7.626-18.254l20.879-46.259l19.754-61.512
		l3.75-30.505L1117.132,1081.617z"/>
	<path style="fill:#FFFFFF;" d="M1116.882,1088.619c0,0-24.254,39.507-29.255,54.76s-1,16.503-3.251,35.007
		c-2.25,18.503-19.253,68.013-19.253,68.013l28.255,19.004c0,0,15.253-48.76,15.253-50.76s14.253-91.268,14.253-91.268
		l11.752-33.256L1116.882,1088.619z"/>
	<path style="fill:#333333;" d="M1090.627,1263.401c0,0-48.509-43.508-86.016-52.26c-37.507-8.751-138.389,143.414-138.389,143.414
		l24.117,17.366c0,0,87.267-62.762,103.77-90.767c0,0,70.897,93.491,94.652,95.742c23.754,2.25,50.546-2.771,82.131-40.731
		C1206.698,1293.131,1090.627,1263.401,1090.627,1263.401z"/>
	<path style="fill:#FFC0BB;" d="M1138.887,1050.111l10.752,29.006c0,0-7.783,17.722-33.85,11.158c0,0,2.719-6.189-1.688-18.566
		C1109.597,1059.062,1138.887,1050.111,1138.887,1050.111z"/>
	<path style="opacity:0.6;fill:#FC8D84;" d="M1138.887,1050.111l5.043,13.549c-2.335,10.123-10.862,17.272-27.337,19.999
		c-0.104-2.979-0.712-6.951-2.492-11.95C1109.597,1059.062,1138.887,1050.111,1138.887,1050.111z"/>
	<path style="fill:#FFFFFF;" d="M989.858,1252.774c-0.477,2.375-0.697,4.81-0.687,7.241c0.013,2.433,0.21,4.867,0.582,7.273
		c0.38,2.405,0.919,4.783,1.57,7.129c0.649,2.351,1.453,4.643,2.429,6.896l0.566-0.489c-1.296-0.862-2.538-1.901-3.718-2.966
		c-1.184-1.071-2.333-2.187-3.43-3.354c-1.088-1.175-2.133-2.392-3.146-3.637c-1.021-1.241-1.965-2.542-2.918-3.842
		c0.827,1.382,1.708,2.734,2.65,4.045c0.924,1.326,1.957,2.57,3.002,3.805c1.068,1.215,2.168,2.406,3.354,3.514
		c1.195,1.104,2.414,2.155,3.787,3.095l1.086,0.742l-0.519-1.232c-0.925-2.197-1.667-4.503-2.36-6.801
		c-0.672-2.31-1.235-4.653-1.64-7.024c-0.421-2.366-0.735-4.759-0.831-7.165C989.51,1257.599,989.587,1255.183,989.858,1252.774z"/>
	<path style="fill:#F99893;" d="M1079.09,1030.781c2.268,4.691,1.064,9.965-2.688,11.78c-3.753,1.814-8.634-0.518-10.902-5.209
		c-2.268-4.69-1.064-9.965,2.688-11.779C1071.941,1023.759,1076.822,1026.091,1079.09,1030.781z"/>
	<path style="fill:#FFC0BB;" d="M1082.258,1058.865c-1.33-2.001-2.484-4.141-3.441-6.395c-2.699-6.049-4.28-12.552-5.201-18.253
		c-0.198-1.224-0.466-2.433-0.756-3.637c-1.174-4.865-1.486-10.081-0.671-15.518c2.623-17.492,16.695-31.438,34.216-33.859
		c23.604-3.263,44.396,14.213,45.864,37.359c2.428-1.558,5.234-2.06,7.792-1.107c4.909,1.83,7.034,8.287,4.748,14.424
		c-2.287,6.136-8.121,9.627-13.03,7.797c-0.682-0.254-1.304-0.604-1.874-1.024c-0.758,19.822-15.931,36.049-35.306,36.956
		c-9.475,0.444-18.29-2.858-25.133-8.645c-0.455-0.333-0.934-0.728-1.441-1.189
		C1085.799,1063.749,1083.898,1061.401,1082.258,1058.865z"/>
	<path style="fill:#F99893;" d="M1103,1021.292c0.089,2.282,0.161,4.538,0.103,6.767c-0.065,1.108-0.089,2.221-0.287,3.285
		c-0.178,1.055-0.425,2.115-0.928,2.924l-0.198,0.279c-0.071,0.101-0.109,0.174-0.226,0.318c-0.188,0.27-0.423,0.498-0.564,0.808
		c-0.157,0.297-0.318,0.589-0.397,0.926c-0.117,0.321-0.159,0.663-0.175,1.007c-0.067,1.394,0.666,2.664,1.596,3.482
		c0.938,0.847,2.095,1.326,3.249,1.563c1.164,0.222,2.34,0.216,3.465,0.016c-1.138-0.133-2.243-0.329-3.261-0.725
		c-1.018-0.376-1.95-0.948-2.633-1.692c-0.657-0.75-1.117-1.664-0.997-2.563c0.032-0.222,0.047-0.444,0.14-0.656
		c0.048-0.22,0.173-0.419,0.284-0.623c0.09-0.212,0.286-0.378,0.418-0.573c0.15-0.193,0.392-0.518,0.575-0.777
		c0.663-1.146,0.903-2.35,1.056-3.522c0.131-1.181,0.123-2.343,0.049-3.497C1104.106,1025.735,1103.702,1023.472,1103,1021.292z"/>
	<path style="fill:#333333;" d="M1116.371,1024.345c0.091,1.94,1.738,3.44,3.679,3.35s3.441-1.738,3.35-3.679
		c-0.091-1.941-1.738-3.441-3.679-3.351C1117.78,1020.757,1116.28,1022.403,1116.371,1024.345z"/>
	<path style="fill:#333333;" d="M1086.282,1027.737c0.091,1.941,1.738,3.44,3.679,3.35c1.941-0.091,3.441-1.737,3.35-3.679
		c-0.091-1.941-1.738-3.441-3.679-3.35C1087.69,1024.149,1086.191,1025.796,1086.282,1027.737z"/>
	<path style="opacity:0.3;fill:#F99893;" d="M1117.971,1051.058c0,0-5.097-1.617-9.713,1.657c0,0-5.234-3.014-9.152,0.192
		c0,0,2.151,7.549,10.535,6.727C1118.025,1058.812,1117.971,1051.058,1117.971,1051.058z"/>
	<path style="fill:#F99893;" d="M1122.272,1048.167c-0.923,0.805-1.886,1.55-2.906,2.208c-1.004,0.678-2.049,1.292-3.134,1.814
		c-2.165,1.046-4.462,1.812-6.828,2.098c-2.365,0.299-4.771,0.092-7.088-0.522c-2.31-0.648-4.51-1.711-6.594-2.995
		c0.938,0.788,1.94,1.506,3.005,2.134c1.065,0.629,2.212,1.112,3.381,1.541c1.182,0.393,2.409,0.666,3.656,0.798
		c1.248,0.115,2.507,0.101,3.753-0.039c2.488-0.324,4.891-1.156,7.045-2.388C1118.714,1051.586,1120.691,1050.047,1122.272,1048.167
		z"/>
	<path style="fill:#FF5B7E;" d="M1111.954,1016.399c1.792-0.554,3.477-0.976,5.145-1.235c1.665-0.256,3.297-0.301,4.887-0.108
		c1.581,0.212,3.171,0.551,4.7,1.246c0.812,0.253,1.52,0.734,2.341,1.076c0.791,0.394,1.526,0.896,2.412,1.285
		c-0.443-0.816-0.959-1.615-1.562-2.347c-0.664-0.663-1.299-1.411-2.128-1.916c-1.547-1.177-3.492-1.853-5.453-2.098
		c-1.974-0.236-3.99,0.052-5.781,0.769C1114.735,1013.805,1113.104,1014.892,1111.954,1016.399z"/>
	<path style="fill:#FF5B7E;" d="M1096.455,1018.144c-1.42-1.256-3.231-2.006-5.121-2.377c-1.896-0.357-3.931-0.248-5.82,0.368
		c-1.876,0.621-3.652,1.661-4.941,3.116c-0.715,0.656-1.193,1.514-1.715,2.292c-0.449,0.836-0.801,1.72-1.077,2.607
		c0.794-0.554,1.417-1.188,2.117-1.729c0.739-0.495,1.34-1.104,2.087-1.51c1.365-0.979,2.859-1.62,4.369-2.136
		c1.522-0.499,3.132-0.771,4.815-0.844C1092.854,1017.862,1094.59,1017.949,1096.455,1018.144z"/>
	<g>
		
			<ellipse transform="matrix(0.7071 -0.7071 0.7071 0.7071 -534.9061 1010.8192)" style="fill:#F4A640;" cx="952.714" cy="1151.098" rx="123.493" ry="123.493"/>
		<path style="fill:#F9CC4B;" d="M1055.725,1109.576c22.932,56.892-4.597,121.602-61.489,144.534
			c-56.892,22.932-121.602-4.598-144.534-61.489c-22.933-56.893,4.597-121.603,61.489-144.534
			C968.083,1025.154,1032.793,1052.685,1055.725,1109.576z"/>
		<g>
			<g>
				<path style="fill:#F4A640;" d="M991.588,1247.54c-53.178,21.435-113.88-4.39-135.315-57.567
					c-21.436-53.179,4.389-113.881,57.567-135.315c53.178-21.436,113.88,4.389,135.315,57.567
					C1070.59,1165.402,1044.766,1226.104,991.588,1247.54z M915.268,1058.2c-51.224,20.647-76.1,79.12-55.452,130.344
					c20.648,51.225,79.12,76.1,130.343,55.452c51.224-20.647,76.1-79.119,55.452-130.344
					C1024.964,1062.429,966.492,1037.553,915.268,1058.2z"/>
			</g>
		</g>
		<path style="opacity:0.5;fill:#FFF9FF;" d="M956.505,1114.308c-3.634-4.814-7.729-8.328-14.157-8.647
			c0.203,0.923,0.259,1.643,0.516,2.282c3.476,8.661,7.034,17.288,10.432,25.979c0.745,1.904,1.659,2.343,3.693,2.192
			c4.742-0.349,9.523-0.5,14.273-0.326c16.685,0.611,26.646,10.68,30.776,25.755c4.976,18.159-0.497,31.981-16.11,42.689
			c-2.849,1.954-3.206,3.655-1.755,6.465c1.057,2.046,1.767,4.271,2.718,6.631c-3.753,1.513-7.29,2.938-11.166,4.5
			c-1.368-3.392-2.718-6.743-4.044-10.031c-25.931,5.889-40.312-8.661-46.587-21.292c6.31-3.386,12.628-6.776,19.108-10.255
			c4.829,6.514,10.665,10.946,19.701,12.382c-1.94-4.813-3.61-8.96-5.283-13.106c-2.285-5.665-4.666-11.296-6.809-17.015
			c-0.79-2.108-1.818-2.864-4.124-2.697c-7.36,0.532-14.657,0.113-21.587-2.776c-14.036-5.854-20.654-17.396-22.098-31.61
			c-1.349-13.272,5.001-23.518,16.185-30.711c0.746-0.48,1.501-0.949,2.236-1.446c0.271-0.185,0.497-0.437,0.964-0.856
			c-1.072-2.658-2.175-5.397-3.377-8.378c3.797-1.531,7.339-2.958,11.336-4.569c0.803,1.993,1.759,3.975,2.398,6.054
			c0.676,2.201,1.859,2.514,3.987,2.038c9.493-2.123,18.549-1.171,26.764,4.461c4.341,2.977,7.797,6.78,10.639,11.732
			C968.884,1107.292,962.845,1110.715,956.505,1114.308z M963.522,1158.656c4.109,10.193,8.102,20.099,12.099,30.018
			c6.641-3.454,9.73-11.819,7.34-19.611C980.623,1161.439,973.238,1157.336,963.522,1158.656z M930.373,1110.233
			c-5.329,5.191-7.009,12.366-4.472,17.708c2.802,5.898,9.247,9.614,15.164,8.816
			C937.56,1128.063,934.046,1119.347,930.373,1110.233z"/>
	</g>
	<path style="fill:#FFC0BB;" d="M996.461,1173.656c0.27,0.69-0.331,1.411-1.057,1.258c-5.623-1.188-23.342-4.815-23.97-3.453
		c-0.746,1.619,15.007,5.246,15.197,6.891c0.19,1.646-15.087-2.281-15.606-0.421c-0.519,1.86,13.531,4.973,13.585,5.833
		c0.055,0.86-13.725-0.684-14.686,0.228c-0.962,0.911,13.547,4.349,13.91,5.374c0.363,1.024-10.439,1.982-10.464,2.918
		c-0.025,0.937-0.198,1.557,24.738,6.369l9.898,1.475l8.732-3.158l0.379-11.156c0,0-21.912-24.252-23.245-24.054
		C992.602,1161.948,992.301,1163.016,996.461,1173.656z"/>
	<path style="fill:#55769F;" d="M1148.889,1074.241c0,0,49.509,59.636,42.758,164.656c-6.751,105.02-7.876,105.77-7.876,105.77
		s-30.38-3.251-52.885-21.254c-22.504-18.004-50.01-30.256-50.01-30.256l18.253-59.261c0,0-23.754,0.75-41.008-6.502
		c-17.253-7.251-53.26-26.505-53.26-26.505s3-17.753,6.751-23.254c0,0,45.759,14.002,68.763,14.253
		C1080.375,1191.889,1107.131,1109.373,1148.889,1074.241z"/>
	<path style="fill:#07085B;" d="M1145.325,1093.369c-7.526,6.515-14.487,13.687-21.018,21.215
		c-6.538,7.529-12.576,15.49-18.17,23.75l-2.072,3.115c-0.694,1.037-1.387,2.073-2.02,3.149l-3.887,6.396
		c-0.664,1.057-1.229,2.171-1.832,3.263l-1.787,3.288l-1.784,3.288c-0.582,1.104-1.085,2.247-1.631,3.368l-3.207,6.759l-2.814,6.93
		l-1.377,3.474l-1.171,3.55c-0.787,2.363-1.554,4.731-2.305,7.1c0.925-2.313,1.835-4.626,2.725-6.944l1.344-3.473l1.548-3.389
		l3.055-6.784l3.378-6.628c0.572-1.1,1.101-2.222,1.707-3.303l1.829-3.237l1.827-3.237c0.615-1.075,1.194-2.172,1.871-3.211
		l3.905-6.326c0.633-1.065,1.328-2.092,2.023-3.118l2.073-3.086c5.53-8.226,11.472-16.18,17.773-23.846l4.799-5.69
		c1.646-1.856,3.261-3.743,4.934-5.577C1138.348,1100.454,1141.788,1096.868,1145.325,1093.369z"/>
	<path style="fill:#07085B;" d="M1166.704,1135.002c-4.077,9.173-8.43,18.208-12.923,27.163c-2.269,4.467-4.572,8.914-6.972,13.308
		c-2.379,4.405-4.833,8.769-7.404,13.06c-2.533,4.314-5.187,8.556-7.975,12.704c-1.363,2.096-2.818,4.125-4.254,6.171
		c-1.488,2.005-2.957,4.026-4.517,5.976c-3.107,3.905-6.377,7.689-9.974,11.153c-3.583,3.47-7.544,6.584-11.993,8.923
		c4.623-1.996,8.749-5.018,12.553-8.313c3.77-3.355,7.211-7.062,10.437-10.934c3.251-3.854,6.217-7.935,9.072-12.081
		c2.849-4.152,5.53-8.414,8.102-12.737c5.13-8.656,9.792-17.576,14.104-26.651
		C1159.266,1153.664,1163.23,1144.423,1166.704,1135.002z"/>
	<path style="fill:#FF5B7E;" d="M1070.684,984.472c5.792-12.601,17.061-19.713,26.794-23.665
		c11.965-4.859,25.396-5.226,37.486-0.686c34.103,12.806,27.304,50.416,25.702,57.454c-1.63-0.379-3.872-0.33-6.6,1.149
		c-1.146,0.622-2.074,1.278-2.828,1.938c-6.635-2.022-8.644-13.036-12.077-18.343c-4.659-7.201-22.731-0.343-30.523-5.453
		c-7.792-5.11-9.119-10.422-9.119-10.422c-30.04,4.762-27.786,38.572-27.786,38.572c-1.299-0.29-4.302-5.157-4.302-5.157
		S1060.032,1007.644,1070.684,984.472z"/>
	<polygon style="fill:#FFC0BB;" points="2185.62,1461.657 2121.455,1501.988 2116.664,1881.008 2129.445,1889.795 2142,1887 
		2178.403,1637.804 2208.113,1476.938 	"/>
	<path style="fill:#FFC0BB;" d="M2315.918,1833.231c-28.724-77.128-78.658-129.639-78.658-129.639s9.386-25.314,19.021-108.822
		c9.635-83.508-31.048-135.968-31.048-135.968l-71.959,21.521c0,0,36.628,218.831,42.517,232.749
		c4.611,10.899,63.167,89.257,88.347,122.729l0.035,0.592l11.354,14.508v0.001l0,0l10.755,13.744l12.713-5.754l2.25-15.87
		L2315.918,1833.231z"/>
	<path style="fill:#333333;" d="M2121.412,1496.638c0,0-16.85,128.659-14.965,224.772c0,0,65.103,10.279,112.902,6.682l2.056-54.995
		l10.28,51.911c0,0,23.643-1.027,34.436-9.766c0,0-6.583-54.931-4.625-97.141c1.957-42.21,0.193-95.335-13.705-130.568
		s-91.146,3.359-91.146,3.359L2121.412,1496.638z"/>
	<path style="fill:#333333;" d="M2208.355,1172.604c0,0,14.792,11.324,19.236,27.34c3.795,13.675,20.709,11.278,31.285,29.552
		c11.746,20.295,28.45,50.647-9.859,71.116c-23.798,12.715-61.689,22.498-70.281,13.918s-29.074-5.146-24.467-95.329
		c0,0,56.016-31.65,56.579-31.841S2208.355,1172.604,2208.355,1172.604z"/>
	<path style="fill:#E03268;" d="M2133.783,1430.813l6.854-29.476l-17.058-45.79c0,0-9.346,36.341-23.337,68.74l-51.403,6.247
		l-10.853,2.053c0,0,70.346,40.112,89.454,10.586c2.005,0.492,3.282,0.801,3.282,0.801l1.824-7.845
		c1.019-1.729,1.863-3.508,2.422-5.313L2133.783,1430.813z"/>
	<polygon style="fill:#FFC0BB;" points="2199.187,1271.082 2197.812,1292.742 2168.289,1298.882 2163.072,1298.882 
		2164.162,1272.93 2195.476,1261.872 	"/>
	<path style="fill:#FFC0BB;" d="M2152.88,1305.766c-1.337,14.553,4.683,17.264,4.683,17.264l44.587-33.089
		c-27.675,2.712-45.571,5.685-45.571,5.685S2154.281,1306.163,2152.88,1305.766z"/>
	<path style="fill:#333333;" d="M2226.852,1223.974c0,0,9.102-37.349-12.582-51.338c-21.684-13.988-44.665-12.432-60.318-4.051
		c-15.654,8.381-25.026,37.603-18.009,54.299l51.958-15.942L2226.852,1223.974z"/>
	<path style="fill:#F99893;" d="M2199.822,1265.424c0,0-0.626,6.288-1.173,14.12c-11.229,12.298-32.275,8.078-35.054,6.887
		c0.17-3.94,0-11.912,0-11.912L2199.822,1265.424z"/>
	<path style="fill:#F99893;" d="M2142.697,1229.483c1.85,5.025,0.089,10.299-3.932,11.778c-4.02,1.479-8.778-1.395-10.628-6.42
		s-0.09-10.299,3.931-11.779C2136.088,1221.583,2140.848,1224.458,2142.697,1229.483z"/>
	<path style="fill:#FFC0BB;" d="M2143.121,1258.525c-1.16-2.181-2.125-4.484-2.879-6.886c-2.153-6.457-3.119-13.268-3.489-19.19
		c-0.079-1.271-0.232-2.535-0.409-3.796c-0.713-5.094-0.509-10.46,0.87-15.939c4.437-17.628,20.228-30.48,38.391-31.201
		c24.47-0.97,43.984,18.989,43.165,42.812c2.64-1.351,5.561-1.582,8.082-0.351c4.837,2.363,6.363,9.182,3.408,15.229
		c-2.954,6.047-9.271,9.032-14.107,6.669c-0.672-0.328-1.273-0.75-1.814-1.235c-2.763,20.198-19.908,35.273-39.816,34.259
		c-9.736-0.496-18.421-4.758-24.841-11.361c-0.432-0.388-0.882-0.839-1.354-1.361
		C2146.253,1263.876,2144.544,1261.283,2143.121,1258.525z"/>
	<path style="fill:#333333;" d="M2180.375,1230.013c-0.109,2.147,1.542,3.976,3.689,4.085c2.146,0.109,3.976-1.542,4.085-3.688
		s-1.543-3.976-3.689-4.085S2180.484,1227.866,2180.375,1230.013z"/>
	<path style="fill:#333333;" d="M2145.824,1230.013c-0.109,2.147,1.542,3.976,3.689,4.085c2.146,0.109,3.975-1.542,4.084-3.688
		s-1.541-3.976-3.688-4.085C2147.763,1226.215,2145.934,1227.866,2145.824,1230.013z"/>
	<path style="fill:#333333;" d="M2177.102,1223.523c1.77-0.938,3.607-1.635,5.479-2.1c1.876-0.447,3.79-0.614,5.673-0.435
		c0.943,0.077,1.873,0.269,2.785,0.526c0.462,0.116,0.906,0.288,1.357,0.443c0.227,0.077,0.44,0.184,0.664,0.272
		c0.222,0.09,0.446,0.177,0.659,0.288c1.739,0.828,3.377,1.916,4.979,3.126c-1.189-1.617-2.708-3.015-4.464-4.083
		c-0.876-0.535-1.815-0.986-2.803-1.309c-0.983-0.331-2.008-0.561-3.047-0.65c-2.074-0.194-4.184,0.086-6.113,0.783
		c-0.969,0.338-1.893,0.785-2.767,1.3C2178.639,1222.215,2177.809,1222.806,2177.102,1223.523z"/>
	<path style="fill:#333333;" d="M2161.42,1223.523c-0.707-0.718-1.537-1.309-2.402-1.837c-0.875-0.515-1.798-0.962-2.768-1.3
		c-1.93-0.697-4.038-0.978-6.113-0.783c-1.038,0.09-2.063,0.319-3.046,0.65c-0.987,0.322-1.927,0.773-2.803,1.309
		c-1.756,1.068-3.274,2.466-4.464,4.083c1.602-1.21,3.239-2.298,4.979-3.126c0.213-0.111,0.438-0.198,0.66-0.288
		c0.223-0.089,0.437-0.195,0.663-0.272c0.452-0.155,0.896-0.327,1.356-0.443c0.913-0.258,1.843-0.449,2.786-0.526
		c1.883-0.18,3.797-0.013,5.673,0.435C2157.813,1221.889,2159.651,1222.586,2161.42,1223.523z"/>
	<path style="fill:#FFFFFF;" d="M2250.337,1354.325c-0.938-0.978-1.825-2.081-2.642-3.203c-0.811-1.134-1.578-2.302-2.247-3.528
		c-0.694-1.212-1.31-2.472-1.841-3.77c-0.563-1.289-0.973-2.635-1.398-3.991c0.182,1.405,0.45,2.814,0.895,4.174
		c0.197,0.688,0.462,1.353,0.714,2.023c0.289,0.654,0.557,1.321,0.888,1.958c0.646,1.279,1.367,2.525,2.201,3.695
		c0.662,0.948,1.368,1.85,2.159,2.708c-0.716,0.143-1.468,0.236-2.204,0.273c-1.023,0.05-2.055,0.011-3.071-0.142
		c-0.513-0.061-1.013-0.183-1.52-0.287c-0.493-0.148-1-0.268-1.481-0.462c-0.988-0.333-1.907-0.835-2.83-1.355
		c0.815,0.667,1.688,1.301,2.662,1.749c0.957,0.485,1.988,0.828,3.044,1.053s2.14,0.347,3.224,0.324
		c1.09-0.016,2.152-0.119,3.251-0.408l0.779-0.205L2250.337,1354.325z"/>
	<path style="fill:#F99893;" d="M2165.984,1228.22c-1.095,1.768-2.029,3.62-2.877,5.513c-0.849,1.894-1.59,3.836-2.17,5.856
		c-0.269,1.018-0.51,2.049-0.583,3.16c-0.009,0.281-0.007,0.568,0.028,0.87c0.017,0.15,0.059,0.314,0.092,0.469
		c0.066,0.169,0.107,0.333,0.229,0.504c0.061,0.086,0.126,0.17,0.193,0.249l0.162,0.141c0.108,0.09,0.213,0.188,0.324,0.271
		c0.228,0.156,0.45,0.321,0.685,0.453c0.923,0.566,1.899,0.969,2.886,1.316c0.991,0.332,1.994,0.616,3.021,0.792
		c-1.867-0.888-3.751-1.771-5.353-2.931c-0.203-0.142-0.38-0.305-0.564-0.458l-0.254-0.241l-0.124-0.119
		c-0.009-0.025-0.019-0.047-0.033-0.065c-0.124-0.202-0.14-0.721-0.091-1.17c0.096-0.946,0.328-1.933,0.607-2.901
		c0.534-1.951,1.213-3.887,1.865-5.833C2164.693,1232.15,2165.369,1230.204,2165.984,1228.22z"/>
	<path style="fill:#FF5B7E;" d="M2243.286,1416.103c0-0.002,0-0.005,0-0.007c5.303-29.509,7.585-61.181,7.585-61.181
		c0.302-7.3-8.354-17.379-8.735-23.097c-7.394-6.016-9.142-10.933-9.142-10.933l-12.883-26.744c0,0-8.573-4.192-8.568-4.201
		c-6.7-0.626-9.975-0.024-9.975-0.024l-22.095,16.626c-9.239,6.952-22.48,0.638-22.896-10.917l0,0
		c-0.012-0.005-0.008-0.003-0.02-0.009c-19.377,15.545-32.422,22.555-35.111,47.51c-1.877,17.419,7.594,32.175,8.643,48.763
		l-8.678,104.749c0,0,73.119,0.825,126.379-9.104C2247.791,1487.533,2242.803,1457.948,2243.286,1416.103z"/>
	<g>
		<path style="fill:#333333;" d="M2115.358,1492.018l-76.302,4.602c-4.818,0.29-10.162-2.8-11.936-6.902l-40.139-92.88
			c-1.772-4.103,0.697-7.663,5.516-7.954l76.301-4.601c4.819-0.291,10.163,2.799,11.936,6.901l40.139,92.881
			C2122.646,1488.166,2120.177,1491.728,2115.358,1492.018z"/>
		<path style="fill:#C8EEF1;" d="M2046.207,1390.314l-25.975,1.565c-2.082,0.126-4.392-1.209-5.157-2.981l-0.72-1.665
			c-0.766-1.772,0.301-3.312,2.384-3.437l25.975-1.566c2.082-0.126,4.392,1.21,5.157,2.982l0.719,1.664
			C2049.356,1388.649,2048.289,1390.188,2046.207,1390.314z"/>
	</g>
	<path style="fill:#FFC0BB;" d="M2017.81,1468.287l-0.325,0.143c-1.923,0.848-4.176,0.109-5.225-1.711l-11.958-20.765
		c-0.601-1-0.571-2.256,0.078-3.227c2.024-3.021,6.384-9.234,7.873-9.007c1.965,0.301-4.029,10.625-3.213,10.834
		c0.817,0.208,9.3-6.67,10.019-5.547c0.644,1.004-6.822,9.004-6.479,9.626c0.343,0.623,8.966-4.386,9.897-3.488
		c0.842,0.811-7.284,7.276-7.17,7.729L2017.81,1468.287z"/>
	<path style="fill:#FFC0BB;" d="M2010.72,1453.116c0,0,8.632-2.624,9.394-1.65s-9.437,6.474-9.394,6.22
		C2010.762,1457.432,2010.72,1453.116,2010.72,1453.116z"/>
	<path style="fill:#333333;" d="M2224.023,1218.824l-0.976-0.115l-0.653-8.104l-3.625-7.493c0,0-14.193-20.15-14.693-20.65
		c-0.5-0.499-11.324-6.994-11.99-7.327s-15.82,2.165-15.82,2.165s-26.658-5.737-22.148,9.159s23.98,22.647,24.979,21.981
		c-3.164-3.33-3.497-12.822-3.497-12.822c14.987,17.319,43.17,28.707,43.17,28.707s2.954-2.254,8.082-0.351L2224.023,1218.824z"/>
	<path style="fill:#FFFFFF;" d="M2157.346,1253.946c1.035,4.599,5.494,8.014,10.775,7.923s9.612-3.656,10.48-8.288
		L2157.346,1253.946z"/>
	<path style="fill:#FFC0BB;" d="M2256.552,1362.217c0,0-10.838-59.565-44.11-71.976c-9.015-3.362-18.619,3.255-18.67,12.876
		c-0.072,13.7,42.076,115.19,37.748,120.396c-5.897,7.094-114.045,32.642-117.662,33.494l-12.881-1.234
		c-10.607-0.744-21.862-2.181-22.482-1.393c-0.869,1.105-0.307,2.179,10.986,7.502c0.732,0.346,0.796,1.369,0.104,1.794
		c-5.365,3.283-22.18,13.724-21.658,15.277c0.622,1.848,15.874-7.116,17.26-5.952c1.385,1.164-13.713,9.53-12.73,11.397
		c0.983,1.867,14.494-6.224,15.184-5.581c0.689,0.642-11.43,9.775-11.51,11.222c-0.082,1.447,14.038-6.731,15.096-6.19
		s-6.816,9.423-6.134,10.186c0.683,0.762-1.948,1.904,21.496-13.02c0,0,5.777-3.893,7.898-5.522c0,0,134.311-18.958,142.658-29.584
		C2272.631,1426.195,2256.552,1362.217,2256.552,1362.217z"/>
	<path style="fill:#E03268;" d="M2256.552,1362.217c0,0-10.838-59.565-44.11-71.976c-9.015-3.362-18.619,3.255-18.669,12.876
		c-0.073,13.7,42.075,115.19,37.747,120.396c-5.897,7.094-114.045,32.642-117.662,33.494l-0.242-0.023
		c1.254,5.904,2.846,12.192,4.81,17.942c22.181-3.219,131.224-19.476,138.72-29.018
		C2272.631,1426.195,2256.552,1362.217,2256.552,1362.217z"/>
	<path style="fill:#FFFFFF;" d="M1992.154,288.305c-5.199-22.628-25.448-39.511-49.654-39.511c-4.443,0-8.754,0.572-12.863,1.641
		c-11.947-25.548-37.874-43.251-67.939-43.251c-7.773,0-15.271,1.184-22.32,3.379c-16.186-26.802-45.592-44.723-79.185-44.723
		c-39.968,0-74.01,25.367-86.908,60.878c-9.131-5.09-19.642-8.002-30.838-8.002c-35.032,0-63.433,28.4-63.433,63.433
		c0,2.077,0.107,4.129,0.303,6.155H1992.154z"/>
	<path style="fill:#FFFFFF;" d="M1226.403,493.068c2.75-11.968,13.459-20.897,26.262-20.897c2.351,0,4.63,0.303,6.803,0.868
		c6.318-13.512,20.031-22.874,35.933-22.874c4.111,0,8.076,0.625,11.805,1.787c8.56-14.175,24.112-23.654,41.879-23.654
		c21.139,0,39.143,13.416,45.965,32.198c4.829-2.692,10.388-4.232,16.31-4.232c18.529,0,33.549,15.021,33.549,33.549
		c0,1.099-0.057,2.184-0.16,3.255H1226.403z"/>
	<path style="fill:#FFFFFF;" d="M1909.479,467.836c2.75-11.968,13.459-20.897,26.262-20.897c2.35,0,4.63,0.302,6.803,0.868
		c6.318-13.512,20.031-22.875,35.934-22.875c4.11,0,8.075,0.626,11.804,1.788c8.561-14.175,24.113-23.654,41.88-23.654
		c21.139,0,39.143,13.417,45.965,32.198c4.829-2.692,10.389-4.232,16.31-4.232c18.528,0,33.549,15.02,33.549,33.549
		c0,1.099-0.056,2.184-0.159,3.255H1909.479z"/>
	<path style="fill:#FFFFFF;" d="M2216.625,803.114c3.331-14.5,16.307-25.318,31.818-25.318c2.848,0,5.609,0.366,8.242,1.051
		c7.655-16.371,24.27-27.715,43.535-27.715c4.98,0,9.785,0.758,14.303,2.165c10.371-17.174,29.214-28.658,50.74-28.658
		c25.611,0,47.424,16.254,55.689,39.01c5.851-3.262,12.586-5.128,19.76-5.128c22.449,0,40.647,18.198,40.647,40.648
		c0,1.331-0.068,2.646-0.193,3.944H2216.625z"/>
	<path style="fill:#FFC0BB;" d="M2092.609,1889.877l26.529-16.367l22.912,13.842l-8.005,5.697l-27.784,3.919
		c0,0-10.845-1.389-11.322-1.71C2094.463,1894.937,2092.609,1889.877,2092.609,1889.877z"/>
	<path style="fill:#07085B;" d="M2092.609,1889.877l-6.723,4.324c-3.115,1.966-1.736,6.781,1.947,6.799l50.9,0.24
		c1.795,0.008,3.257-1.44,3.266-3.235l0.051-10.653C2108.102,1897.984,2096.408,1894.646,2092.609,1889.877z"/>
	<path style="fill:#FFC0BB;" d="M2299.31,1887.402l-0.719-32.584l22.647-11.801l1.064,9.767l-10.141,26.163
		c0,0-6.505,8.788-7.019,9.047C2304.631,1888.254,2299.31,1887.402,2299.31,1887.402z"/>
	<path style="fill:#07085B;" d="M2299.31,1887.402l0.493,7.979c0.195,3.678,5.071,4.824,6.885,1.618l25.053-44.308
		c0.884-1.563,0.333-3.546-1.229-4.43l-9.272-5.244C2313.947,1877.838,2305.326,1886.414,2299.31,1887.402z"/>
	<g>
		<path style="fill:#FFFFFF;" d="M1610.295,1091.838l-45.473-17.572c-1.135-0.438-1.699-1.715-1.26-2.85l0.34-0.88
			c0.438-1.135,1.714-1.699,2.849-1.261l45.473,17.572c1.135,0.438,1.699,1.714,1.261,2.849l-0.34,0.88
			C1612.705,1091.712,1611.43,1092.276,1610.295,1091.838z"/>
		<path style="fill:#333333;" d="M1572.824,1054.199l-7.006,13.243c-0.863,1.633-0.507,3.557,0.75,4.042l43.692,16.885
			c1.136,0.438,2.53,0.164,3.642-0.938c1.139-1.129,2.056-3.139,1.168-6.659c-1.774-7.042-14.105-13.357-18.568-20.507
			l-20.352-7.865C1575.014,1051.961,1573.605,1052.723,1572.824,1054.199z"/>
		<g>
			<path style="fill:#FFFFFF;" d="M1590.299,1067.13L1590.299,1067.13c-0.241-0.316-0.151-0.893,0.188-1.227
				c1.593-1.57,6.063-5.163,11.151-2.104c0.294,0.177,0.346,0.678,0.125,1.089l-0.007,0.014c-0.214,0.397-0.604,0.562-0.888,0.392
				c-4.567-2.724-8.424,0.476-9.734,1.801C1590.855,1067.377,1590.499,1067.393,1590.299,1067.13z"/>
		</g>
		<g>
			<path style="fill:#FFFFFF;" d="M1594.146,1070.67L1594.146,1070.67c-0.24-0.316-0.15-0.893,0.188-1.228
				c1.593-1.569,6.063-5.162,11.152-2.103c0.294,0.176,0.346,0.678,0.125,1.089l-0.007,0.013c-0.214,0.398-0.604,0.563-0.889,0.393
				c-4.567-2.725-8.424,0.475-9.733,1.801C1594.703,1070.917,1594.346,1070.933,1594.146,1070.67z"/>
		</g>
		<g>
			<path style="fill:#FFFFFF;" d="M1597.723,1073.968L1597.723,1073.968c-0.241-0.316-0.151-0.894,0.188-1.228
				c1.592-1.569,6.063-5.162,11.151-2.104c0.294,0.177,0.346,0.678,0.125,1.09l-0.007,0.013c-0.214,0.397-0.604,0.562-0.889,0.392
				c-4.567-2.724-8.424,0.476-9.733,1.801C1598.279,1074.215,1597.922,1074.23,1597.723,1073.968z"/>
		</g>
		<path style="opacity:0.3;fill:#E87B50;" d="M1578.23,1075.991c0.891-12.541-4.565-16.073-7.906-17.066l-4.506,8.518
			c-0.863,1.633-0.507,3.557,0.75,4.042L1578.23,1075.991z"/>
	</g>
	<g>
		<path style="fill:#FFFFFF;" d="M1563.983,1091.959l-46.587-14.358c-1.163-0.358-1.814-1.592-1.456-2.754l0.277-0.902
			c0.358-1.163,1.592-1.814,2.755-1.456l46.587,14.358c1.162,0.358,1.814,1.592,1.456,2.754l-0.278,0.902
			C1566.379,1091.666,1565.146,1092.317,1563.983,1091.959z"/>
		<path style="fill:#333333;" d="M1523.979,1057.025l-6.065,13.699c-0.748,1.689-0.258,3.584,1.03,3.98l44.764,13.797
			c1.162,0.358,2.535-0.014,3.566-1.189c1.058-1.206,1.832-3.274,0.702-6.725c-2.262-6.9-15.004-12.341-19.953-19.162l-20.852-6.427
			C1526.007,1054.641,1524.655,1055.498,1523.979,1057.025z"/>
		<g>
			<path style="fill:#FFFFFF;" d="M1542.313,1068.706L1542.313,1068.706c-0.262-0.299-0.212-0.88,0.103-1.237
				c1.479-1.677,5.688-5.572,10.978-2.876c0.306,0.156,0.393,0.652,0.201,1.078l-0.006,0.014c-0.186,0.411-0.563,0.603-0.859,0.453
				c-4.745-2.399-8.369,1.062-9.584,2.475C1542.886,1068.914,1542.531,1068.954,1542.313,1068.706z"/>
		</g>
		<g>
			<path style="fill:#FFFFFF;" d="M1546.397,1071.969L1546.397,1071.969c-0.263-0.299-0.212-0.88,0.103-1.236
				c1.479-1.678,5.688-5.573,10.978-2.876c0.306,0.155,0.393,0.651,0.201,1.077l-0.006,0.014c-0.186,0.412-0.563,0.603-0.858,0.453
				c-4.746-2.398-8.371,1.062-9.585,2.475C1546.971,1072.177,1546.615,1072.218,1546.397,1071.969z"/>
		</g>
		<g>
			<path style="fill:#FFFFFF;" d="M1550.195,1075.01L1550.195,1075.01c-0.263-0.299-0.213-0.881,0.103-1.237
				c1.479-1.677,5.688-5.573,10.978-2.876c0.306,0.155,0.393,0.652,0.201,1.077l-0.006,0.014c-0.186,0.412-0.563,0.603-0.859,0.453
				c-4.746-2.398-8.37,1.062-9.584,2.476C1550.768,1075.217,1550.413,1075.258,1550.195,1075.01z"/>
		</g>
		<path style="opacity:0.3;fill:#E87B50;" d="M1530.892,1078.387c0.015-12.572-5.675-15.715-9.077-16.473l-3.9,8.811
			c-0.748,1.689-0.258,3.584,1.03,3.98L1530.892,1078.387z"/>
	</g>
</g>
</svg>
