<?xml version="1.0" encoding="UTF-8"?>
<!DOCTYPE svg PUBLIC "-//W3C//DTD SVG 1.1//EN" "http://www.w3.org/Graphics/SVG/1.1/DTD/svg11.dtd">
<!-- Creator: CorelDRAW (Evaluation Version) -->
<svg xmlns="http://www.w3.org/2000/svg" xml:space="preserve" width="300px" height="323px" version="1.1" style="shape-rendering:geometricPrecision; text-rendering:geometricPrecision; image-rendering:optimizeQuality; fill-rule:evenodd; clip-rule:evenodd"
viewBox="0 0 284.15 305.66"
 xmlns:xlink="http://www.w3.org/1999/xlink"
 xmlns:xodm="http://www.corel.com/coreldraw/odm/2003">
 <defs>
  <style type="text/css">
   <![CDATA[
    .fil14 {fill:#15224F}
    .fil8 {fill:#162051}
    .fil11 {fill:#1E336C}
    .fil1 {fill:#25387C}
    .fil0 {fill:#253A7B}
    .fil13 {fill:#274E91}
    .fil7 {fill:#284B8D}
    .fil9 {fill:#284E8F}
    .fil3 {fill:#29488B}
    .fil2 {fill:#386AB3}
    .fil15 {fill:#396DB6}
    .fil5 {fill:#396EB4}
    .fil12 {fill:#5190C3}
    .fil10 {fill:#5291C4}
    .fil4 {fill:#68BAE9}
    .fil6 {fill:#68BBE7}
   ]]>
  </style>
 </defs>
 <g id="Layer_x0020_1">
  <metadata id="CorelCorpID_0Corel-Layer"/>
  <g id="_547260432">
   <g>
    <path class="fil0" d="M196 91.02c-0.72,1.79 1.21,3.34 3.51,7.07 9.9,16.04 13.09,38.81 9.42,58 -0.2,1.03 -1.02,3.35 -0.44,4.09 1.48,-1.09 7.8,-13.02 9.37,-15.74 1.75,-3.03 7.94,-15.17 9.46,-16.41 0.1,-1.67 4.54,-9.6 5.66,-11.79 1.8,-3.53 3.89,-8.4 5.9,-11.79 0.88,-1.16 15.92,-31.94 17.1,-35.31 2.28,-6.47 1.95,-6.66 14.43,0.59l8.31 4.4c2.18,1.13 1.04,0.65 3.24,0.47 0.75,-3.22 -0.24,-4.96 -1.15,-9.3l-4.14 -18.23c-1.06,-4.51 -9.67,-45.24 -10.38,-46.71 -2.85,-0.67 -2.65,-0.4 -4.85,0.74l-13.3 6.47c-3.03,1.53 -5.79,2.71 -8.83,4.23 -3.04,1.52 -5.65,2.89 -8.7,4.36 -1.61,0.76 -2.78,1.18 -4.36,1.98l-26.87 12.68c-1.89,0.87 -2.85,1.2 -2.85,3.86l18.77 8.83c2.33,1.12 3.58,0.62 1.76,4.23l-4.37 8.7c-3.55,7.12 -8.2,15.99 -11.32,23.01 -0.74,1.66 -5.45,9.95 -5.37,11.57z"/>
    <path class="fil1" d="M59.77 115.27c-0.44,-0.54 0.28,-0.64 -0.71,-0.51 1.79,-0.77 3.39,-2.23 5.05,-3.22 14.24,-8.48 25.17,-14.3 43.19,-16.55 34.91,-4.35 53.61,9.8 57.02,10.24 -0.78,-2.14 -7.07,-9.02 -8.82,-10.88 -8.57,-9.1 -19,-16.91 -30.06,-23.3 -1.28,-0.74 -2.2,-0.8 -3.16,-2.04 -1.01,0.05 -2.21,-0.85 -3.13,-1.36 -0.64,-0.35 -1.01,-0.51 -1.74,-0.88 -1.12,-0.58 -0.73,-0.18 -1.53,-1.12 -1.35,-0.12 -7.19,-3.02 -8.95,-3.68 -19.34,-7.34 -44.42,-12.13 -64.63,-5.42 -19.81,6.58 -24.83,25.68 -14.52,39.43 2.73,3.65 5.88,6.84 9.49,9.54 3.72,2.78 7.92,4.88 12.36,6.66 2.44,0.98 7.34,2.89 10.14,3.09z"/>
    <path class="fil2" d="M237.09 186.28c0.46,0.55 0.76,-0.51 -0.11,1.11l-2.83 3.96c-7.09,10.14 -22.58,22.48 -34.33,27.9 -18.37,8.46 -37.55,11.25 -60.37,6.32 0.62,1 0.23,0.53 1.36,1.38 13.18,9.91 33.54,19.09 49.75,20.9 13.44,3.66 33.51,2.82 46.96,0.56 17.05,-2.86 43.07,-12.03 46.21,-30.27 1.46,-8.51 -1.04,-15.22 -4.86,-19.93 -2.23,-2.75 -3.69,-4.16 -6.61,-6.09 -9.69,-6.41 -18.51,-7.46 -31.38,-7.46 -0.78,0.33 -1.15,0.18 -2.05,0.45 -0.48,0.14 -0.75,0.28 -1.08,0.5 -0.59,0.41 -0.27,0.19 -0.66,0.67z"/>
    <path class="fil3" d="M56.99 194.67c-1.03,1.66 -2.69,8.06 -3.23,9.9 -1.03,3.54 -2.02,7.22 -2.64,10.79 -0.86,4.99 -1.99,12.92 -1.96,18.19 0.02,2.62 -0.45,3.65 -0.4,6.34l0.98 12.09c2.1,15.13 6.86,38.13 25.2,41.59 18.55,3.49 31.63,-14.83 35.01,-31.33 0.61,-2.98 1.16,-10.14 1.71,-11.54l-1.11 -1.9 -0.27 0.81c-4.69,-5.45 -7.55,-5.59 -15.7,-17.47 -4.38,-6.38 -8.23,-13.82 -11.01,-21.79 -5.82,-16.67 -6.43,-40.95 -0.58,-57.25 -1.76,0.81 -3.15,2.78 -4.41,4.29 -1.23,1.48 -2.8,3.12 -3.96,4.61 -2.49,3.19 -4.72,6.74 -6.72,10.04 -5.73,9.43 -9.62,20.45 -10.91,22.63z"/>
    <path class="fil4" d="M100.42 223.9c-0.05,2.3 3.34,10.35 4.7,12.97 1.07,2.05 5.42,10.27 5.43,11.93l1.11 1.9 5.14 8.46c2.95,4.98 6.62,9.38 10.22,13.66l8.22 8.94c1.26,1.27 2.24,1.87 3.54,3.18 6.29,6.28 21.35,15.54 29.34,18.41 30.01,10.78 48.58,-17.99 28.19,-47.96 -1.14,-1.67 -3.28,-4.96 -4.63,-5.77 -5.39,0.23 -10.35,0.99 -16.05,0.77 -14.91,-0.57 -27.1,-3.36 -40.28,-9.39 -9.55,-4.36 -22.37,-13.22 -28.88,-20.78 -2.08,-2.42 -6.33,-8.46 -7.71,-8.69 -0.91,4.52 1.87,8.77 1.66,12.37z"/>
    <path class="fil5" d="M115.88 65.65c0.8,0.94 0.41,0.54 1.53,1.12 0.73,0.37 1.1,0.53 1.74,0.88 0.92,0.51 2.12,1.41 3.13,1.36 3.65,1.29 9.1,1.65 13.49,2.93 4.58,1.33 8.08,2.57 12.21,4.21 7.76,3.1 14.84,7.4 20.77,12.05 6.03,4.74 11.18,10.24 15.9,16.56 3.27,4.37 8.38,12.55 10.51,18.19 0.69,1.83 0.65,2.16 1.98,1.82 -0.02,-5.75 0.83,-11.36 0.38,-17.33 -0.34,-4.39 -2.43,-12.4 -2.19,-16.05 -1.04,-0.89 -0.71,-1.64 -1.49,-4.77 -1.29,-5.15 -2.65,-10.29 -4.62,-15.16 -4.19,-10.4 -7.08,-16.39 -13.59,-25.59 -1.66,-2.34 -3.75,-5.18 -5.69,-7.36 -4.66,-5.23 -7.82,-8.45 -13.42,-13.07 -8.19,-6.75 -19.13,-9.91 -29.61,-5.53 -3,1.25 -7.02,4.43 -9.06,6.99 -2.48,3.11 -1.67,1.54 -3.91,6.16 -3.24,6.68 -3.01,15.72 -1.36,22.52l3.3 10.07z"/>
    <path class="fil6" d="M238.88 104.45c-2.01,3.39 -4.1,8.26 -5.9,11.79 -1.12,2.19 -5.56,10.12 -5.66,11.79 1.26,13.61 -4.07,34.91 -10.41,46.8 -6.4,11.99 -12.06,19.23 -21.72,27.89 -1.67,1.5 -3.4,2.4 -3.36,3.81l4.42 -0.37c1.65,0.13 19.3,-7.18 21.95,-8.41 3.23,-1.51 7.04,-3.56 9.86,-5.43 2.13,-1.42 6.91,-5.36 9.03,-6.04 0.39,-0.48 0.07,-0.26 0.66,-0.67 0.33,-0.22 0.6,-0.36 1.08,-0.5 0.9,-0.27 1.27,-0.12 2.05,-0.45l-1.45 0c0.61,-0.83 1.93,-1.59 2.87,-2.35 1.11,-0.91 1.99,-1.7 3.05,-2.55 2.06,-1.67 3.86,-3.18 5.74,-5.08 0.49,-0.5 0.79,-0.85 1.31,-1.3l2.65 -2.57c6,-6.65 4.97,-4.8 11.35,-13.27 2.62,-3.48 6.28,-9.45 8.35,-13.29 4.12,-7.65 7.41,-15.88 5.9,-25.43 -0.54,-3.37 -1.46,-5.49 -2.91,-7.91 -11.81,-19.78 -36.45,-6.92 -38.86,-6.46z"/>
    <path class="fil7" d="M139.45 225.57c22.82,4.93 42,2.14 60.37,-6.32 11.75,-5.42 27.24,-17.76 34.33,-27.9l2.83 -3.96c0.87,-1.62 0.57,-0.56 0.11,-1.11 -2.12,0.68 -6.9,4.62 -9.03,6.04 -2.82,1.87 -6.63,3.92 -9.86,5.43 -2.65,1.23 -20.3,8.54 -21.95,8.41 -1.11,1.06 -5.21,1.82 -6.91,2.19 -2.42,0.52 -5.12,0.91 -7.74,1.08 -12.96,0.86 -19.44,0.26 -31.63,-2.9 -2.14,-0.55 -11.08,-3.61 -11.96,-5.08 -6.59,-1.43 -18.34,-7.65 -23.25,-13.75 -2.04,-2.53 -3.37,-4.38 -5.16,-7.37 -1.87,3.54 9.63,23.21 11.57,25.98 2.97,4.24 14.57,17.83 18.28,19.26z"/>
    <path class="fil8" d="M59.77 115.27c0.99,0.71 1.25,0.44 2.07,1.43 2.52,-0.2 5.42,-1.47 7.82,-2.22 2.64,-0.83 5.17,-1.55 7.82,-2.2 3.76,-0.92 13.76,-3.71 17.09,-3.26 0.4,-0.25 -0.2,-0.08 0.89,-0.38 1.94,-0.52 6.93,-0.45 8.91,-0.43 17.56,0.21 37.99,5.57 51.29,16.96 1.01,0.86 1.75,1.72 2.59,2.41 5.52,3.35 10,6.08 14.12,10.73 2.88,3.26 5.36,7.52 7.1,11.55l1.76 4.47c1.39,-2.25 -0.52,-12.06 -1,-14.84 -0.74,-4.31 -2.36,-9.32 -3.81,-13.03 -2.2,-5.62 -8.78,-18.67 -12.1,-21.23 -3.41,-0.44 -22.11,-14.59 -57.02,-10.24 -18.02,2.25 -28.95,8.07 -43.19,16.55 -1.66,0.99 -3.26,2.45 -5.05,3.22 0.99,-0.13 0.27,-0.03 0.71,0.51z"/>
    <path class="fil9" d="M54.38 195.58c0.89,-0.61 1.69,-1.35 2.61,-1.59l0 0.68c1.29,-2.18 5.18,-13.2 10.91,-22.63 2,-3.3 4.23,-6.85 6.72,-10.04 1.16,-1.49 2.73,-3.13 3.96,-4.61 1.26,-1.51 2.65,-3.48 4.41,-4.29 2.31,-4.39 14.97,-13.65 20.45,-16.76 7.57,-4.3 16.69,-8.09 25.43,-9.35 2.36,-0.34 0.41,-0.27 1.78,0.11 0.06,0.01 0.18,0.06 0.27,0.11 1.12,-0.1 5.1,-2.08 11.45,-1.98 9.23,0.14 11.9,1.91 15.88,2.35 -0.84,-0.69 -1.58,-1.55 -2.59,-2.41 -13.3,-11.39 -33.73,-16.75 -51.29,-16.96 -1.98,-0.02 -6.97,-0.09 -8.91,0.43 -1.09,0.3 -0.49,0.13 -0.89,0.38 5.32,0.33 11.08,-1.04 16.82,0.19 -0.54,0.9 -8.83,5.35 -10.92,6.62 -10.43,6.35 -20.61,15.85 -28,26.1 -5.15,7.16 -8.94,14.4 -12.41,23.81 -2.76,7.49 -3.97,13.71 -5.3,21.52l-0.38 8.32z"/>
    <path class="fil10" d="M100.42 223.9c0.21,-3.6 -2.57,-7.85 -1.66,-12.37 1.38,0.23 5.63,6.27 7.71,8.69 6.51,7.56 19.33,16.42 28.88,20.78 13.18,6.03 25.37,8.82 40.28,9.39 5.7,0.22 10.66,-0.54 16.05,-0.77 -0.61,-0.97 -0.59,-0.63 -1.12,-1.77 -16.21,-1.81 -36.57,-10.99 -49.75,-20.9 -1.13,-0.85 -0.74,-0.38 -1.36,-1.38 -3.71,-1.43 -15.31,-15.02 -18.28,-19.26 -1.94,-2.77 -13.44,-22.44 -11.57,-25.98 -1.05,-3.18 -1.58,-0.89 -3.27,-9.19 -0.38,-1.86 -0.56,-3.7 -0.82,-5.53 -0.23,-1.63 -0.73,-4.29 -0.76,-5.81 -2.28,2.97 -4.46,9.39 -5.7,13.57 -3.61,12.13 -3.66,31.33 -1.1,43.54l2.47 6.99z"/>
    <path class="fil11" d="M82.99 153.1c-5.85,16.3 -5.24,40.58 0.58,57.25 2.78,7.97 6.63,15.41 11.01,21.79 8.15,11.88 11.01,12.02 15.7,17.47l0.27 -0.81c-0.01,-1.66 -4.36,-9.88 -5.43,-11.93 -1.36,-2.62 -4.75,-10.67 -4.7,-12.97l-2.47 -6.99c-2.56,-12.21 -2.51,-31.41 1.1,-43.54 1.24,-4.18 3.42,-10.6 5.7,-13.57 0.33,-0.84 0.49,-1.75 0.79,-2.71 1.97,-6.25 3.85,-12.55 8.26,-17.48 2.86,-3.19 3.79,-4.47 7.51,-7.03 5.63,-3.88 7.28,-3.9 9.61,-5.37 -0.09,-0.05 -0.21,-0.1 -0.27,-0.11 -1.37,-0.38 0.58,-0.45 -1.78,-0.11 -8.74,1.26 -17.86,5.05 -25.43,9.35 -5.48,3.11 -18.14,12.37 -20.45,16.76z"/>
    <path class="fil12" d="M208.49 160.18c-1.08,2.86 -6.69,9.56 -8.62,11.78 -5.77,6.66 -14.64,13.79 -22.27,18.04 -2.21,1.23 -4.35,2.36 -6.63,3.44 -1.49,0.7 -5.71,3.07 -7.45,2.04 -0.7,0.24 -4.07,2.69 -11.09,4.41 -4.33,1.06 -9.13,1.56 -14.42,1.56 0.88,1.47 9.82,4.53 11.96,5.08 12.19,3.16 18.67,3.76 31.63,2.9 2.62,-0.17 5.32,-0.56 7.74,-1.08 1.7,-0.37 5.8,-1.13 6.91,-2.19l-4.42 0.37c-0.04,-1.41 1.69,-2.31 3.36,-3.81 9.66,-8.66 15.32,-15.9 21.72,-27.89 6.34,-11.89 11.67,-33.19 10.41,-46.8 -1.52,1.24 -7.71,13.38 -9.46,16.41 -1.57,2.72 -7.89,14.65 -9.37,15.74z"/>
    <path class="fil13" d="M164.32 105.23c3.32,2.56 9.9,15.61 12.1,21.23 1.45,3.71 3.07,8.72 3.81,13.03 0.48,2.78 2.39,12.59 1,14.84 0.12,1.65 0.59,4.08 0.73,5.73 0.15,1.85 0.01,4.27 0.01,6.18 3.54,-4.45 7.28,-12.48 9.64,-18.55 2.83,-7.26 4.06,-14.87 5.53,-22.92 -1.33,0.34 -1.29,0.01 -1.98,-1.82 -2.13,-5.64 -7.24,-13.82 -10.51,-18.19 -4.72,-6.32 -9.87,-11.82 -15.9,-16.56 -5.93,-4.65 -13.01,-8.95 -20.77,-12.05 -4.13,-1.64 -7.63,-2.88 -12.21,-4.21 -4.39,-1.28 -9.84,-1.64 -13.49,-2.93 0.96,1.24 1.88,1.3 3.16,2.04 11.06,6.39 21.49,14.2 30.06,23.3 1.75,1.86 8.04,8.74 8.82,10.88z"/>
    <path class="fil14" d="M197.14 124.77c-1.47,8.05 -2.7,15.66 -5.53,22.92 -2.36,6.07 -6.1,14.1 -9.64,18.55 -0.95,1.4 -1.95,6.03 -2.93,8.77 -1.1,3.04 -2.33,5.4 -3.9,8.04 -0.81,1.38 -1.48,2.37 -2.43,3.54 -4.2,5.14 -5.86,5.48 -9.19,8.89 1.74,1.03 5.96,-1.34 7.45,-2.04 2.28,-1.08 4.42,-2.21 6.63,-3.44 7.63,-4.25 16.5,-11.38 22.27,-18.04 1.93,-2.22 7.54,-8.92 8.62,-11.78 -0.58,-0.74 0.24,-3.06 0.44,-4.09 3.67,-19.19 0.48,-41.96 -9.42,-58 -2.3,-3.73 -4.23,-5.28 -3.51,-7.07l-0.67 0.37c-0.24,3.65 1.85,11.66 2.19,16.05 0.45,5.97 -0.4,11.58 -0.38,17.33z"/>
   </g>
   <path class="fil15" d="M61.84 116.7c2.52,-0.2 5.42,-1.47 7.82,-2.22 2.64,-0.83 5.17,-1.55 7.82,-2.2 9.56,-2.61 24.11,-6.06 33.91,-3.07 -0.54,0.9 -8.83,5.35 -10.92,6.62 -10.43,6.35 -20.61,15.85 -28,26.1 -5.15,7.16 -8.94,14.4 -12.41,23.81 -2.76,7.49 -3.97,13.71 -5.3,21.52l-0.38 8.32c-0.77,0.86 -7.13,4.41 -8.58,5.13 -2.99,1.49 -6.02,2.8 -9.62,3.81 -26.97,7.58 -44.56,-14.82 -32.09,-37.69 5.67,-10.41 8.97,-14.9 17.36,-23.3 3.37,-3.37 6.86,-6.58 10.7,-9.45 1.43,-1.06 2.44,-1.82 3.84,-2.88 2.58,-1.94 5.26,-3.61 8.1,-5.32l17.33 -8.82c0.05,-0.03 0.18,-0.06 0.21,-0.18 0.03,-0.12 0.14,-0.12 0.21,-0.18z"/>
  </g>
 </g>
</svg>
