<?xml version="1.0" encoding="UTF-8"?>
<!DOCTYPE svg PUBLIC "-//W3C//DTD SVG 1.1//EN" "http://www.w3.org/Graphics/SVG/1.1/DTD/svg11.dtd">
<!-- Creator: CorelDRAW (Evaluation Version) -->
<svg xmlns="http://www.w3.org/2000/svg" xml:space="preserve" width="8.72992in" height="5.79123in" version="1.1" style="shape-rendering:geometricPrecision; text-rendering:geometricPrecision; image-rendering:optimizeQuality; fill-rule:evenodd; clip-rule:evenodd"
viewBox="0 0 8729.92 5791.23"
 xmlns:xlink="http://www.w3.org/1999/xlink"
 xmlns:xodm="http://www.corel.com/coreldraw/odm/2003">
 <defs>
  <style type="text/css">
   <![CDATA[
    .str0 {stroke:#8E93F9;stroke-width:13.89;stroke-miterlimit:10;stroke-opacity:0.301961}
    .str4 {stroke:black;stroke-width:13.89;stroke-miterlimit:2.61313;stroke-opacity:0.478431}
    .str2 {stroke:black;stroke-width:12.88;stroke-miterlimit:10}
    .str1 {stroke:#8E93F9;stroke-width:13.89;stroke-miterlimit:10}
    .str7 {stroke:#8E93F9;stroke-width:6.94;stroke-miterlimit:2.61313}
    .str13 {stroke:black;stroke-width:13.89;stroke-linejoin:round;stroke-miterlimit:2.61313}
    .str15 {stroke:#0F0E13;stroke-width:13.89;stroke-linejoin:round;stroke-miterlimit:10}
    .str11 {stroke:#0F0E13;stroke-width:6.94;stroke-linejoin:round;stroke-miterlimit:10}
    .str9 {stroke:#8E93F9;stroke-width:27.78;stroke-linecap:round;stroke-miterlimit:10}
    .str6 {stroke:black;stroke-width:13.89;stroke-linecap:round;stroke-miterlimit:10}
    .str12 {stroke:white;stroke-width:13.89;stroke-linecap:round;stroke-miterlimit:10}
    .str10 {stroke:black;stroke-width:5.56;stroke-linecap:round;stroke-linejoin:round;stroke-miterlimit:10}
    .str14 {stroke:black;stroke-width:13.89;stroke-linecap:round;stroke-linejoin:round;stroke-miterlimit:10}
    .str3 {stroke:white;stroke-width:13.89;stroke-linecap:round;stroke-linejoin:round;stroke-miterlimit:10}
    .str5 {stroke:#0F0E13;stroke-width:6.94;stroke-linecap:round;stroke-linejoin:round;stroke-miterlimit:10}
    .str8 {stroke:#8E93F9;stroke-width:6.94;stroke-linecap:round;stroke-linejoin:round;stroke-miterlimit:10}
    .fil2 {fill:none;fill-rule:nonzero}
    .fil0 {fill:none;fill-rule:nonzero}
    .fil6 {fill:black;fill-rule:nonzero}
    .fil12 {fill:#0F0E13;fill-rule:nonzero}
    .fil20 {fill:#18181F;fill-rule:nonzero}
    .fil17 {fill:#181D4B;fill-rule:nonzero}
    .fil18 {fill:#1A1A1A;fill-rule:nonzero}
    .fil13 {fill:#333333;fill-rule:nonzero}
    .fil15 {fill:#49183A;fill-rule:nonzero}
    .fil10 {fill:#492F89;fill-rule:nonzero}
    .fil5 {fill:#4D89F4;fill-rule:nonzero}
    .fil4 {fill:#5DBCC3;fill-rule:nonzero}
    .fil16 {fill:#663333;fill-rule:nonzero}
    .fil1 {fill:#8E93F9;fill-rule:nonzero}
    .fil9 {fill:#D87969;fill-rule:nonzero}
    .fil14 {fill:#DD3D60;fill-rule:nonzero}
    .fil11 {fill:#E8A134;fill-rule:nonzero}
    .fil8 {fill:white;fill-rule:nonzero}
    .fil19 {fill:#5DBCC3;fill-rule:nonzero;fill-opacity:0.301961}
    .fil3 {fill:#8E93F9;fill-rule:nonzero;fill-opacity:0.301961}
    .fil7 {fill:white;fill-rule:nonzero;fill-opacity:0.478431}
   ]]>
  </style>
 </defs>
 <g id="OBJECTS">
  <metadata id="CorelCorpID_0Corel-Layer"/>
  <g id="_273389096">
   <g>
    <g>
     <path class="fil0 str0" d="M8137.5 4124.68c0,67.1 -54.39,121.5 -121.5,121.5 -67.1,0 -121.5,-54.39 -121.5,-121.5 0,-67.1 54.4,-121.5 121.5,-121.5 67.11,0 121.5,54.4 121.5,121.5z"/>
    </g>
    <g>
     <path class="fil1" d="M3833.61 4952.3c0,67.96 -55.09,123.05 -123.05,123.05 -67.96,0 -123.06,-55.09 -123.06,-123.05 0,-67.96 55.09,-123.06 123.06,-123.06 67.96,0 123.05,55.09 123.05,123.06z"/>
    </g>
    <g>
     <path class="fil2 str1" d="M513 4915.86c0,48.91 -39.65,88.55 -88.55,88.55 -48.91,0 -88.55,-39.65 -88.55,-88.55 0,-48.91 39.65,-88.55 88.55,-88.55 48.91,0 88.55,39.65 88.55,88.55z"/>
    </g>
    <g>
     <path class="fil1" d="M6923.25 1018.19c0,75.62 -61.31,136.93 -136.93,136.93 -75.62,0 -136.93,-61.3 -136.93,-136.93 0,-75.62 61.3,-136.93 136.93,-136.93 75.62,0 136.93,61.3 136.93,136.93z"/>
    </g>
    <g>
     <path class="fil2 str1" d="M3127.84 375c0,85.28 -69.14,154.42 -154.43,154.42 -85.28,0 -154.42,-69.14 -154.42,-154.42 0,-85.29 69.14,-154.43 154.42,-154.43 85.29,0 154.43,69.14 154.43,154.43z"/>
    </g>
    <g>
     <path class="fil1" d="M7852.62 4347.19c0,28.78 -23.33,52.11 -52.12,52.11 -28.78,0 -52.11,-23.33 -52.11,-52.11 0,-28.78 23.33,-52.11 52.11,-52.11 28.78,0 52.12,23.33 52.12,52.11z"/>
    </g>
    <g>
     <path class="fil1" d="M4484.86 4579.73c0,28.78 -23.33,52.11 -52.11,52.11 -28.78,0 -52.12,-23.33 -52.12,-52.11 0,-28.78 23.33,-52.12 52.12,-52.12 28.78,0 52.11,23.33 52.11,52.12z"/>
    </g>
    <g>
     <path class="fil1" d="M2859.32 190.64c0,28.78 -23.33,52.11 -52.12,52.11 -28.78,0 -52.11,-23.33 -52.11,-52.11 0,-28.78 23.33,-52.12 52.11,-52.12 28.78,0 52.12,23.33 52.12,52.12z"/>
    </g>
    <g>
     <path class="fil3" d="M4769.97 5004.41c0,28.78 -23.33,52.12 -52.11,52.12 -28.78,0 -52.12,-23.33 -52.12,-52.12 0,-28.78 23.33,-52.11 52.12,-52.11 28.78,0 52.11,23.33 52.11,52.11z"/>
    </g>
    <g>
     <path class="fil3" d="M7018.63 1144.42c0,22.1 -17.92,40.02 -40.02,40.02 -22.1,0 -40.02,-17.91 -40.02,-40.02 0,-22.1 17.91,-40.02 40.02,-40.02 22.1,0 40.02,17.92 40.02,40.02z"/>
    </g>
    <g>
     <path class="fil3" d="M3448.59 3408.01c0,82.8 -67.12,149.91 -149.91,149.91 -82.8,0 -149.92,-67.12 -149.92,-149.91 0,-82.8 67.12,-149.91 149.92,-149.91 82.79,0 149.91,67.12 149.91,149.91z"/>
    </g>
    <g>
     <path class="fil3" d="M1071.33 3296.64c0,77.37 -62.72,140.09 -140.1,140.09 -77.37,0 -140.09,-62.72 -140.09,-140.09 0,-77.37 62.72,-140.1 140.09,-140.1 77.37,0 140.1,62.72 140.1,140.1z"/>
    </g>
   </g>
   <path class="fil4" d="M5891.47 5154.25c0,0 315.99,-1106.38 757.48,-1409.1 0,0 31.91,576.65 -323.08,1271.19 0,0 432.13,-694.54 982.66,-855.11 0,0 -87.77,493.03 -748.16,1055.61 0,0 567.31,-373.76 1035.65,-340.06 0,0 -221,304.07 -809.68,513.3 0,0 713.69,-47.08 979.64,236.21l-1874.5 0 0 -472.03z"/>
   <g>
    <g>
     <polygon class="fil5" points="6325.87,5485.82 5456.73,5485.82 5051.63,3236.97 5920.76,3236.97 "/>
     <polygon class="fil5" points="4388.54,5626.28 4388.54,5485.82 5425.73,5325.62 6294.87,5325.62 6988.95,5485.82 6988.95,5626.28 "/>
     <g>
      <polygon class="fil6" points="6186.89,5485.82 5317.76,5485.82 4912.66,3236.97 5781.79,3236.97 "/>
     </g>
     <g>
      <path class="fil6" d="M7451.52 4361.39l-4021.49 0c-101.66,0 -178.26,-92.45 -159.37,-192.33l489.39 -2587.9c19.28,-101.97 108.38,-175.8 212.16,-175.8l4021.49 0c101.66,0 178.26,92.45 159.37,192.34l-489.39 2587.9c-19.28,101.97 -108.38,175.8 -212.16,175.8z"/>
     </g>
     <path class="fil5" d="M7311.57 4249.68l-4021.49 0c-101.66,0 -178.26,-92.44 -159.37,-192.33l489.39 -2587.9c19.29,-101.97 108.39,-175.8 212.17,-175.8l4021.48 0c101.66,0 178.26,92.45 159.37,192.34l-489.39 2587.9c-19.28,101.97 -108.38,175.8 -212.16,175.8z"/>
     <g>
      <path class="fil2 str2" d="M3290.09 4124.68c-15.21,0 -24.47,-8.44 -28.64,-13.47 -4.17,-5.03 -10.74,-15.7 -7.91,-30.65"/>
      <line class="fil2 str2" x1="3253.54" y1="4080.56" x2="3742.93" y2= "1492.66" />
      <path class="fil2 str2" d="M3742.93 1492.66c8.11,-42.89 45.68,-74.03 89.34,-74.03"/>
      <line class="fil2 str2" x1="3832.27" y1="1418.63" x2="7853.76" y2= "1418.63" />
      <path class="fil2 str2" d="M7853.76 1418.63c15.22,0 24.47,8.44 28.65,13.46 4.16,5.04 10.73,15.7 7.91,30.65"/>
      <line class="fil2 str2" x1="7890.31" y1="1462.74" x2="7400.9" y2= "4050.65" />
      <path class="fil2 str2" d="M7400.9 4050.65c-8.1,42.91 -45.67,74.04 -89.33,74.04"/>
      <line class="fil2 str2" x1="7311.57" y1="4124.68" x2="3290.09" y2= "4124.68" />
     </g>
     <polygon class="fil6" points="4249.57,5626.28 4249.57,5485.82 5286.77,5325.62 6155.9,5325.62 6849.98,5485.82 6849.98,5626.28 "/>
     <line class="fil2 str3" x1="5832.46" y1="5325.62" x2="5320.93" y2= "5325.62" />
    </g>
    <path class="fil7 str4" d="M4134.22 3316.84c-7.13,0 -11.47,-3.96 -13.43,-6.31 -1.96,-2.36 -5.04,-7.36 -3.71,-14.37l229.45 -1213.31c3.8,-20.11 21.42,-34.71 41.89,-34.71l2655.02 0c7.13,0 11.47,3.96 13.43,6.31 1.95,2.36 5.03,7.36 3.7,14.37l-229.45 1213.31c-3.8,20.12 -21.41,34.71 -41.88,34.71l-2655.01 0z"/>
    <g>
     <path class="fil8" d="M4376.27 3533.18c-9.8,0 -15.77,-5.44 -18.45,-8.68 -2.69,-3.24 -6.93,-10.12 -5.1,-19.75l315.4 -1667.84c5.23,-27.65 29.44,-47.71 57.58,-47.71l2075.68 0c9.81,0 15.77,5.44 18.46,8.67 2.69,3.24 6.91,10.12 5.1,19.75l-315.41 1667.84c-5.22,27.65 -29.43,47.71 -57.57,47.71l-2075.69 0z"/>
     <g>
      <g>
       <polygon class="fil9" points="4951.76,3012.87 4767.38,3531.28 5029.57,3533.18 5136.4,3070.95 "/>
      </g>
      <path class="fil10" d="M5194.22 2662.27c0,0 -141.37,30.76 -164.46,80.39 -38.48,82.7 -142.89,387.33 -142.89,387.33l286.86 128.1 133.43 -474.42 -112.93 -121.4z"/>
      <g>
       <path class="fil11" d="M5202.66 2264.23c-10.81,51.87 -80.89,211.24 -33.2,312.67 49,104.21 222.84,150.76 330.48,158.48 290.05,20.8 350.33,-119.93 346.76,-200.22 -0.97,-21.89 -26.78,-112.83 -32.36,-204.26 -4.19,-68.72 15.97,-136.78 -5.04,-181.2 -48.76,-103.48 -103.23,-120.84 -103.23,-120.84l-486.6 -43.56c0,0 18.96,107.39 -16.8,278.93z"/>
      </g>
      <path class="fil10" d="M5711.6 3503.29c1.07,10.47 2.31,20.48 3.85,29.87l-603.2 0c6.77,-82.37 7.85,-169.97 -5.39,-242.48 -36.8,-201.07 -43.42,-254.65 -16.17,-328.08 27.1,-73.9 254.33,-308.84 254.33,-308.84 0,0 199.84,-105.61 291.59,-54.96 61.58,34.18 106.69,70.51 113.78,192.6 11.39,193.37 -42.03,498.67 -43.11,567.02 -0.93,51.27 0.31,102.54 4.31,144.87z"/>
      <g>
       <path class="fil9" d="M5465.01 2814.75c114.98,-5.87 193.19,-145.79 216.2,-195.65 -24.89,-11.67 -44.67,-20.29 -44.67,-20.29 -58.12,-56.55 -42.1,-215.51 -42.1,-215.51l-144.2 68.8 -30.47 14.45c0,0 -5.34,56.24 -27.02,110.28 -8.8,22.3 -20.74,44.3 -35.81,61.57 -52.15,59.69 -33.3,183.58 108.07,176.35z"/>
      </g>
      <g>
       <path class="fil6" d="M5392.75 2576.82c149.21,0 181.46,-116.69 181.46,-116.69l-123.96 -8.04 -30.47 14.45c0,0 -5.34,56.24 -27.02,110.28z"/>
      </g>
      <g>
       <path class="fil9" d="M5607.99 2419.49l-0.01 0.17c-2.84,3.71 -5.49,7.26 -8.33,10.96 -118.02,151.62 -239.37,95.41 -284.55,57.17 -100.2,-84.8 -47.24,-320.56 -27.43,-399.68 39.85,-159.07 347.7,-222.89 389.24,18.38 0,0 39.04,164.03 -68.91,313z"/>
      </g>
      <g>
       <path class="fil11" d="M5285.49 1881.42c212.11,-100.99 321.86,37.7 328.73,38.27 73.11,5.99 158.78,69.5 148.69,201.74 -11.25,147.51 -95.71,176.58 -95.71,176.58 0,0 -10.37,-31.69 -36.91,-58.2 -37.74,-37.69 -123.31,-76.56 -119.13,-122.26 -17.17,23.96 -46.57,54.72 -96.27,64.47 -88.3,21.86 -199.39,-10.43 -205.99,-22.77 0,0 -63.66,-211.06 76.59,-277.83z"/>
      </g>
      <g>
       <path class="fil9" d="M5610.62 2225.62c0,0 60.73,-59.84 100.22,-20.89 49.15,48.48 -28.48,161.06 -69.69,155.74 -41.2,-5.31 -30.54,-134.85 -30.54,-134.85z"/>
      </g>
      <g>
       <path class="fil6" d="M5851.09 3283.9c6.16,36.64 38.49,136.1 69.43,249.26l-395.67 0c21.56,-526.54 111.77,-934.37 111.77,-934.37 0,0 284.05,89.91 293.29,124.09 6,22.02 -33.72,214 -59.43,369.96 -14.32,86.83 -24.17,162.43 -19.4,191.06z"/>
      </g>
      <g>
       <path class="fil6" d="M5376.44 2610.64c0,0 -64.82,124.86 -120.7,349.63 -26.02,104.54 -54.81,345.17 -78.06,572.88l-227.55 0c34.48,-125.32 69.28,-238.94 70.67,-268.81 3.08,-64.97 -17.24,-256.65 7.7,-315.77 24.94,-59.12 134.56,-281.12 153.04,-286.51 68.67,-20.48 194.91,-51.42 194.91,-51.42z"/>
      </g>
      <g>
       <path class="fil9" d="M6122.66 3533.16l-259.72 0c6.62,-82.37 11.7,-147.03 11.7,-147.03l-76.52 -275.12 72.36 -18.17 207.07 -52.19c0,0 74.52,263.27 81.91,316.07 3.24,22.79 -14.01,94.53 -36.8,176.44z"/>
      </g>
      <path class="fil10" d="M5976.85 2755.3c33.22,59.15 62.76,144.71 128.3,346.77l-319.17 112.86c0,0 -72.81,-279.72 -77.67,-367.1 -6.8,-122.38 213.32,-190.82 268.54,-92.53z"/>
      <g>
       <path class="fil2 str5" d="M5699.47 2231.44c-15.26,-17.74 -48.46,-10.72 -65.58,24.75 -10.32,21.39 -6.88,46.26 2.81,59.66"/>
       <path class="fil2 str5" d="M5688.19 2255.76c0,0 -44.03,-11.08 -60.58,26.15"/>
      </g>
     </g>
     <g>
      <path class="fil2 str2" d="M4376.27 3533.18c-9.8,0 -15.77,-5.44 -18.45,-8.68 -2.69,-3.24 -6.93,-10.12 -5.1,-19.75"/>
      <line class="fil2 str2" x1="4352.72" y1="3504.75" x2="4668.12" y2= "1836.91" />
      <path class="fil2 str2" d="M4668.12 1836.91c5.23,-27.65 29.44,-47.71 57.58,-47.71"/>
      <line class="fil2 str2" x1="4725.7" y1="1789.2" x2="6801.38" y2= "1789.2" />
      <path class="fil2 str2" d="M6801.38 1789.2c9.81,0 15.77,5.44 18.46,8.67 2.69,3.24 6.91,10.12 5.1,19.75"/>
      <line class="fil2 str2" x1="6824.94" y1="1817.63" x2="6509.53" y2= "3485.47" />
      <path class="fil2 str2" d="M6509.53 3485.47c-5.22,27.65 -29.43,47.71 -57.57,47.71"/>
      <line class="fil2 str2" x1="6451.96" y1="3533.18" x2="4376.27" y2= "3533.18" />
     </g>
    </g>
    <g>
     <g>
      <polygon class="fil11" points="4710.29,3641.75 4730.66,3709.83 4803.66,3720.75 4739,3773.73 4737.29,3848.56 4676.96,3813.23 4602.9,3848.56 4630.28,3773.73 4586.22,3720.75 4663.46,3709.83 "/>
     </g>
     <g>
      <polygon class="fil11" points="5023.29,3641.75 5043.65,3709.83 5116.66,3720.75 5051.99,3773.73 5050.29,3848.56 4989.96,3813.23 4915.9,3848.56 4943.27,3773.73 4899.21,3720.75 4976.46,3709.83 "/>
     </g>
     <g>
      <polygon class="fil11" points="5336.29,3641.75 5356.65,3709.83 5429.65,3720.75 5364.99,3773.73 5363.28,3848.56 5302.96,3813.23 5228.89,3848.56 5256.27,3773.73 5212.21,3720.75 5289.46,3709.83 "/>
     </g>
     <g>
      <polygon class="fil11" points="5649.28,3641.75 5669.65,3709.83 5742.65,3720.75 5677.99,3773.73 5676.28,3848.56 5615.95,3813.23 5541.89,3848.56 5569.27,3773.73 5525.21,3720.75 5602.45,3709.83 "/>
     </g>
     <g>
      <polygon class="fil11" points="5962.28,3641.75 5982.64,3709.83 6055.65,3720.75 5990.99,3773.73 5989.27,3848.56 5928.95,3813.23 5854.89,3848.56 5882.27,3773.73 5838.2,3720.75 5915.45,3709.83 "/>
     </g>
     <g>
      <polygon class="fil6" points="6055.69,3720.76 5990.97,3773.67 5989.3,3848.54 5928.89,3813.26 5962.22,3641.73 5982.64,3709.79 "/>
     </g>
    </g>
    <g>
     <g>
      <path class="fil8" d="M7546.45 2705.25c-24.96,128.41 -149.3,232.52 -277.71,232.52 -128.41,0 -212.28,-104.1 -187.32,-232.52 24.96,-128.41 149.3,-232.52 277.71,-232.52 128.41,0 212.28,104.1 187.32,232.52z"/>
      <polygon class="fil5" points="7466.22,2707.02 7251.89,2567.63 7197.7,2846.41 "/>
     </g>
     <g>
      <path class="fil8" d="M3624.79 2680.09c-24.96,128.41 58.91,232.52 187.32,232.52 128.41,0 252.74,-104.1 277.71,-232.52 24.96,-128.41 -58.91,-232.52 -187.32,-232.52 -128.41,0 -252.75,104.1 -277.71,232.52z"/>
      <polygon class="fil5" points="3704.32,2681.86 3972.85,2542.47 3918.66,2821.25 "/>
     </g>
    </g>
   </g>
   <g>
    <g>
     <polygon class="fil6" points="2185,3942.45 1011.16,3942.45 1011.16,3808.29 2185,3808.29 "/>
     <line class="fil2 str6" x1="1135.54" y1="3942.45" x2="831.76" y2= "5646.49" />
     <line class="fil2 str6" x1="2053.7" y1="3942.45" x2="2357.49" y2= "5646.49" />
     <line class="fil2 str6" x1="900.8" y1="5259.2" x2="2288.44" y2= "5259.2" />
    </g>
    <g>
     <path class="fil8 str7" d="M198.93 1751.98l591.53 0c54.08,0 97.92,-43.84 97.92,-97.92l0 -204.47c0,-54.07 -43.84,-97.92 -97.92,-97.92l-591.53 0c-54.08,0 -97.92,43.84 -97.92,97.92l0 204.47c0,54.08 43.84,97.92 97.92,97.92z"/>
     <path class="fil8" d="M583.58 1719.17l138.86 0c0,0 -14.88,234.22 156.79,234.22 0,0 -295.65,81.26 -295.65,-234.22z"/>
     <path class="fil2 str8" d="M722.43 1719.17c0,0 -14.88,234.22 156.79,234.22 0,0 -295.65,81.26 -295.65,-234.22"/>
     <g>
      <path class="fil2 str9" d="M836.49 1542.93c0,0 -54.47,-73.78 -105.09,-67.52 -65.26,8.07 20.41,165.22 -65.43,164.8 -53.64,-0.26 -95.91,-120.62 -145.34,-116.73 -50.93,4 -9.15,80.11 -70.95,77.82 -61.8,-2.29 -112.15,-125.12 -160.22,-126.08 -48.06,-0.95 -44.63,108.91 -119.02,91.74"/>
     </g>
    </g>
    <g>
     <g>
      <g>
       <path class="fil9" d="M2693.31 2423.98c-1.62,33.72 -18.59,55.58 -18.59,55.58 -24.58,30.83 -76.63,69.63 -100.24,85.6l-87.1 113.03 -121.27 -132.94 70.28 -65.97c0.83,-17.22 -1.25,-66.53 13.75,-93.33 18.75,-33.47 53.61,-84.72 64.58,-110.56 14.31,-33.89 22.78,-57.92 32.64,-64.44 9.86,-6.39 29.72,0.14 31.53,29.44 1.67,23.89 -12.36,71.39 -13.2,74.3 2.5,-2.92 42.92,-48.06 50,-60.14 0,0 0.97,-20 0.83,-37.78 -0.42,-43.33 36.39,-44.72 38.47,-33.89l0 0.14c0.56,2.78 13.75,73.56 12.78,92.9 -0.48,9.76 -18.89,130.3 -18.89,130.3l44.42 17.76z"/>
      </g>
      <path class="fil12" d="M2806.32 1947.63c9.67,-96.46 -60.7,-182.52 -157.16,-192.2 -96.46,-9.67 -182.52,60.7 -192.2,157.16 -8.63,86.05 46.52,163.67 126.98,186.32l-47.85 477.15c-1.03,10.23 6.43,19.35 16.67,20.38l23.82 2.39c10.23,1.03 19.35,-6.43 20.38,-16.67l47.85 -477.15c83.39,-6.2 152.88,-71.32 161.51,-157.39zm-186.76 102.99l0 0c-66.61,-6.68 -115.1,-65.98 -108.42,-132.59 6.68,-66.61 65.98,-115.1 132.59,-108.42 66.61,6.68 115.1,65.98 108.42,132.59 -6.68,66.61 -65.98,115.1 -132.59,108.42z"/>
      <path class="fil9" d="M2682.98 2393.17c0,0 -0.48,-0.62 -1.19,-1.51 8.31,-12.31 11.6,-30.15 -3.26,-49.91 0,0 -1.71,-2.17 -4.47,-5.64 13.43,-11.08 25.4,-33.77 5.8,-59.85 0,0 -43.28,-55.24 -54.41,-61.72 -16.73,-9.75 -42,14.52 -25.04,50.75 1.63,3.49 4.46,8.59 7.98,14.49 -12.23,5.93 -21.26,25.46 -9.31,51 1.06,2.26 2.62,5.19 4.52,8.56 -6.43,9.35 -8.63,24.57 -0.07,42.86 8.14,17.39 45.1,73.72 56.19,77.72 11.08,3.99 52.67,-27.64 23.27,-66.74z"/>
      <path class="fil2 str10" d="M2613.93 2279.92c0,0 5.76,-4.21 14.85,5.98 9.09,10.2 42.11,46.54 42.11,46.54"/>
      <path class="fil2 str10" d="M2609.39 2336.31c0,0 11.48,-9.11 24.71,4.78 17.73,18.61 43.11,47.2 43.11,47.2"/>
      <path class="fil2 str10" d="M2621.65 2412.62c0,0 13.42,18.94 25.53,33.96"/>
     </g>
     <g>
      <path class="fil8" d="M1818.5 2279.26c-31.41,-36.39 -559.56,-51.75 -796.92,4.59l78.06 627.99c0,0 45.31,265.02 70.7,429.69 136.85,103.96 613.41,80.04 693.47,-30.33 0,0 -32.61,-977.93 -45.31,-1031.93z"/>
     </g>
     <path class="fil13" d="M2393.72 2515.2l-267.82 234.46c-103.73,-206.64 -216.31,-488.78 -281.46,-488.78 0,0 -57.69,77.82 -60.02,200.11 -2.94,154.89 50.15,372.61 60.02,500 69.64,115.47 155.28,204.99 258.41,164.59 94.27,-36.93 314.72,-266.54 454.79,-412.82l-163.92 -197.56z"/>
     <g>
      <path class="fil6" d="M1962.5 3102.62c-43.61,-31.53 -82.92,-83.33 -118.06,-141.67 -7.36,-95.14 -38.75,-240.28 -53.06,-372.36l17.13 27.55 153.98 486.48z"/>
     </g>
     <polygon class="fil14" points="1508.73,2304.13 1454.35,2367.47 1484.87,2399.42 1436.18,3114.59 1572.71,3335.37 1659.57,3114.59 1551.21,2393.62 1562.21,2364.8 "/>
     <g>
      <g>
       <g>
        <path class="fil15" d="M1701.75 1630.5c0,0 44.8,169.92 -20.84,201.94 -53.4,26.06 -58.08,-50.03 -58.08,-50.03l-12.7 -82.82 91.63 -69.09z"/>
       </g>
       <g>
        <path class="fil9" d="M1676.56 1729.39c-69.23,-254.57 -399.49,-134.65 -415.94,-18.73 -11.51,81.5 43.46,197.7 77.12,259.7 6.85,12.55 13.13,83.11 21.3,94.81 -16.45,69.13 -22.06,95.38 -36.61,146.35 0,0 66.79,80.32 158.91,81.13 104.31,0.91 94.92,-83.43 94.92,-83.43l-11.89 -77.33c50,4.38 84.04,-8.05 84.04,-8.05 121.15,-52.78 28.15,-394.45 28.15,-394.45z"/>
       </g>
       <g>
        <path class="fil16" d="M1234.79 1630.5c40.8,-196.5 281.33,-112.75 366.56,-105.78 51.79,-49.8 95.94,-54.71 133.84,-38.06 39.17,17.21 53.15,64.08 48.3,123.44 -16.41,201.11 -257.5,189.4 -322.02,180.4 -1.84,15.18 -14,58.9 -45.58,62.56 -14.63,-27.59 -47.2,-44.55 -80.09,-25.93 -46.64,26.41 -14.48,114.32 26.4,143.62 0.91,43.83 -2.96,68.07 -3.13,94.38 0,0 -73.02,-28.19 -100.02,-83.43 -65.87,-28.22 -112.61,-86.5 -73.76,-137.48 -65.56,-72.1 -62.82,-188.46 49.49,-213.71z"/>
       </g>
      </g>
      <g>
       <path class="fil6" d="M1569.72 2166.36c-161.8,-14.86 -183.75,-159.44 -184.86,-168.47 3.47,6.94 31.04,99.18 179.44,134.03l5.42 34.44z"/>
      </g>
      <path class="fil6" d="M1338.31 2152.12l-65.86 68.33c33.24,56.96 117.37,126.42 181.91,147.02l54.37 -63.33 -3.62 -30.64c0,0 -13.02,-15.61 -20.24,-25.4 -124.86,-36.62 -146.56,-95.98 -146.56,-95.98z"/>
      <path class="fil6" d="M1562.21 2364.8l-53.48 -60.67 -3.62 -30.64 9.45 -29.12c39.15,-9.79 58.52,-48.91 55.11,-77.98l47.24 47.78c2.01,42.53 -12.52,99.99 -54.7,150.63z"/>
     </g>
     <polygon class="fil13" points="1844.44,2260.88 1636.32,2225.4 1590.88,2187.94 1716.11,3494.68 1920.23,3382.98 1803.2,2459.22 "/>
     <polyline class="fil2 str10" points="1652.94,2235.37 1735.38,2434.84 1663.4,2515.96 1748.68,2551.86 "/>
     <path class="fil2 str10" d="M1748.68 2551.86c0,0 -46.58,385.78 -58.07,494.24"/>
     <g>
      <polygon class="fil9" points="2400.47,4187.51 2614.66,4467.84 2879.43,4268.67 2672.39,3975.31 "/>
     </g>
     <g>
      <path class="fil9" d="M2727.5 4053.45c-18.06,38.06 -76.39,148.61 -205,293.74l-122.08 -159.72 271.95 -212.22 55.14 78.2z"/>
     </g>
     <g>
      <path class="fil6" d="M1937.83 3084.43l-409.68 8.89c-7.19,-2.11 -29.04,-22.72 -33.45,-26.7 -10.46,-9.46 -15.33,-21.17 -10.84,-34.42l197.85 -584.75c7.48,-22.1 28.5,-36.74 51.82,-36.09l425.89 11.92c8.98,0.25 16.74,4.28 22.08,10.35 2.43,2.77 26.22,20.21 27.54,23.68 2.38,6.3 -19.15,-0.77 -21.54,6.3l-197.85 584.75c-7.48,22.1 -28.5,36.74 -51.82,36.08z"/>
      <path class="fil5" d="M1965.28 3107.69l-425.89 -11.92c-20.54,-0.57 -34.67,-20.86 -28.08,-40.32l197.85 -584.75c7.48,-22.1 28.5,-36.74 51.82,-36.08l425.89 11.91c20.54,0.58 34.67,20.86 28.08,40.33l-197.85 584.75c-7.48,22.1 -28.49,36.74 -51.81,36.08z"/>
     </g>
     <g>
      <path class="fil17" d="M1170.34 3341.52c0,0 45.15,16.92 85.76,30.5 160.36,-70.69 557.69,-303.24 701.85,-249.42 179.69,67.08 764.24,910.61 764.24,910.61 -96.2,130.15 -257.94,250.94 -435.34,286.83 0,0 -338.7,-550.28 -420.13,-681.01 0,0 -123.02,86.1 -245.62,169.49l-474.18 0c0,0 -146.57,-202.48 23.43,-466.99z"/>
     </g>
     <path class="fil6" d="M1926.95 3736.23c-25.42,-41.25 -46.53,-75.14 -60.28,-97.22 0,0 -122.92,86.11 -245.56,169.44l-125.09 0c147.61,-331.06 412.57,-290.64 412.57,-290.64l18.36 218.42z"/>
     <g>
      <polygon class="fil9" points="1959.4,4623.82 1928.14,5082.06 1569.89,5104.9 1608.38,4641.33 "/>
     </g>
     <g>
      <path class="fil9" d="M1959.45 4623.86l-19.72 288.19c-140.42,17.64 -304.03,9.03 -354.3,5.69l22.91 -276.39 351.11 -17.5z"/>
     </g>
     <g>
      <path class="fil17" d="M1449.1 4779.25c120.79,77.13 412.62,85.1 513.68,85.1 46.1,-591.31 76.88,-1122.16 79.79,-1223.4 3.7,-128.82 -144.47,-134.56 -210.11,-114.36 -119.91,36.9 -194.15,134.31 -246.11,269.34 -15.86,104.33 -54.42,430.12 -137.25,983.32z"/>
     </g>
     <path class="fil13" d="M1319.04 2172.1l-68.36 56.62 -229.1 55.12 46.25 818.77 -154.7 666.89c189.36,19.06 410.29,-110.96 422.68,-414.46l-16.77 -1182.94z"/>
     <polygon class="fil6" points="1017.5,3319.56 1067.78,3102.62 1067.08,3089.56 1114.3,3088.17 1333.47,3193.03 1333.61,3194.98 "/>
     <polygon class="fil6" points="1106.39,2626.33 1114.37,2954.79 1059.69,2923.05 "/>
     <path class="fil18" d="M2551.11 4384.66c0,0 -48.04,115.8 27.31,228.39l457.82 139.26c73.63,22.4 153.61,5.72 212.16,-44.24l69.11 -58.97c10.99,-9.37 17.18,-23.23 16.41,-37.65 -1.57,-29.67 -13.42,-80.12 -70.29,-116.08 -103.51,-65.46 -299.65,-173.91 -351.47,-200.21l-99.48 -139.45 -139.02 118.74 9.41 78.45 -11.5 12.76 -120.46 19.01z"/>
     <path class="fil18" d="M1576.91 5020.37l63.19 51.71 22.85 -2.7c0,0 76.49,-87.99 81.52,-87.99 5.17,0 199.69,31.03 199.69,31.03l-0.57 417.25c0,0 89.22,46.41 96.98,93.05 3.22,19.32 -3.87,60.44 -23.31,103.52l-379.16 0 -73.94 -309.5 -69.49 -57.53c0,0 10.15,-67.71 27.28,-136.86 22.04,-88.98 54.95,-101.97 54.95,-101.97z"/>
     <polyline class="fil2 str10" points="1248.68,2235.37 1165.57,2454.12 1254,2535.01 1165.57,2583.78 "/>
     <path class="fil2 str10" d="M1165.57 2583.78c0,0 146.94,497.34 156.25,542.55"/>
     <path class="fil6" d="M1316.04 3160.76c0,13.99 -7.41,25.33 -16.56,25.33 -9.15,0 -16.56,-11.34 -16.56,-25.33 0,-13.98 7.42,-25.33 16.56,-25.33 9.14,0 16.56,11.34 16.56,25.33z"/>
     <path class="fil6" d="M1316.04 3296.64c0,13.99 -7.41,25.33 -16.56,25.33 -9.15,0 -16.56,-11.34 -16.56,-25.33 0,-13.99 7.42,-25.33 16.56,-25.33 9.14,0 16.56,11.34 16.56,25.33z"/>
     <g>
      <g>
       <path class="fil9" d="M1793.58 2834.56c2.69,2.3 10.45,8.73 11.26,14.94 1.67,13.77 -1.86,17.09 -29.33,32.81 4.98,-0.06 12.35,8.24 12.81,14.89 1.44,17.52 -20.42,44.81 -52.89,68.57 -31.01,22.81 -116.93,70.42 -265.59,79.66 -55.51,13.78 -117.69,28.7 -160.37,39.21l-40.65 -180.39c74.03,-10.2 102.39,-13.52 148.27,-19.5 9.22,-5.02 55.62,-82.96 67.17,-95.1 11.55,-12.13 50.39,-48.63 61.56,-70.07 11.18,-21.55 40.25,-42.65 50.79,-11.8 18.13,53.31 -25.2,99.18 -27.11,110.51 -0.27,1.65 51,-18.43 86.21,-27.17 17.92,-7.18 27.55,-11.08 47.7,-18.86 14.33,-5.64 23.33,-10.56 31.34,-12.07 21.47,-4.09 38.7,0.21 43.26,13.29 1.72,5.03 0.71,9.31 -2.52,13.41 9.54,-4.35 33.15,-9.8 47.48,5.79 13.69,14.91 -6.76,28.76 -29.39,41.88z"/>
      </g>
      <g>
       <path class="fil2 str10" d="M1740.36 2808.67c0,0 -41.69,23.11 -64.76,34.81 -23.06,11.7 -58.65,20.63 -58.65,20.63"/>
       <path class="fil2 str10" d="M1783.28 2838.79c0,0 -54.01,30.78 -77.07,42.48 -23.06,11.7 -74.36,26.52 -74.36,26.52"/>
       <path class="fil2 str10" d="M1762.19 2890.55c0,0 -30.36,26.18 -53.43,37.88 -23.06,11.7 -58.09,20.95 -58.09,20.95"/>
      </g>
     </g>
     <path class="fil13" d="M1059.69 2923.05l46.7 -296.72 -84.81 -342.48c-47.53,11.28 -121.74,31.76 -149.23,62.78 -45.05,50.86 -143.62,392.73 -150.28,708.53 -3.28,155.54 69.28,207.81 147.17,207.22 191.93,-1.46 512.67,-90.96 512.67,-90.96l5.9 -288.06 -328.12 39.7z"/>
     <line class="fil2 str10" x1="1387.81" y1="2883.36" x2="958.12" y2= "2936.17" />
     <g>
      <path class="fil2 str5" d="M1347.33 1857.76c0,0 45.19,-14.63 45.21,35.91 0.02,31.92 -22.6,40.06 -22.6,40.06"/>
      <path class="fil2 str5" d="M1358.63 1883.03c0,0 29.55,-9.68 33.22,19.76"/>
     </g>
    </g>
   </g>
   <g>
    <path class="fil2 str11" d="M2642.41 1654.26c-99.85,-409.57 110.35,-1220.74 1026.97,-1118.8 316.28,35.18 488.86,246.56 538.08,419.33 47.56,166.96 -37.24,282.8 -117.52,172.87 -135.69,-185.78 94.26,-1081.56 1013.43,-1015.96 830.45,59.27 1158.24,792.56 822.67,1542.56"/>
    <g>
     <polygon class="fil11" points="7120.95,3661.12 6660.13,3534.52 6663.01,4012.41 6782.27,3920.93 6930.81,4190.73 7223.8,3965.96 7001.7,3752.6 "/>
    </g>
    <path class="fil2 str11" d="M7109.94 4115.25c0,0 554.96,712.31 1232.27,179.83 497.63,-391.22 212.77,-1110.68 -326.21,-1411.71"/>
   </g>
   <g>
    <g>
     <g>
      <g>
       <g>
        <path class="fil3" d="M291.8 2741.18c-161.11,0 -291.8,130.56 -291.8,291.8 0,161.11 130.7,291.67 291.8,291.67 161.11,0 291.81,-130.56 291.81,-291.67 0,-161.25 -130.69,-291.8 -291.81,-291.8zm0 515.97l0 0c-123.89,0 -224.17,-100.42 -224.17,-224.17 0,-123.89 100.28,-224.17 224.17,-224.17 123.75,0 224.17,100.28 224.17,224.17 0,123.75 -100.42,224.17 -224.17,224.17z"/>
       </g>
      </g>
      <path class="fil19" d="M107.28 2974.11c0,0 96.63,63.83 184.52,207.44 0,0 85.87,-200.35 376.65,-382.98l-91.32 -93.09c0,0 -174.87,148.27 -285.33,385.84 0,0 -95.87,-114.56 -184.52,-117.22z"/>
     </g>
     <g>
      <g>
       <g>
        <path class="fil3" d="M291.8 3527.1c-161.11,0 -291.8,130.56 -291.8,291.81 0,161.11 130.7,291.67 291.8,291.67 161.11,0 291.81,-130.56 291.81,-291.67 0,-161.25 -130.69,-291.81 -291.81,-291.81zm0 515.97l0 0c-123.89,0 -224.17,-100.41 -224.17,-224.17 0,-123.89 100.28,-224.17 224.17,-224.17 123.75,0 224.17,100.28 224.17,224.17 0,123.75 -100.42,224.17 -224.17,224.17z"/>
       </g>
      </g>
      <path class="fil19" d="M107.28 3760.03c0,0 96.63,63.83 184.52,207.44 0,0 85.87,-200.35 376.65,-382.98l-91.32 -93.09c0,0 -174.87,148.27 -285.33,385.84 0,0 -95.87,-114.56 -184.52,-117.22z"/>
     </g>
     <g>
      <g>
       <g>
        <path class="fil3" d="M8461.74 1665.73c-114.71,0 -207.77,92.96 -207.77,207.77 0,114.71 93.06,207.67 207.77,207.67 114.71,0 207.77,-92.96 207.77,-207.67 0,-114.82 -93.06,-207.77 -207.77,-207.77zm0 367.38l0 0c-88.21,0 -159.61,-71.5 -159.61,-159.61 0,-88.21 71.4,-159.61 159.61,-159.61 88.11,0 159.61,71.4 159.61,159.61 0,88.11 -71.5,159.61 -159.61,159.61z"/>
       </g>
      </g>
      <path class="fil19" d="M8330.36 1831.58c0,0 68.8,45.45 131.38,147.7 0,0 61.14,-142.65 268.18,-272.69l-65.02 -66.28c0,0 -124.51,105.57 -203.16,274.72 0,0 -68.26,-81.57 -131.38,-83.46z"/>
     </g>
     <g>
      <g>
       <g>
        <path class="fil3" d="M8461.74 1044.04c-114.71,0 -207.77,92.96 -207.77,207.77 0,114.71 93.06,207.67 207.77,207.67 114.71,0 207.77,-92.96 207.77,-207.67 0,-114.81 -93.06,-207.77 -207.77,-207.77zm0 367.38l0 0c-88.21,0 -159.61,-71.5 -159.61,-159.61 0,-88.21 71.4,-159.61 159.61,-159.61 88.11,0 159.61,71.4 159.61,159.61 0,88.11 -71.5,159.61 -159.61,159.61z"/>
       </g>
      </g>
      <path class="fil4" d="M8330.36 1209.89c0,0 68.8,45.44 131.38,147.7 0,0 61.14,-142.65 268.18,-272.69l-65.02 -66.28c0,0 -124.51,105.57 -203.16,274.72 0,0 -68.26,-81.57 -131.38,-83.46z"/>
     </g>
    </g>
    <g>
     <g>
      <g>
       <path class="fil11" d="M7057.72 5100.61l-1205.52 0c-90.33,0 -163.56,-73.23 -163.56,-163.56l0 -0c0,-90.33 73.23,-163.56 163.56,-163.56l1205.52 0c90.33,0 163.56,73.23 163.56,163.56l0 0c0,90.33 -73.23,163.56 -163.56,163.56z"/>
      </g>
      <g>
       <g>
        <path class="fil8" d="M5979.16 4937.05c0,68.28 -55.36,123.64 -123.65,123.64 -68.29,0 -123.65,-55.36 -123.65,-123.64 0,-68.29 55.36,-123.65 123.65,-123.65 68.29,0 123.65,55.36 123.65,123.65z"/>
       </g>
       <path class="fil6" d="M5897.38 4871.45c0,24.23 -19.65,43.88 -43.88,43.88 -24.24,0 -43.88,-19.65 -43.88,-43.88 0,-24.24 19.65,-43.89 43.88,-43.89 24.24,0 43.88,19.65 43.88,43.89z"/>
       <path class="fil6" d="M5942.54 5003.4c-19.86,26.25 -51.53,43.2 -87.08,43.2 -37.22,0 -70.28,-18.61 -90,-47.22 10.41,-38.89 45.97,-67.64 88.06,-67.64 25.14,0 47.91,10.28 64.44,26.67 12.08,12.09 20.83,27.64 24.58,45z"/>
      </g>
      <g>
       <path class="fil8" d="M7055.63 4853.27l-997.64 0c-7.1,0 -12.85,-5.75 -12.85,-12.85 0,-7.1 5.76,-12.85 12.85,-12.85l997.64 0c7.1,0 12.85,5.76 12.85,12.85 0,7.1 -5.76,12.85 -12.85,12.85z"/>
      </g>
      <g>
       <path class="fil8" d="M7055.63 4944.59l-997.64 0c-7.1,0 -12.85,-5.76 -12.85,-12.85 0,-7.1 5.76,-12.85 12.85,-12.85l997.64 0c7.1,0 12.85,5.76 12.85,12.85 0,7.1 -5.76,12.85 -12.85,12.85z"/>
      </g>
      <g>
       <path class="fil8" d="M6543.95 5035.91l-485.96 0c-7.1,0 -12.85,-5.76 -12.85,-12.86 0,-7.1 5.76,-12.85 12.85,-12.85l485.96 0c7.1,0 12.85,5.75 12.85,12.85 0,7.1 -5.75,12.86 -12.85,12.86z"/>
      </g>
     </g>
     <g>
      <path class="fil5" d="M6094.28 1144.42l-1216.98 0c-118.62,0 -214.78,-96.16 -214.78,-214.78 0,-118.62 96.16,-214.78 214.78,-214.78l1216.98 0c118.63,0 214.78,96.16 214.78,214.78 0,118.62 -96.16,214.78 -214.78,214.78z"/>
      <g>
       <g>
        <path class="fil8" d="M5044.04 929.64c0,89.67 -72.69,162.36 -162.37,162.36 -89.67,0 -162.36,-72.69 -162.36,-162.36 0,-89.67 72.69,-162.36 162.36,-162.36 89.67,0 162.37,72.69 162.37,162.36z"/>
       </g>
       <path class="fil6" d="M4936.64 843.49c0,31.83 -25.8,57.63 -57.63,57.63 -31.82,0 -57.63,-25.8 -57.63,-57.63 0,-31.83 25.8,-57.63 57.63,-57.63 31.83,0 57.63,25.8 57.63,57.63z"/>
       <path class="fil6" d="M4995.95 1016.77c-26.08,34.47 -67.67,56.72 -114.35,56.72 -48.88,0 -92.29,-24.44 -118.19,-62.01 13.68,-51.07 60.37,-88.82 115.63,-88.82 33.01,0 62.93,13.5 84.63,35.02 15.87,15.87 27.36,36.3 32.28,59.09z"/>
      </g>
      <g>
       <path class="fil8" d="M6091.53 819.63l-943.99 0c-9.32,0 -16.88,-7.56 -16.88,-16.88 0,-9.32 7.56,-16.88 16.88,-16.88l943.99 0c9.32,0 16.88,7.56 16.88,16.88 0,9.32 -7.56,16.88 -16.88,16.88z"/>
      </g>
      <g>
       <path class="fil8" d="M5364.95 939.54l-217.41 0c-9.32,0 -16.88,-7.56 -16.88,-16.88 0,-9.32 7.56,-16.88 16.88,-16.88l217.41 0c9.32,0 16.88,7.56 16.88,16.88 0,9.32 -7.56,16.88 -16.88,16.88z"/>
      </g>
      <g>
       <path class="fil8" d="M6099.98 939.54l-639.86 0c-9.32,0 -16.88,-7.56 -16.88,-16.88 0,-9.32 7.56,-16.88 16.88,-16.88l639.86 0c9.32,0 16.88,7.56 16.88,16.88 0,9.32 -7.56,16.88 -16.88,16.88z"/>
      </g>
      <g>
       <path class="fil8" d="M5518.62 1059.45l-371.07 0c-9.32,0 -16.88,-7.56 -16.88,-16.88 0,-9.32 7.56,-16.88 16.88,-16.88l371.07 0c9.32,0 16.88,7.56 16.88,16.88 0,9.32 -7.56,16.88 -16.88,16.88z"/>
      </g>
     </g>
    </g>
    <g>
     <path class="fil20" d="M7923.27 454.97c0,251.28 -203.7,454.97 -454.97,454.97 -251.28,0 -454.97,-203.7 -454.97,-454.97 0,-251.28 203.7,-454.97 454.97,-454.97 251.27,0 454.97,203.7 454.97,454.97z"/>
     <path class="fil5" d="M7541.29 454.97c0,40.31 -32.69,73 -73,73 -40.32,0 -73,-32.69 -73,-73 0,-40.32 32.68,-73 73,-73 40.31,0 73,32.69 73,73z"/>
     <path class="fil8" d="M7496.87 74.5c0,15.78 -12.8,28.57 -28.57,28.57 -15.78,0 -28.57,-12.8 -28.57,-28.57 0,-15.78 12.79,-28.57 28.57,-28.57 15.78,0 28.57,12.8 28.57,28.57z"/>
     <path class="fil8" d="M7847.08 485.22c-15.78,0 -28.57,-12.79 -28.57,-28.57 0,-15.78 12.79,-28.58 28.57,-28.58 15.78,0 28.57,12.8 28.57,28.58 0,15.78 -12.79,28.57 -28.57,28.57z"/>
     <path class="fil8" d="M7436.36 835.44c0,-15.78 12.79,-28.57 28.57,-28.57 15.78,0 28.57,12.8 28.57,28.57 0,15.78 -12.79,28.57 -28.57,28.57 -15.78,0 -28.57,-12.8 -28.57,-28.57z"/>
     <path class="fil8" d="M7086.15 424.72c15.78,0 28.57,12.8 28.57,28.57 0,15.78 -12.79,28.57 -28.57,28.57 -15.78,0 -28.57,-12.8 -28.57,-28.57 0,-15.78 12.79,-28.57 28.57,-28.57z"/>
     <path class="fil5" d="M7467.8 453.78c-9.96,9.96 -26.12,9.96 -36.08,0l-215.67 -215.66c-9.96,-9.96 -9.96,-26.12 0,-36.08 9.96,-9.96 26.12,-9.96 36.08,0l215.66 215.66c9.96,9.96 9.96,26.11 0,36.08z"/>
     <line class="fil2 str12" x1="7466.61" y1="454.97" x2="7806" y2= "242.75" />
    </g>
    <g>
     <polygon class="fil6" points="8644.23,2642.63 8279.48,2642.63 8279.48,2277.88 8644.23,2277.88 "/>
     <polygon class="fil8" points="8604.99,2356.49 8565.61,2317.12 8461.86,2420.87 8358.1,2317.12 8318.72,2356.49 8422.48,2460.26 8318.72,2564.02 8358.1,2603.39 8461.86,2499.63 8565.61,2603.39 8604.99,2564.02 8501.24,2460.25 "/>
    </g>
    <g>
     <g>
      <path class="fil8 str13" d="M2294.1 1165.22l-755.66 -0.12c-21.61,-0 -39.13,-17.52 -39.13,-39.13l0.08 -509.51c0,-21.61 17.52,-39.13 39.13,-39.12l755.66 0.12c21.61,0 39.13,17.52 39.13,39.13l-0.08 509.51c-0,21.61 -17.52,39.13 -39.13,39.12z"/>
      <line class="fil2 str14" x1="1969.02" y1="837.33" x2="2333.25" y2= "1098.27" />
      <line class="fil2 str14" x1="1499.32" y1="1098.27" x2="1873.78" y2= "836.61" />
      <line class="fil2 str14" x1="1564.76" y1="618.73" x2="1903.3" y2= "857.42" />
      <path class="fil2 str14" d="M1903.3 857.42c11.15,7.86 26.04,7.87 37.2,0"/>
      <line class="fil2 str14" x1="1940.49" y1="857.42" x2="2279.11" y2= "618.84" />
      <polygon class="fil12" points="2279.11,618.84 1969.02,837.33 2041.84,889.5 "/>
      <polygon class="fil12" points="1563.69,618.84 1873.78,837.33 1800.96,889.5 "/>
     </g>
     <g>
      <path class="fil4" d="M2419.49 593.36c0,65.91 -53.43,119.33 -119.33,119.33 -65.91,0 -119.33,-53.43 -119.33,-119.33 0,-65.91 53.43,-119.33 119.33,-119.33 65.91,0 119.33,53.42 119.33,119.33z"/>
      <path class="fil8" d="M2287.85 649.55c-0.04,0 -0.07,0 -0.11,0 -3.2,-0.04 -6.22,-1.44 -8.31,-3.85l-45.47 -52.59c-4.01,-4.64 -3.5,-11.68 1.14,-15.69 4.65,-4.02 11.68,-3.52 15.7,1.14l37.22 43.04 62.06 -68.91c4.09,-4.57 11.14,-4.93 15.71,-0.83 4.57,4.12 4.94,11.15 0.83,15.72l-70.49 78.3c-2.11,2.35 -5.11,3.69 -8.27,3.69z"/>
     </g>
    </g>
    <g>
     <g>
      <path class="fil1" d="M3139.65 3201.83c0,183.61 -148.84,332.45 -332.45,332.45 -183.6,0 -332.45,-148.84 -332.45,-332.45 0,-183.61 148.84,-332.45 332.45,-332.45 183.61,0 332.45,148.84 332.45,332.45z"/>
     </g>
     <path class="fil8" d="M2980.91 3134.53l-59.9 34.59 0 -45.66c0,-14.89 -12.07,-26.96 -26.96,-26.96l-227.14 0c-14.89,0 -26.96,12.07 -26.96,26.96l0 156.74c0,14.89 12.07,26.96 26.96,26.96l227.14 0c14.89,0 26.96,-12.07 26.96,-26.96l0 -45.65 59.9 34.59c10.39,6 23.37,-1.5 23.37,-13.49l0 -107.61c0,-11.99 -12.98,-19.49 -23.37,-13.49z"/>
    </g>
   </g>
   <g>
    <g>
     <polygon class="fil6" points="8477.46,5681.22 339.17,5681.22 339.17,5626.28 8477.46,5626.28 "/>
    </g>
    <line class="fil2 str15" x1="5422.45" y1="5784.29" x2="7855.01" y2= "5784.29" />
    <line class="fil2 str15" x1="3865.28" y1="5784.29" x2="5210.44" y2= "5784.29" />
    <line class="fil2 str15" x1="781.61" y1="5784.29" x2="3267.78" y2= "5784.29" />
   </g>
  </g>
 </g>
</svg>
