<?xml version="1.0" encoding="utf-8"?>
<!-- Generator: Adobe Illustrator 27.5.0, SVG Export Plug-In . SVG Version: 6.00 Build 0)  -->
<svg version="1.1" xmlns="http://www.w3.org/2000/svg" xmlns:xlink="http://www.w3.org/1999/xlink" x="0px" y="0px"
	 viewBox="0 0 750 500" style="enable-background:new 0 0 750 500;" xml:space="preserve">
<g id="BACKGROUND">
</g>
<g id="OBJECTS">
	<g>
		<g>
			<ellipse style="opacity:0.1;fill:#001433;" cx="377.452" cy="428.264" rx="268.706" ry="17.152"/>
			<g>
				<g>
					<path style="fill:#001433;stroke:#22689E;stroke-width:2.1388;stroke-miterlimit:10;" d="M563.18,410.394
						c0,3.938-3.192,7.129-7.129,7.129H208.135c-3.937,0-7.129-3.192-7.129-7.129V159.438c0-3.938,3.192-7.13,7.129-7.13h347.916
						c3.938,0,7.129,3.192,7.129,7.13V410.394z"/>
					<rect x="214.211" y="166.287" style="fill:#FAEEE8;" width="335.779" height="224.566"/>
				</g>
				<g>
					<path style="fill:#22689E;" d="M622.888,405.422h-7.129H148.428h-7.13c-1.969,0-3.565,1.596-3.565,3.565v7.842
						c0,0.326,0.058,0.636,0.14,0.936c0.795,5.121,5.21,9.045,10.554,9.045h467.331c5.344,0,9.759-3.924,10.554-9.045
						c0.082-0.3,0.14-0.61,0.14-0.936v-7.842C626.453,407.018,624.857,405.422,622.888,405.422z"/>
					<path style="opacity:0.6;fill:#003154;" d="M320.862,405.422c0.78,7.328,6.979,13.037,14.514,13.037h93.435
						c7.535,0,13.734-5.709,14.514-13.037H320.862z"/>
				</g>
			</g>
		</g>
		<g>
			<g>
				<g>
					<path style="fill:#FFFFFF;stroke:#22689E;stroke-width:1.754;stroke-miterlimit:10;" d="M272.17,344.889
						c0,3.164,2.565,5.73,5.73,5.73h249.323c3.164,0,5.73-2.565,5.73-5.73V191.33c0-3.164-2.565-5.73-5.73-5.73H277.9
						c-3.164,0-5.73,2.565-5.73,5.73V344.889z"/>
				</g>
				<g>
					<g>
						<path style="fill:#22689E;" d="M532.953,204.032v-11.929c0-3.165-2.565-5.73-5.73-5.73H277.9c-3.164,0-5.73,2.565-5.73,5.73
							v11.929H532.953z"/>
						<g>
							<circle style="fill:#FFFFFF;" cx="525.887" cy="192.764" r="3.369"/>
							<path style="fill:#FFFFFF;" d="M511.78,192.764c0,1.861,1.508,3.369,3.369,3.369c1.861,0,3.369-1.508,3.369-3.369
								c0-1.861-1.508-3.369-3.369-3.369C513.289,189.395,511.78,190.903,511.78,192.764z"/>
							<path style="fill:#FFFFFF;" d="M501.042,192.764c0,1.861,1.508,3.369,3.369,3.369c1.861,0,3.369-1.508,3.369-3.369
								c0-1.861-1.508-3.369-3.369-3.369C502.55,189.395,501.042,190.903,501.042,192.764z"/>
						</g>
					</g>
				</g>
			</g>
			<g>
				<g>
					<rect x="373.196" y="217.173" style="fill:#FF8255;" width="21.632" height="109.191"/>
					<rect x="451.973" y="175.08" style="fill:#FFA94D;" width="24.054" height="151.284"/>
					<rect x="331.991" y="254.005" style="fill:#FFA94D;" width="24.054" height="72.359"/>
					<rect x="411.979" y="243.481" style="fill:#22689E;" width="24.054" height="82.883"/>
					<rect x="291.997" y="281.628" style="fill:#22689E;" width="24.054" height="44.736"/>
					<g>
						<rect x="493.178" y="94.84" style="fill:#FF8255;" width="21.632" height="231.525"/>
						<polygon style="fill:#FF8255;" points="484.585,99.809 503.994,66.191 523.403,99.809 						"/>
					</g>
				</g>
				
					<line style="fill:none;stroke:#001433;stroke-width:1.754;stroke-linecap:round;stroke-miterlimit:10;" x1="294.71" y1="330.457" x2="525.065" y2="330.457"/>
			</g>
		</g>
		<g>
			<g>
				
					<ellipse transform="matrix(0.7071 -0.7071 0.7071 0.7071 3.9096 280.0013)" style="fill:#FF8255;" cx="339.946" cy="135.281" rx="38.087" ry="38.087"/>
				<g>
					<path style="fill:#FFFFFF;" d="M337.101,153.763c-4.154-0.19-8.157-1.119-12.008-2.789v-9.447
						c2.201,1.119,4.591,2.053,7.171,2.803c2.58,0.749,4.847,1.124,6.801,1.124c1.613,0,2.793-0.194,3.543-0.583
						s1.124-1.039,1.124-1.949c0-0.626-0.27-1.157-0.811-1.593c-0.541-0.436-1.442-0.93-2.703-1.48
						c-1.261-0.55-2.964-1.214-5.108-1.992c-2.409-0.892-4.354-1.892-5.833-3.002c-1.48-1.11-2.556-2.352-3.23-3.728
						c-0.673-1.375-1.01-3.087-1.01-5.136c0-3.13,1.005-5.577,3.016-7.341s5.027-2.855,9.049-3.272v-3.898h5.89v3.841
						c3.775,0.209,7.579,1.138,11.41,2.789l-3.386,8.11c-3.965-1.783-7.541-2.675-10.728-2.675c-1.518,0-2.585,0.185-3.201,0.555
						c-0.616,0.37-0.925,0.915-0.925,1.636c0,0.626,0.223,1.143,0.669,1.551c0.446,0.408,1.219,0.863,2.319,1.366
						c1.1,0.503,2.627,1.086,4.581,1.75c3.965,1.404,6.81,3.002,8.536,4.795c1.726,1.793,2.589,4.102,2.589,6.929
						c0,3.187-1.01,5.776-3.03,7.768c-2.02,1.992-4.965,3.225-8.835,3.699v5.492h-5.89V153.763z"/>
				</g>
			</g>
			<path style="fill:#22689E;" d="M441.336,81.301c-0.554-10.703-8.688-19.405-19.405-19.405c-10.717,0-19.405,8.688-19.405,19.405
				c0,16.032,19.405,35.617,19.405,35.617S442.055,95.177,441.336,81.301z M421.931,89.407c-4.477,0-8.106-3.629-8.106-8.106
				s3.629-8.106,8.106-8.106c4.477,0,8.106,3.629,8.106,8.106S426.408,89.407,421.931,89.407z"/>
			<g>
				<g>
					
						<circle style="fill:none;stroke:#FFA94D;stroke-width:15.8953;stroke-miterlimit:10;stroke-dasharray:8.5097,8.5097;" cx="261.355" cy="109.387" r="21.675"/>
				</g>
				<circle style="fill:none;stroke:#FFA94D;stroke-width:11.5602;stroke-miterlimit:10;" cx="261.355" cy="109.387" r="17.34"/>
			</g>
		</g>
	</g>
	<g>
		<ellipse style="opacity:0.1;fill:#001433;" cx="643.3" cy="463.263" rx="76.229" ry="13.816"/>
		<g>
			<g>
				<g>
					<path style="fill:#000A19;" d="M647.356,60.651c0,0-16.157-7.946-27.546,10.86c-11.389,18.806-12.979,46.882-1.854,51.914
						l-0.795-4.238c0,0,2.119,7.416,17.216,8.741C649.475,129.252,647.356,60.651,647.356,60.651z"/>
					<path style="fill:#FF927D;" d="M657.686,113.36c0,0-9.006,26.752-3.708,28.341c5.297,1.589-22.779-3.708-22.779-3.708
						l3.443-22.779L657.686,113.36z"/>
					<path style="fill:#FFB199;" d="M644.443,69.657c0,0-20.395-3.443-23.308,22.514c-3.507,31.243,23.518,45.762,40.525,19.865
						C673.313,94.289,666.956,72.835,644.443,69.657z"/>
				</g>
				<g>
					<g>
						<path style="fill:#000A19;" d="M623.975,88.132c0,0,0.057-0.233,0.244-0.605c0.089-0.19,0.218-0.406,0.38-0.65
							c0.176-0.228,0.357-0.516,0.625-0.761c0.247-0.27,0.549-0.534,0.901-0.782c0.354-0.238,0.757-0.477,1.211-0.642
							c0.228-0.083,0.465-0.158,0.706-0.232c0.248-0.046,0.503-0.082,0.762-0.112c0.515-0.083,1.049,0.009,1.569,0.058
							c0.491,0.156,1.033,0.228,1.46,0.487c0.439,0.232,0.897,0.435,1.237,0.745c0.352,0.294,0.717,0.555,0.985,0.867
							c0.271,0.311,0.51,0.617,0.724,0.897c0.233,0.265,0.374,0.563,0.511,0.815c0.14,0.249,0.244,0.478,0.331,0.662
							c0.171,0.373,0.249,0.593,0.249,0.593s-0.217-0.113-0.562-0.325c-0.355-0.199-0.791-0.55-1.352-0.885
							c-0.283-0.165-0.582-0.342-0.882-0.542c-0.3-0.201-0.652-0.33-0.977-0.521c-0.321-0.21-0.693-0.288-1.036-0.448
							c-0.344-0.173-0.716-0.186-1.068-0.307c-0.178-0.038-0.359-0.037-0.538-0.062c-0.179-0.021-0.358-0.055-0.536-0.029
							c-0.178,0.012-0.356,0.01-0.535,0.011c-0.175,0.033-0.349,0.064-0.525,0.085c-0.348,0.056-0.688,0.159-1.013,0.262
							c-0.322,0.116-0.641,0.223-0.924,0.361c-0.572,0.262-1.061,0.528-1.401,0.73C624.175,87.999,623.975,88.132,623.975,88.132z"
							/>
					</g>
					<g>
						<path style="fill:#000A19;" d="M643.291,90.006c0,0,0.081-0.245,0.313-0.629c0.229-0.383,0.603-0.916,1.193-1.432
							c0.283-0.274,0.63-0.526,1.021-0.768c0.399-0.217,0.827-0.48,1.321-0.612c0.247-0.073,0.498-0.147,0.753-0.222
							c0.262-0.043,0.53-0.082,0.802-0.108c0.543-0.082,1.1,0.016,1.651,0.051c0.525,0.149,1.087,0.224,1.563,0.462
							c0.243,0.107,0.48,0.222,0.71,0.341c0.237,0.108,0.453,0.237,0.649,0.388c0.404,0.281,0.792,0.56,1.116,0.861
							c0.316,0.31,0.595,0.621,0.846,0.908c0.268,0.27,0.453,0.57,0.616,0.834c0.169,0.257,0.299,0.494,0.409,0.685
							c0.216,0.384,0.317,0.615,0.317,0.615s-0.238-0.113-0.615-0.33c-0.391-0.2-0.869-0.569-1.498-0.898
							c-0.313-0.167-0.645-0.346-0.976-0.556c-0.345-0.187-0.734-0.319-1.095-0.52c-0.357-0.223-0.787-0.263-1.168-0.44
							c-0.392-0.156-0.808-0.188-1.208-0.305c-0.407-0.023-0.815-0.119-1.218-0.09c-0.201,0.011-0.403,0.01-0.605,0.004
							c-0.2,0.028-0.397,0.055-0.591,0.083c-0.39,0.054-0.768,0.16-1.134,0.25c-0.353,0.127-0.709,0.223-1.022,0.363
							c-0.637,0.256-1.173,0.527-1.548,0.73C643.509,89.869,643.291,90.006,643.291,90.006z"/>
					</g>
					<path style="fill:#000A19;" d="M629.016,93.654c-0.233,1.847-0.959,3.276-1.622,3.192c-0.663-0.083-1.012-1.648-0.779-3.495
						c0.233-1.847,0.959-3.276,1.622-3.192C628.899,90.242,629.248,91.807,629.016,93.654z"/>
					<path style="fill:#000A19;" d="M646.413,96.171c-0.233,1.847-0.959,3.276-1.622,3.192c-0.663-0.084-1.012-1.648-0.779-3.495
						c0.233-1.847,0.959-3.276,1.622-3.193C646.297,92.759,646.646,94.324,646.413,96.171z"/>
					<g>
						<path style="fill:#DB6363;" d="M633.985,97.49c0.257,0.59,0.289,1.263,0.161,1.912c-0.121,0.654-0.419,1.305-0.874,1.837
							c-0.452,0.528-1.021,0.976-1.646,1.252c-0.305,0.166-0.63,0.242-0.949,0.351c-0.32,0.085-0.647,0.123-0.968,0.181l0.612-1.596
							c0.405,0.592,0.781,1.207,1.105,1.865c0.32,0.66,0.616,1.34,0.802,2.107c-0.708-0.35-1.305-0.789-1.879-1.246
							c-0.57-0.461-1.087-0.963-1.576-1.488l-1.048-1.128l1.66-0.468l0.722-0.204c0.22-0.097,0.467-0.146,0.675-0.25
							c0.215-0.096,0.435-0.179,0.628-0.303c0.108-0.047,0.208-0.104,0.299-0.173c0.091-0.069,0.203-0.116,0.291-0.191
							c0.186-0.139,0.372-0.285,0.548-0.454c0.171-0.171,0.353-0.35,0.518-0.555c0.155-0.207,0.329-0.424,0.474-0.667
							C633.693,98.031,633.844,97.775,633.985,97.49z"/>
					</g>
					<g>
						<path style="fill:#DB6363;" d="M630.814,110.191c0,0,0.262,0.056,0.705,0.182c0.219,0.066,0.489,0.141,0.787,0.248
							c0.299,0.102,0.64,0.232,1.001,0.293c0.363,0.078,0.747,0.159,1.135,0.271c0.376,0.136,0.838,0.127,1.271,0.22
							c0.442,0.062,0.889,0.177,1.356,0.164c0.464,0.012,0.931,0.048,1.399,0.08c0.467-0.036,0.933-0.073,1.396-0.086
							c0.467,0.01,0.909-0.112,1.35-0.175c0.432-0.095,0.884-0.091,1.271-0.239c0.394-0.123,0.781-0.216,1.145-0.301
							c0.37-0.072,0.682-0.208,0.971-0.311c0.285-0.11,0.548-0.191,0.764-0.262c0.436-0.138,0.704-0.206,0.704-0.206
							s-0.164,0.202-0.484,0.538c-0.162,0.165-0.358,0.372-0.599,0.592c-0.239,0.223-0.502,0.497-0.856,0.683
							c-0.339,0.214-0.714,0.446-1.126,0.667c-0.397,0.259-0.875,0.389-1.362,0.548c-0.492,0.133-0.988,0.373-1.533,0.392
							c-0.537,0.068-1.087,0.114-1.636,0.161c-0.548-0.044-1.098-0.091-1.634-0.156c-0.544-0.021-1.04-0.247-1.532-0.379
							c-0.488-0.156-0.958-0.278-1.374-0.531c-0.424-0.216-0.807-0.446-1.153-0.655c-0.366-0.187-0.618-0.435-0.855-0.648
							c-0.239-0.206-0.437-0.404-0.603-0.563C630.992,110.392,630.814,110.191,630.814,110.191z"/>
					</g>
				</g>
			</g>
			<g>
				<g>
					<g>
						<g>
							<path style="fill:#FFB199;" d="M645.297,382.529c0,0,22.635,62.856,26.538,70.084c2.93,5.427,31.017,18.937,7.317-2.139
								c0,0-5.281-62.322-12.667-82.457C659.1,347.882,645.297,382.529,645.297,382.529z"/>
							<path style="fill:#FF927D;" d="M678.123,439.538c-1.88-18.799-6.185-56.654-11.638-71.52
								c-7.386-20.135-21.188,14.511-21.188,14.511s15.325,42.556,22.929,61.661C671.536,442.665,674.83,441.102,678.123,439.538z"
								/>
						</g>
						<path style="fill:#001433;" d="M670.267,450.406l0.927,4.9c0,0,40.613,23.309,9.888-3.178
							C681.083,452.128,687.219,459.235,670.267,450.406z"/>
					</g>
					<g>
						<path style="fill:#FF927D;" d="M624.931,363.485c0,0-0.353,87.937-2.825,90.409s-29.842,15.716-9.182-3.62
							c0,0-17.305-75.841-15.539-88.555C599.15,349.005,624.931,363.485,624.931,363.485z"/>
						<path style="fill:#001433;" d="M623.121,449.214l-0.265,4.768c0,0-41.438,23.485-10.714-3.002
							C612.142,450.98,606.169,458.043,623.121,449.214z"/>
					</g>
				</g>
				<g>
					<path style="fill:#001433;" d="M618.574,191.497c0,0-31.784,26.84-37.435,62.862c-5.651,36.022,21.189,179.405,21.189,179.405
						s7.063,5.651,25.427,2.119l3.532-156.802c0,0,1.511,63.961,5.651,80.52c9.289,37.158,8.431,30.114,22.602,76.989
						c0,0,12.007,4.238,26.134-3.532c0,0-8.476-55.799-17.658-84.758c0,0,33.197-90.409-9.888-144.795
						C615.042,149.117,618.574,191.497,618.574,191.497z"/>
					<g>
						<path style="fill:#000A19;" d="M618.432,275.676c-10.655-3.78-20.477-9.08-28.431-17.226c-2.812-2.88-5.405-5.94-7.896-9.083
							c-0.373,1.644-0.703,3.306-0.967,4.992c-5.651,36.022,21.189,179.405,21.189,179.405s7.063,5.651,25.427,2.119l3.523-156.429
							C626.93,278.375,622.626,277.164,618.432,275.676z"/>
						<path style="fill:#000A19;" d="M604.412,206.361c4.314,2.719,9.034,4.84,14.601,6.016c9.004,1.903,18.492,2.302,27.668,1.944
							c5.188-0.203,11.448-0.665,17.694-1.837c-1.876-3.071-3.944-6.073-6.248-8.98c-43.085-54.386-39.554-12.007-39.554-12.007
							S612.062,197.006,604.412,206.361z"/>
					</g>
				</g>
			</g>
			<g>
				<g>
					<g>
						<path style="fill:#FFB199;" d="M552.18,125.809c0,0-6.479-22.984-0.089-18.225c0,0,0-5.982,2.561-2.258
							c0,0,2.472-6.357,3.885-1.413c0,0-3.178-34.963,4.238,0.706c7.416,35.669,7.416,35.669,7.416,35.669L552.18,125.809z"/>
						<path style="fill:#FF927D;" d="M550.738,120.028c0.723,3.226,1.442,5.781,1.442,5.781l18.011,14.48
							c0,0-0.003-0.016-5.093-24.494C560.289,117.132,555.484,118.487,550.738,120.028z"/>
					</g>
					<g>
						<path style="fill:#FFA94D;" d="M629.875,133.225c0,0-16.598-6.71-22.955-2.825c-6.357,3.885-29.665,29.665-29.665,29.665
							l-10.595-42.732l-16.598,6.004c0,0,7.769,63.215,17.305,66.394c9.535,3.178,43.085-28.253,43.085-28.253L629.875,133.225z"/>
						<path style="fill:#ED863A;" d="M605.446,156.029c-2.645-5.554-5.641-11.274-8.089-17.161
							c-8.975,8.889-20.103,21.196-20.103,21.196l-10.595-42.732l-16.598,6.004c0,0,7.769,63.215,17.305,66.394
							c8.301,2.767,34.793-20.688,41.515-26.808C607.697,160.642,606.548,158.344,605.446,156.029z"/>
					</g>
				</g>
				<g>
					<path style="fill:#FFA94D;" d="M628.109,132.519l0.706-7.063l30.018,2.825l-2.119,8.123c0,0,15.539-0.353,22.955,6.71
						c7.416,7.063-15.186,62.862-15.186,62.862s-30.372,2.119-61.096-12.361c0,0-7.063-25.427-3.178-34.963
						c3.885-9.535,15.539-28.606,15.539-28.606L628.109,132.519z"/>
					<path style="fill:#ED863A;" d="M646.801,177.285c-15.741,4.144-31.96,3.967-46.964-0.844
						c1.252,8.886,3.552,17.174,3.552,17.174c30.725,14.479,61.096,12.361,61.096,12.361s14.85-36.672,16.517-54.315
						C675.185,164.696,659.87,173.845,646.801,177.285z"/>
				</g>
				<g>
					<path style="fill:#FFB199;" d="M680.73,202.798l-14.479,7.769c0,0-7.063-6.71-9.888-6.357
						c-2.825,0.353-20.13,3.885-0.353,3.178c0,0-27.193,13.42,2.119,3.178c0,0-21.19,14.48,2.119,3.178c0,0,3.178,8.476,8.123,6.357
						c4.944-2.119,19.777-9.888,19.777-9.888L680.73,202.798z"/>
					<path style="fill:#FFA94D;" d="M656.715,136.404c0,0,18.011-4.238,29.312,8.123c11.301,12.361,34.963,39.201,31.078,49.089
						c-3.885,9.889-42.732,28.253-42.732,28.253l-8.476-12.714l25.074-21.896C690.971,187.259,644.001,156.534,656.715,136.404z"/>
				</g>
			</g>
			<path style="fill:#001433;" d="M636.232,67.008c0,0-10.595,20.395,16.952,28.871c0,0-8.211-6.357-10.33-13.243
				c0,0,7.416,11.389,16.157,14.038c0,0-1.854,23.044-8.211,34.168c0,0,14.833,2.649,19.071-16.422c0,0,0.265,7.151-2.914,11.654
				c0,0,14.038,0,13.773-34.168S648.945,48.467,636.232,67.008z"/>
		</g>
	</g>
	<g>
		<ellipse style="opacity:0.1;fill:#352C38;" cx="131.309" cy="463.269" rx="84.728" ry="14.865"/>
		<g>
			<g>
				<g>
					<g>
						<path style="fill:#DD938A;" d="M109.209,84.239c0,0,2.215,24.65,1.238,26.605c-0.977,1.954-30.051,9.528-30.051,9.528
							s51.551,21.5,67.921,13.193c16.369-8.307,10.75-19.79,8.307-19.546s-22.966-1.466-22.966-1.466l0.489-13.682L109.209,84.239z"
							/>
						<path style="fill:#FFAC9D;" d="M110.439,91.96c0,0-14.492-26.694,3.764-44.307c18.257-17.613,35.285-2.977,36.775,10.01
							c1.49,12.987,7.53,51.814-15.493,50.373C112.464,106.594,110.439,91.96,110.439,91.96z"/>
					</g>
					<g>
						<g>
							<path style="fill:#001433;" d="M161.304,31.501l-2.778,4.676c0,0-1.005-6.894-5.68-9.672c0,0,0.898,7.649-7.031,6.414
								c-7.929-1.234-22.878-11.593-34.519,3.347c-1.45,1.861-2.692,3.605-3.757,5.234c-2.583-0.78-6.517-0.737-10.024,4.388
								c-3.533,5.162-7.708,26.452,13.246,49.217l-1.551-10.867c0,0-2.851,1.298-5.131-3.162c-3.95-7.728-0.204-11.192,2.896-9.55
								c3.099,1.642,2.984,9.054,2.984,9.054l4.182-0.564l-0.504-13.493c5.842-3.454,4.03-12.395,4.03-12.395
								s15.649,2.118,30.488,1.01C169.98,53.51,161.304,31.501,161.304,31.501z"/>
						</g>
						<path style="fill:#FFAC9D;" d="M110.09,89.663c0,0-7.456-0.64-8.114-10.947c-0.658-10.307,5.887-10.436,7.276-3.998
							C110.641,81.157,110.09,89.663,110.09,89.663z"/>
					</g>
				</g>
				<g>
					<g>
						<path style="fill:#DB6363;" d="M139.648,70.124c0.595,1.38,1.079,2.783,1.522,4.194c0.442,1.412,0.831,2.834,1.188,4.264
							c0.719,2.858,1.276,5.75,1.698,8.67l0.143,0.99l-0.894-0.021c-1.089-0.025-2.179-0.068-3.271-0.145
							c-1.092-0.088-2.184-0.176-3.281-0.361c1.075-0.285,2.155-0.472,3.234-0.66c1.08-0.176,2.162-0.319,3.244-0.443l-0.751,0.969
							c-0.785-2.844-1.434-5.717-1.922-8.623c-0.247-1.453-0.46-2.912-0.622-4.382C139.776,73.105,139.657,71.626,139.648,70.124z"
							/>
					</g>
					<g>
						<path style="fill:#DB6363;" d="M124.7,88.692c0,0,0.249,0.224,0.699,0.579c0.442,0.363,1.087,0.855,1.869,1.404
							c0.393,0.273,0.822,0.555,1.283,0.838c0.445,0.306,0.969,0.536,1.464,0.84c0.524,0.251,1.061,0.518,1.621,0.741
							c0.561,0.223,1.127,0.457,1.724,0.59c0.576,0.207,1.175,0.315,1.767,0.416c0.587,0.137,1.18,0.143,1.753,0.208
							c0.287,0.044,0.57,0.034,0.848,0.025c0.28-0.002,0.554-0.004,0.821-0.006c0.539,0.021,1.04-0.073,1.514-0.115
							c0.466-0.073,0.923-0.053,1.299-0.159c0.381-0.085,0.722-0.142,1.005-0.193c0.566-0.098,0.904-0.141,0.904-0.141
							s-0.273,0.182-0.776,0.478c-0.252,0.146-0.56,0.328-0.924,0.518c-0.353,0.222-0.801,0.335-1.277,0.512
							c-0.48,0.161-0.999,0.38-1.584,0.444c-0.579,0.075-1.191,0.268-1.839,0.234c-0.643-0.02-1.325,0.076-1.995-0.072
							c-0.677-0.092-1.364-0.195-2.025-0.409c-0.673-0.177-1.304-0.459-1.926-0.731c-0.626-0.262-1.176-0.65-1.727-0.972
							c-0.522-0.371-1.029-0.725-1.454-1.126c-0.449-0.371-0.828-0.77-1.166-1.146c-0.681-0.746-1.155-1.441-1.452-1.946
							C124.824,89.004,124.7,88.692,124.7,88.692z"/>
					</g>
					<g>
						<path style="fill:#DB6363;" d="M108.412,86.412c-0.471-0.123-0.929-0.301-1.363-0.549c-0.215-0.129-0.431-0.262-0.637-0.438
							c-0.107-0.079-0.201-0.18-0.296-0.293c-0.098-0.101-0.189-0.224-0.266-0.376c-0.089-0.131-0.149-0.309-0.185-0.509
							c-0.062-0.184-0.012-0.415,0.031-0.628c0.052-0.21,0.177-0.367,0.286-0.545c0.117-0.154,0.244-0.243,0.375-0.364
							c0.136-0.128,0.257-0.182,0.385-0.26c0.127-0.07,0.258-0.153,0.389-0.209l0.758-0.268l-0.673,0.746l0.04-1.345l0.024-1.353
							c0.013-0.899-0.004-1.791-0.049-2.663c-0.029-0.437-0.088-0.86-0.146-1.278c-0.031-0.21-0.079-0.409-0.131-0.607
							c-0.059-0.193-0.11-0.385-0.184-0.567c-0.077-0.176-0.169-0.339-0.277-0.49c-0.11-0.145-0.238-0.284-0.401-0.387
							c-0.322-0.215-0.775-0.315-1.264-0.322c0.21-0.111,0.432-0.243,0.687-0.295c0.249-0.059,0.528-0.087,0.807-0.033
							c0.28,0.048,0.55,0.163,0.801,0.314c0.24,0.162,0.446,0.36,0.632,0.571c0.172,0.215,0.34,0.436,0.463,0.674
							c0.123,0.235,0.238,0.474,0.331,0.715c0.199,0.48,0.329,0.974,0.423,1.463c0.21,0.979,0.263,1.959,0.261,2.927
							c-0.02,0.974-0.093,1.918-0.278,2.894l-0.119,0.631l-0.554,0.115l-0.588,0.122c-0.15,0.06-0.367,0.093-0.474,0.155
							c-0.047,0.029-0.133,0.054-0.164,0.078c-0.007,0.021-0.069,0.032-0.076,0.047c0.01,0.015-0.058,0.009-0.047,0.058
							c-0.013,0.034-0.034,0.086-0.007,0.162c0.004,0.069,0.026,0.149,0.071,0.234c0.031,0.085,0.076,0.171,0.132,0.26
							c0.094,0.183,0.226,0.363,0.362,0.541C107.77,85.699,108.081,86.056,108.412,86.412z"/>
					</g>
					<g>
						<path style="fill:#000A19;" d="M140.336,68.169c0,0-0.012-0.249,0.07-0.663c0.07-0.419,0.248-0.986,0.569-1.64
							c0.186-0.308,0.369-0.664,0.652-0.986c0.258-0.34,0.588-0.663,0.969-0.968c0.174-0.17,0.407-0.285,0.627-0.421
							c0.226-0.129,0.442-0.279,0.71-0.355c0.258-0.09,0.52-0.188,0.788-0.262c0.276-0.051,0.563-0.075,0.846-0.105
							c0.286-0.037,0.568-0.02,0.846,0.027c0.28,0.031,0.556,0.087,0.826,0.137c0.497,0.188,1.005,0.377,1.414,0.638
							c0.392,0.281,0.762,0.564,1.076,0.851c0.276,0.321,0.521,0.631,0.733,0.922c0.225,0.28,0.364,0.582,0.479,0.85
							c0.126,0.259,0.21,0.502,0.282,0.696c0.141,0.39,0.188,0.628,0.188,0.628s-0.247-0.077-0.62-0.236
							c-0.185-0.081-0.413-0.172-0.645-0.296c-0.236-0.122-0.501-0.253-0.797-0.358c-0.288-0.117-0.586-0.248-0.883-0.395
							c-0.312-0.103-0.63-0.191-0.935-0.316c-0.311-0.096-0.623-0.109-0.919-0.21c-0.15,0-0.298,0.005-0.443-0.015
							c-0.146-0.028-0.292-0.031-0.435,0.003l-0.435,0.026c-0.143,0.047-0.291,0.069-0.439,0.099
							c-0.294,0.07-0.596,0.178-0.898,0.295c-0.299,0.131-0.605,0.257-0.891,0.422c-0.302,0.135-0.565,0.324-0.843,0.464
							c-0.253,0.169-0.524,0.303-0.742,0.45c-0.23,0.145-0.431,0.271-0.596,0.375C140.537,68.045,140.336,68.169,140.336,68.169z"/>
					</g>
					<g>
						<path style="fill:#000A19;" d="M135.45,68.169c0,0-0.276-0.169-0.76-0.466c-0.234-0.142-0.519-0.314-0.845-0.512
							c-0.318-0.198-0.699-0.389-1.08-0.619c-0.406-0.198-0.807-0.458-1.265-0.655c-0.221-0.108-0.448-0.218-0.679-0.331
							c-0.241-0.088-0.475-0.193-0.716-0.293c-0.476-0.209-0.987-0.335-1.482-0.503c-0.512-0.085-1.011-0.27-1.526-0.271
							c-0.255-0.018-0.509-0.088-0.764-0.074c-0.254,0.021-0.507,0.02-0.76,0.024c-0.511-0.031-0.996,0.157-1.498,0.191
							c-0.492,0.091-0.954,0.288-1.426,0.399c-0.475,0.112-0.877,0.368-1.296,0.514c-0.412,0.165-0.817,0.299-1.133,0.493
							c-0.324,0.18-0.631,0.319-0.882,0.44c-0.506,0.239-0.829,0.36-0.829,0.36s0.135-0.295,0.43-0.786
							c0.149-0.244,0.328-0.548,0.562-0.876c0.211-0.352,0.523-0.681,0.885-1.029c0.373-0.333,0.733-0.769,1.24-1.073
							c0.508-0.298,1.029-0.674,1.645-0.916c0.312-0.115,0.637-0.217,0.968-0.322l0.5-0.156c0.172-0.035,0.35-0.045,0.526-0.068
							c0.354-0.038,0.714-0.082,1.075-0.103c0.361-0.021,0.721,0.044,1.082,0.068c0.732,0.043,1.41,0.278,2.081,0.484
							c0.333,0.108,0.631,0.279,0.937,0.422c0.305,0.146,0.605,0.289,0.864,0.484c0.267,0.181,0.532,0.353,0.779,0.536
							c0.239,0.193,0.463,0.39,0.677,0.585c0.442,0.374,0.779,0.806,1.108,1.175c0.607,0.792,1.023,1.499,1.256,2.03
							C135.372,67.844,135.45,68.169,135.45,68.169z"/>
					</g>
					<path style="fill:#000A19;" d="M125.583,74.063c-0.047,1.861-0.627,3.355-1.295,3.339c-0.668-0.017-1.171-1.539-1.124-3.4
						c0.047-1.861,0.627-3.355,1.295-3.339C125.127,70.681,125.63,72.203,125.583,74.063z"/>
					<path style="fill:#000A19;" d="M146.106,74.063c-0.047,1.861-0.627,3.355-1.295,3.339c-0.668-0.017-1.171-1.539-1.124-3.4
						c0.047-1.861,0.627-3.355,1.295-3.339C145.65,70.681,146.153,72.203,146.106,74.063z"/>
				</g>
			</g>
			<g>
				<g>
					<g>
						<g>
							<path style="fill:#22689E;" d="M152.694,434.552l1.213,26.75c0,0,70.668,20.025,14.734-7.414l-0.523-35.979L152.694,434.552z
								"/>
							<path style="opacity:0.3;fill:#161826;" d="M159.053,454.137c-1.786-0.007-3.485-0.055-5.489-0.399l-0.87-19.187
								l15.424-16.643l0.504,34.668C165.534,453.737,162.333,454.151,159.053,454.137z"/>
						</g>
						<g>
							<g>
								<path style="fill:#FFFFFF;" d="M189.655,466.19c6.488,7.255-35.807-4.602-35.807-4.602l-0.066-1.543
									C157.154,460.984,187.654,469.369,189.655,466.19z"/>
							</g>
							<g>
								<path style="fill:none;stroke:#FFFFFF;stroke-width:1.0038;stroke-linecap:round;stroke-miterlimit:10;" d="
									M169.734,453.774c0,0-3.54-0.08-5.116,2.156"/>
								<path style="fill:none;stroke:#FFFFFF;stroke-width:1.0038;stroke-linecap:round;stroke-miterlimit:10;" d="
									M172.585,455.469c0,0-3.54-0.08-5.116,2.156"/>
								<path style="fill:none;stroke:#FFFFFF;stroke-width:1.0038;stroke-linecap:round;stroke-miterlimit:10;" d="
									M175.788,457.243c0,0-3.54-0.08-5.116,2.156"/>
							</g>
						</g>
					</g>
					<g>
						<g>
							<path style="fill:#22689E;" d="M108.035,433.538l-2.69,26.647c0,0-71.672,16.266-14.303-8.181l2.512-35.899L108.035,433.538z
								"/>
							<path style="opacity:0.3;fill:#161826;" d="M100.602,452.759c1.784,0.087,3.483,0.129,5.503-0.108l1.93-19.113
								l-14.482-17.433l-2.42,34.59C94.153,452.018,97.326,452.6,100.602,452.759z"/>
						</g>
						<g>
							<g>
								<path style="fill:#FFFFFF;" d="M69.378,463.18c-6.88,6.902,36.009-2.705,36.009-2.705l0.151-1.537
									C102.121,459.696,71.201,466.46,69.378,463.18z"/>
							</g>
							<g>
								<path style="fill:none;stroke:#FFFFFF;stroke-width:1.0038;stroke-linecap:round;stroke-miterlimit:10;" d="M89.957,451.832
									c0,0,3.539,0.107,4.99,2.423"/>
								<path style="fill:none;stroke:#FFFFFF;stroke-width:1.0038;stroke-linecap:round;stroke-miterlimit:10;" d="M87.017,453.375
									c0,0,3.54,0.107,4.99,2.423"/>
								<path style="fill:none;stroke:#FFFFFF;stroke-width:1.0038;stroke-linecap:round;stroke-miterlimit:10;" d="M83.72,454.978
									c0,0,3.539,0.107,4.99,2.423"/>
							</g>
						</g>
					</g>
				</g>
				<g>
					<path style="fill:#FFA94D;" d="M165.988,219.177c0,0,11.056,127.736,5.349,230.695c0,0-14.597,4.762-19.089,0.783
						c-3.266-24.537-2.694-71.898-7.629-107.418c-4.646-33.444-9.819-72.994-9.819-72.994l-2.881,0.4
						c0,0-20.215,166.628-23.181,178.775c-15.218,3.459-20.297-3.11-20.297-3.11s5.967-195.909,11.079-228.294
						C106.219,175.582,165.988,219.177,165.988,219.177z"/>
					<g>
						<path style="fill:#ED863A;" d="M135.324,268.432c11.398,1.897,22.855,3.352,34.325,4.706
							c-1.8-32.46-3.661-53.961-3.661-53.961s-59.769-43.595-66.468-1.164c-1.129,7.149-2.299,22.271-3.438,41.492
							C108.953,263.523,122.279,266.262,135.324,268.432z"/>
						<path style="fill:#ED863A;" d="M168.966,261.341c2.792,46.172,6.034,122.453,2.372,188.532c0,0-14.597,4.762-19.089,0.783
							c-3.266-24.537-2.694-71.898-7.629-107.418c-4.344-31.264-9.147-67.862-9.755-72.499
							C146.782,269.312,158.348,266.513,168.966,261.341z"/>
					</g>
				</g>
			</g>
			<g>
				<g>
					<g>
						<g>
							<g>
								<path style="fill:#22689E;" d="M106.783,111.577c0,0,5.159,15.067,21.256,14.659c13.651-0.346,13.926-13.682,13.926-13.682
									s22.373,0.616,25.735,8.144c3.362,7.528-4.994,22.121-4.994,22.121s9.631,86.048,9.229,104.6c0,0-49.169,7.492-75.902,1.303
									c0,0-5.528-95.656-13.193-127.128L106.783,111.577z"/>
							</g>
						</g>
					</g>
					<g>
						<g>
							<path style="fill:#001433;" d="M145.874,112.065c0,0,30.621,0.814,34.531,11.239c3.909,10.424,43,93.167,43,93.167
								l-24.758-0.652l-28.667-46.909L145.874,112.065z"/>
							<path style="fill:#000A19;" d="M183.9,131.484c-6.357,7.918-13.24,15.407-20.055,22.959l6.135,14.468l28.667,46.91
								l24.758,0.652C223.405,216.471,194.472,155.229,183.9,131.484z"/>
						</g>
						<g>
							<g>
								<path style="fill:#001433;" d="M145.874,112.065c0,0,9.284,83.557,6.841,141.217l25.409-2.932
									c0,0-0.489-117.274-5.864-128.512C166.885,110.599,145.874,112.065,145.874,112.065z"/>
								<path style="fill:#000A19;" d="M165.014,205.426c-4.189-1.176-8.365-2.351-12.518-3.578
									c0.673,17.583,0.894,35.498,0.219,51.435l25.409-2.932c0,0-0.077-18.441-0.505-41.393
									C173.415,207.79,169.215,206.605,165.014,205.426z"/>
							</g>
							<g>
								<path style="fill:#001433;" d="M102.222,110.925c0,0,14.985,23.455,23.455,86.001c8.47,62.546,4.561,58.637,4.561,58.637
									l-41.697,1.303l-17.591-132.91L102.222,110.925z"/>
								<path style="fill:#000A19;" d="M125.041,192.398c-16.405-9.789-32.573-19.993-48.975-29.787l12.475,94.255l44.956,6.067
									c0,0,0.65-3.461-7.82-66.007C125.469,195.391,125.256,193.886,125.041,192.398z"/>
							</g>
						</g>
					</g>
				</g>
				<g>
					<g>
						<g>
							<g>
								<path style="fill:#FFFFFF;stroke:#FF8255;stroke-width:2.011;stroke-miterlimit:10;" d="M118.86,352.703
									c0,2.801,2.27,5.071,5.071,5.071h163.543c2.801,0,5.071-2.271,5.071-5.071v-135.91c0-2.801-2.27-5.071-5.071-5.071H123.932
									c-2.801,0-5.071,2.271-5.071,5.071V352.703z"/>
							</g>
							<g>
								<g>
									<path style="fill:#FF8255;" d="M292.546,228.036v-10.558c0-2.801-2.27-5.071-5.071-5.071H123.932
										c-2.801,0-5.071,2.27-5.071,5.071v10.558H292.546z"/>
									<g>
										<circle style="fill:#FFFFFF;" cx="286.292" cy="218.063" r="2.982"/>
										<path style="fill:#FFFFFF;" d="M273.806,218.063c0,1.647,1.335,2.982,2.982,2.982c1.647,0,2.982-1.335,2.982-2.982
											c0-1.647-1.335-2.982-2.982-2.982C275.141,215.081,273.806,216.416,273.806,218.063z"/>
										<circle style="fill:#FFFFFF;" cx="267.284" cy="218.063" r="2.982"/>
									</g>
								</g>
							</g>
						</g>
						<g>
							<g>
								
									<circle style="fill:#FFA94D;stroke:#FFFFFF;stroke-width:2.011;stroke-miterlimit:10;" cx="205.703" cy="289.87" r="51.952"/>
								<path style="fill:#FF8255;stroke:#FFFFFF;stroke-width:2.011;stroke-miterlimit:10;" d="M204.415,288.721l-2.356,0.144
									h-48.283c-0.006,0.336-0.025,0.668-0.025,1.005c0,28.692,23.26,51.952,51.952,51.952c17.369,0,32.737-8.532,42.169-21.625
									L204.415,288.721z"/>
								<path style="fill:#22689E;stroke:#FFFFFF;stroke-width:2.011;stroke-miterlimit:10;" d="M204.271,237.954
									c-28.028,0.761-50.52,23.704-50.52,51.916c0,28.212,22.492,51.155,50.52,51.916V237.954z"/>
							</g>
							<circle style="fill:#FFFFFF;" cx="205.703" cy="289.87" r="22.121"/>
						</g>
					</g>
					<g>
						<g>
							<path style="fill:#FFB199;" d="M123.234,231.007c0,0,29.95-2.416-1.969-2.954c0,0,21.384-8.38-3.382-0.966l-5.237,6.649
								l-7.62-10.258c-2.76,5.199-6.376,10.024-10.245,14.704c7.938,6.32,14.775,10.89,16.888,10.214
								c5.574-1.784,11.621-9.214,11.621-9.214s27.795,10.05,0.037-3.084C123.327,236.098,158.089,243.919,123.234,231.007z"/>
							<path style="fill:#001433;" d="M102.222,110.925c0,0-31.924,5.864-35.834,12.379c-3.909,6.515-18.894,69.061-13.03,79.485
								c5.864,10.424,46.258,44.955,46.258,44.955l11.727-18.242l-28.667-35.834l9.121-49.516L102.222,110.925z"/>
						</g>
						<g>
							<g>
								<path style="fill:#22689E;" d="M92.612,113.531l0.353,9.263l0.304,9.264c0.18,6.177,0.384,12.353,0.508,18.531l-0.445-0.424
									l14.414-0.472l1.474-0.048l-1.156,0.914l-9.577,7.57l0.053-0.621c3.87,4.351,7.671,8.763,11.504,13.147l5.716,6.605
									l5.682,6.636l-5.93-6.415l-5.896-6.446c-3.908-4.317-7.848-8.605-11.719-12.955l-0.3-0.337l0.353-0.284l9.506-7.658
									l0.317,0.866l-14.417,0.366l-0.437,0.011l-0.008-0.436c-0.12-6.178-0.16-12.357-0.224-18.536l-0.062-9.269L92.612,113.531z"
									/>
							</g>
							<g>
								<path style="fill:#22689E;" d="M156.01,113.231l4.593,16.779l4.499,16.803l0.074,0.277l-0.28,0.069l-10.438,2.576
									l0.082-0.561c3.186,1.832,6.338,3.723,9.506,5.586l0.198,0.116l-0.068,0.217l-5.308,16.916
									c-1.767,5.64-3.604,11.257-5.411,16.885c1.675-5.668,3.319-11.345,5.033-17.001l5.136-16.969l0.13,0.333
									c-3.176-1.85-6.368-3.673-9.525-5.554l-0.646-0.385l0.729-0.176l10.45-2.53l-0.206,0.346l-4.32-16.85L156.01,113.231z"/>
							</g>
						</g>
					</g>
				</g>
			</g>
		</g>
	</g>
</g>
</svg>
