<?xml version="1.0" encoding="utf-8"?>
<!-- Generator: Adobe Illustrator 27.5.0, SVG Export Plug-In . SVG Version: 6.00 Build 0)  -->
<svg version="1.1" id="Слой_1" xmlns="http://www.w3.org/2000/svg" xmlns:xlink="http://www.w3.org/1999/xlink" x="0px" y="0px"
	 viewBox="0 0 751.168 500" style="enable-background:new 0 0 751.168 500;" xml:space="preserve">
<g>
	<rect style="fill:#F7F7F7;" width="751.169" height="500"/>
	<g>
		<g>
			<polygon style="fill:#5AB1DC;" points="109.122,275.01 108.637,275.01 108.637,252.167 140.938,252.167 140.938,219.443 
				141.422,219.443 141.422,252.651 109.122,252.651 			"/>
		</g>
		<defs>
			<filter id="Adobe_OpacityMaskFilter" filterUnits="userSpaceOnUse" x="41.398" y="132.566" width="668.371" height="269.489">
				<feFlood  style="flood-color:white;flood-opacity:1" result="back"/>
				<feBlend  in="SourceGraphic" in2="back" mode="normal"/>
			</filter>
		</defs>
		<mask maskUnits="userSpaceOnUse" x="41.398" y="132.566" width="668.371" height="269.489" id="SVGID_1_">
			<g style="filter:url(#Adobe_OpacityMaskFilter);">
				<defs>
					
						<filter id="Adobe_OpacityMaskFilter_00000078037122576350556450000009466529497901640369_" filterUnits="userSpaceOnUse" x="41.398" y="132.566" width="668.371" height="269.489">
						<feFlood  style="flood-color:white;flood-opacity:1" result="back"/>
						<feBlend  in="SourceGraphic" in2="back" mode="normal"/>
					</filter>
				</defs>
				<mask maskUnits="userSpaceOnUse" x="41.398" y="132.566" width="668.371" height="269.489" id="SVGID_1_">
					<g style="filter:url(#Adobe_OpacityMaskFilter_00000078037122576350556450000009466529497901640369_);">
					</g>
				</mask>
				
					<linearGradient id="SVGID_00000044900329988458728160000017012595002072172467_" gradientUnits="userSpaceOnUse" x1="375.584" y1="127.5736" x2="375.584" y2="300.0807">
					<stop  offset="0" style="stop-color:#FFFFFF"/>
					<stop  offset="1" style="stop-color:#000000"/>
				</linearGradient>
				<polygon style="mask:url(#SVGID_1_);fill:url(#SVGID_00000044900329988458728160000017012595002072172467_);" points="
					41.398,289.6 93.482,289.6 93.482,316.048 115.77,316.048 115.77,259.054 137.528,259.054 137.528,279.158 150.145,279.158 
					150.145,221.938 165.127,221.938 165.127,176.585 193.206,176.585 193.206,199.69 220.463,199.69 231.245,210.47 
					242.199,210.47 242.199,154.576 267.376,154.576 267.376,168.987 288.737,168.987 288.737,196.782 317.444,196.782 
					317.444,161.898 340.094,161.898 340.094,176.583 351.877,176.583 362.072,166.388 373.675,166.388 373.675,132.566 
					406.108,132.566 406.108,182.747 439.269,182.747 439.269,194.844 452.119,194.844 452.119,176.585 477.921,176.585 
					477.921,196.782 519.845,196.782 519.845,168.987 548.431,168.987 548.431,254.903 619.652,254.903 619.652,289.6 
					709.769,289.6 709.769,402.056 41.398,402.056 				"/>
			</g>
		</mask>
		
			<linearGradient id="SVGID_00000066474279049541444700000011346831637049617552_" gradientUnits="userSpaceOnUse" x1="375.584" y1="127.5736" x2="375.584" y2="300.0807">
			<stop  offset="0" style="stop-color:#24B6FF"/>
			<stop  offset="1" style="stop-color:#FFFFFF"/>
		</linearGradient>
		<polygon style="fill:url(#SVGID_00000066474279049541444700000011346831637049617552_);" points="41.398,289.6 93.482,289.6 
			93.482,316.048 115.77,316.048 115.77,259.054 137.528,259.054 137.528,279.158 150.145,279.158 150.145,221.938 165.127,221.938 
			165.127,176.585 193.206,176.585 193.206,199.69 220.463,199.69 231.245,210.47 242.199,210.47 242.199,154.576 267.376,154.576 
			267.376,168.987 288.737,168.987 288.737,196.782 317.444,196.782 317.444,161.898 340.094,161.898 340.094,176.583 
			351.877,176.583 362.072,166.388 373.675,166.388 373.675,132.566 406.108,132.566 406.108,182.747 439.269,182.747 
			439.269,194.844 452.119,194.844 452.119,176.585 477.921,176.585 477.921,196.782 519.845,196.782 519.845,168.987 
			548.431,168.987 548.431,254.903 619.652,254.903 619.652,289.6 709.769,289.6 709.769,402.056 41.398,402.056 		"/>
		<g>
			
				<linearGradient id="SVGID_00000109024441202305717500000015737182402614158751_" gradientUnits="userSpaceOnUse" x1="113.71" y1="325.69" x2="138.9243" y2="325.69">
				<stop  offset="0" style="stop-color:#2B9C27"/>
				<stop  offset="1" style="stop-color:#2EB64D"/>
			</linearGradient>
			<path style="fill:url(#SVGID_00000109024441202305717500000015737182402614158751_);" d="M138.368,373.134
				c-5.859-4.12-12.716-32.835-13.126-49.938c-0.21-8.762-2.799-12.411-5.084-15.632c-2.184-3.078-4.07-5.736-2.972-11.84
				c2.1-11.666-3.42-16.701-3.477-16.75l0.639-0.728c0.246,0.214,5.995,5.408,3.791,17.649c-1.026,5.703,0.666,8.089,2.808,11.109
				c2.248,3.168,5.046,7.11,5.263,16.168c0.438,18.354,7.449,45.467,12.713,49.169L138.368,373.134z"/>
		</g>
		<g>
			
				<linearGradient id="SVGID_00000071540764728892085520000016704168247536628358_" gradientUnits="userSpaceOnUse" x1="133.301" y1="346.5036" x2="179.141" y2="346.5036">
				<stop  offset="0" style="stop-color:#2B9C27"/>
				<stop  offset="1" style="stop-color:#2EB64D"/>
			</linearGradient>
			<path style="fill:url(#SVGID_00000071540764728892085520000016704168247536628358_);" d="M140.56,375.263
				c-0.756,0-1.578-0.087-2.477-0.269c-2.259-0.457-3.739-1.648-4.401-3.542c-1.579-4.517,2.08-11.854,5.05-15.392
				c0.049-0.059,5.02-6.134,4.49-14.556c-0.089-1.412-0.235-2.718-0.364-3.871c-0.374-3.332-0.644-5.741,0.788-7.349
				c1.261-1.418,3.697-2.031,8.143-2.053c7.798-0.036,10.881-3.265,13.358-5.859c1.053-1.101,2.046-2.142,3.253-2.8
				c3.886-2.122,8.001-2.435,9.787-0.742c0.848,0.804,1.564,2.378,0.16,5.313c-1.284,2.683-2.949,4.382-4.286,5.746
				c-1.8,1.837-2.989,3.05-2.37,5.468c0.144,0.567,0.313,1.142,0.48,1.716c1.202,4.111,2.564,8.772-4.472,11.934
				c-1.493,0.672-2.854,1.206-4.054,1.677c-4.912,1.927-7.877,3.091-11.224,10.156c-0.648,1.368-1.22,2.664-1.773,3.918
				C148.01,370.739,146.014,375.263,140.56,375.263z M168.864,320.423c-1.075,0.588-1.975,1.529-3.017,2.62
				c-2.603,2.727-5.844,6.12-14.054,6.159c-4.087,0.02-6.378,0.552-7.423,1.728c-1.143,1.285-0.895,3.513-0.549,6.597
				c0.13,1.163,0.278,2.482,0.369,3.918c0.556,8.819-4.499,14.98-4.714,15.239c-2.94,3.5-6.27,10.469-4.878,14.449
				c0.541,1.548,1.779,2.527,3.678,2.911c6.627,1.34,8.456-2.807,11.487-9.677c0.556-1.26,1.131-2.561,1.784-3.94
				c3.512-7.413,6.788-8.698,11.746-10.645c1.19-0.467,2.539-0.997,4.011-1.657c6.267-2.816,5.136-6.684,3.939-10.778
				c-0.172-0.586-0.342-1.17-0.49-1.748c-0.754-2.946,0.733-4.464,2.616-6.385c1.355-1.383,2.89-2.949,4.104-5.487
				c0.636-1.331,1.161-3.137,0.048-4.192C176.055,318.146,172.335,318.528,168.864,320.423L168.864,320.423z"/>
		</g>
		<g>
			
				<linearGradient id="SVGID_00000112629956490227001040000016614023422831802797_" gradientUnits="userSpaceOnUse" x1="137.2197" y1="353.1694" x2="171.6255" y2="353.1694">
				<stop  offset="0" style="stop-color:#2B9C27"/>
				<stop  offset="1" style="stop-color:#2EB64D"/>
			</linearGradient>
			<path style="fill:url(#SVGID_00000112629956490227001040000016614023422831802797_);" d="M138.186,380.856l-0.967-0.051
				c0.047-0.909,1.268-22.338,9.872-28.61c9.44-6.881,12.415-14.275,13.833-19.238c1.67-5.848,10.171-7.411,10.532-7.475
				l0.169,0.954c-0.083,0.015-8.266,1.523-9.769,6.787c-1.456,5.101-4.513,12.699-14.194,19.755
				C139.428,358.981,138.198,380.639,138.186,380.856z"/>
		</g>
		<g>
			
				<linearGradient id="SVGID_00000080913543699413450950000013958377925998991784_" gradientUnits="userSpaceOnUse" x1="95.6296" y1="318.2182" x2="147.2964" y2="318.2182">
				<stop  offset="0" style="stop-color:#2B9C27"/>
				<stop  offset="1" style="stop-color:#2EB64D"/>
			</linearGradient>
			<path style="fill:url(#SVGID_00000080913543699413450950000013958377925998991784_);" d="M138.827,385.9
				c-1.213,0-2.824-0.827-5.038-2.563l-0.094-0.073l-0.049-0.107c-0.118-0.26-11.985-26.065-24.001-33.971
				c-7.268-4.78-3.815-10.292-0.477-15.62c2.661-4.248,5.412-8.641,3.799-13.248c-2.006-5.729-5.006-9.24-7.653-12.339
				c-4.621-5.409-7.959-9.317-1.638-20.483c4.78-8.445,0.171-15.543-3.895-21.805c-2.588-3.983-4.823-7.424-3.964-10.476
				c0.494-1.755,1.972-3.199,4.519-4.417l0,0c0.723-0.346,1.482-0.351,2.257-0.013c3.69,1.607,6.774,10.995,7.109,12.048
				c3.227,4.209,6.93,3.938,10.199,3.698c2.165-0.158,4.033-0.295,5.301,0.968c1.167,1.162,1.594,3.395,1.343,7.025
				c-0.819,11.84,5.522,14.161,11.116,16.209c3.241,1.186,6.303,2.307,7.394,5.181c1.104,2.909,0.003,7.259-3.465,13.691
				c-7.551,14.003-3.617,17.105,0.549,20.391c3.719,2.933,7.564,5.965,3.252,16.341c-4.058,9.768-3.866,20.387-3.726,28.14
				c0.111,6.137,0.184,10.19-1.84,11.198C139.525,385.825,139.194,385.9,138.827,385.9z M134.479,382.647
				c2.397,1.865,4.05,2.593,4.915,2.162c1.476-0.735,1.4-4.963,1.303-10.315c-0.142-7.838-0.336-18.574,3.801-28.527
				c4.03-9.698,0.636-12.375-2.958-15.209c-4.295-3.389-8.738-6.892-0.801-21.612c3.325-6.165,4.409-10.26,3.412-12.887
				c-0.934-2.461-3.662-3.459-6.82-4.615c-5.622-2.058-12.619-4.618-11.75-17.185c0.228-3.284-0.12-5.336-1.061-6.272
				c-0.955-0.95-2.54-0.834-4.546-0.689c-3.358,0.247-7.537,0.553-11.092-4.145l-0.051-0.067l-0.025-0.08
				c-0.031-0.101-3.174-10.039-6.598-11.531c-0.513-0.223-0.987-0.223-1.452-0.001l0,0c-2.281,1.091-3.59,2.335-4.004,3.805
				c-0.74,2.629,1.384,5.9,3.843,9.687c4.009,6.171,8.997,13.852,3.926,22.809c-5.986,10.576-2.996,14.078,1.532,19.377
				c2.703,3.164,5.766,6.749,7.831,12.648c1.767,5.047-1.24,9.848-3.893,14.083c-3.374,5.385-6.287,10.036,0.189,14.296
				C122.152,356.256,133.518,380.56,134.479,382.647z"/>
		</g>
		<g>
			<polygon style="fill:#3DBEFF;" points="116.012,316.29 93.24,316.29 93.24,289.841 41.398,289.841 41.398,289.356 
				93.725,289.356 93.725,315.806 115.527,315.806 115.527,258.812 137.77,258.812 137.77,278.916 149.903,278.916 149.903,221.696 
				164.885,221.696 164.885,176.342 193.449,176.342 193.449,199.447 220.564,199.447 231.345,210.229 241.957,210.229 
				241.957,154.333 267.619,154.333 267.619,168.745 288.979,168.745 288.979,196.54 317.202,196.54 317.202,161.656 
				340.336,161.656 340.336,176.34 351.777,176.34 361.972,166.146 373.433,166.146 373.433,132.324 406.351,132.324 
				406.351,182.505 439.512,182.505 439.512,194.603 451.877,194.603 451.877,176.342 478.163,176.342 478.163,196.54 
				519.603,196.54 519.603,168.745 548.673,168.745 548.673,254.661 619.894,254.661 619.894,289.356 709.769,289.356 
				709.769,289.841 619.41,289.841 619.41,255.147 548.188,255.147 548.188,169.229 520.087,169.229 520.087,197.024 
				477.678,197.024 477.678,176.827 452.361,176.827 452.361,195.087 439.027,195.087 439.027,182.989 405.865,182.989 
				405.865,132.809 373.918,132.809 373.918,166.631 362.173,166.631 351.978,176.825 339.852,176.825 339.852,162.141 
				317.686,162.141 317.686,197.024 288.495,197.024 288.495,169.229 267.134,169.229 267.134,154.817 242.441,154.817 
				242.441,210.713 231.144,210.713 220.363,199.932 192.964,199.932 192.964,176.827 165.369,176.827 165.369,222.18 
				150.388,222.18 150.388,279.401 137.285,279.401 137.285,259.297 116.012,259.297 			"/>
		</g>
		<g>
			
				<linearGradient id="SVGID_00000145037002329025663870000011858315863271984045_" gradientUnits="userSpaceOnUse" x1="449.8936" y1="326.7461" x2="495.1309" y2="326.7461">
				<stop  offset="0" style="stop-color:#2B9C27"/>
				<stop  offset="1" style="stop-color:#2EB64D"/>
			</linearGradient>
			<polygon style="fill:url(#SVGID_00000145037002329025663870000011858315863271984045_);" points="495.131,350.235 
				449.894,350.235 449.894,349.267 494.162,349.267 494.162,303.257 495.131,303.257 			"/>
		</g>
		
			<linearGradient id="SVGID_00000069359602441308726000000012058240432543884975_" gradientUnits="userSpaceOnUse" x1="369.0173" y1="248.43" x2="424.7351" y2="160.2505">
			<stop  offset="0" style="stop-color:#1A2B69"/>
			<stop  offset="1" style="stop-color:#296CC4"/>
		</linearGradient>
		<path style="fill:url(#SVGID_00000069359602441308726000000012058240432543884975_);" d="M516.512,161.523l-26.89-47.349
			l-26.891,47.349h17.046c-59.513,168.463-249.849,149.603-249.849,149.603v29.752h53.053c182.544,0,211.946-145.68,216.305-179.354
			H516.512z"/>
		
			<linearGradient id="SVGID_00000119086863939386835450000012305738699878381997_" gradientUnits="userSpaceOnUse" x1="410.1863" y1="309.1327" x2="516.292" y2="195.2749">
			<stop  offset="0" style="stop-color:#1A2B69"/>
			<stop  offset="1" style="stop-color:#296CC4"/>
		</linearGradient>
		<path style="fill:url(#SVGID_00000119086863939386835450000012305738699878381997_);" d="M548.181,202.675l-19.133-33.688
			l-19.132,33.688h12.128c-42.342,119.859-177.763,106.438-177.763,106.438v21.169h37.747
			c129.877,0,150.796-103.648,153.897-127.607H548.181z"/>
		<g>
			
				<linearGradient id="SVGID_00000001631655653631331640000013330279662380682371_" gradientUnits="userSpaceOnUse" x1="255.793" y1="390.7832" x2="310.8228" y2="390.7832">
				<stop  offset="0" style="stop-color:#FF9340"/>
				<stop  offset="1" style="stop-color:#FFCE45"/>
			</linearGradient>
			
				<rect x="255.793" y="387.443" style="fill:url(#SVGID_00000001631655653631331640000013330279662380682371_);" width="55.03" height="6.68"/>
			
				<linearGradient id="SVGID_00000021836370151472906810000009657178095606998436_" gradientUnits="userSpaceOnUse" x1="257.8008" y1="384.1026" x2="312.8306" y2="384.1026">
				<stop  offset="0" style="stop-color:#F58631"/>
				<stop  offset="1" style="stop-color:#F2C23F"/>
			</linearGradient>
			
				<rect x="257.801" y="380.762" style="fill:url(#SVGID_00000021836370151472906810000009657178095606998436_);" width="55.03" height="6.682"/>
			
				<linearGradient id="SVGID_00000018229050397487057070000004578841670560124077_" gradientUnits="userSpaceOnUse" x1="256.6792" y1="377.4214" x2="311.7085" y2="377.4214">
				<stop  offset="0" style="stop-color:#FF9340"/>
				<stop  offset="1" style="stop-color:#FFCE45"/>
			</linearGradient>
			
				<rect x="256.679" y="374.081" style="fill:url(#SVGID_00000018229050397487057070000004578841670560124077_);" width="55.029" height="6.681"/>
			
				<linearGradient id="SVGID_00000073692260870279804000000010384868867147805591_" gradientUnits="userSpaceOnUse" x1="257.8008" y1="370.7408" x2="312.8306" y2="370.7408">
				<stop  offset="0" style="stop-color:#F58631"/>
				<stop  offset="1" style="stop-color:#F2C23F"/>
			</linearGradient>
			
				<rect x="257.801" y="367.4" style="fill:url(#SVGID_00000073692260870279804000000010384868867147805591_);" width="55.03" height="6.681"/>
			
				<linearGradient id="SVGID_00000078045955797081854050000016259813827092603051_" gradientUnits="userSpaceOnUse" x1="258.7407" y1="364.0601" x2="313.771" y2="364.0601">
				<stop  offset="0" style="stop-color:#FF9340"/>
				<stop  offset="1" style="stop-color:#FFCE45"/>
			</linearGradient>
			
				<rect x="258.741" y="360.72" style="fill:url(#SVGID_00000078045955797081854050000016259813827092603051_);" width="55.03" height="6.681"/>
			
				<linearGradient id="SVGID_00000155124794835821540740000011945196837200662438_" gradientUnits="userSpaceOnUse" x1="260.1519" y1="397.188" x2="315.1812" y2="397.188">
				<stop  offset="0" style="stop-color:#F58631"/>
				<stop  offset="1" style="stop-color:#F2C23F"/>
			</linearGradient>
			
				<rect x="260.152" y="393.848" style="fill:url(#SVGID_00000155124794835821540740000011945196837200662438_);" width="55.029" height="6.681"/>
		</g>
		<g>
			
				<linearGradient id="SVGID_00000113330468171190392610000006654206214049612728_" gradientUnits="userSpaceOnUse" x1="319.5308" y1="397.0201" x2="374.5605" y2="397.0201">
				<stop  offset="0" style="stop-color:#F58631"/>
				<stop  offset="1" style="stop-color:#F2C23F"/>
			</linearGradient>
			
				<rect x="319.531" y="393.68" style="fill:url(#SVGID_00000113330468171190392610000006654206214049612728_);" width="55.03" height="6.681"/>
			
				<linearGradient id="SVGID_00000000213352897182353280000011406143525039320193_" gradientUnits="userSpaceOnUse" x1="318.3076" y1="390.3394" x2="373.3374" y2="390.3394">
				<stop  offset="0" style="stop-color:#FF9340"/>
				<stop  offset="1" style="stop-color:#FFCE45"/>
			</linearGradient>
			
				<rect x="318.308" y="386.999" style="fill:url(#SVGID_00000000213352897182353280000011406143525039320193_);" width="55.03" height="6.681"/>
			
				<linearGradient id="SVGID_00000011736055306795967510000002715060133140570035_" gradientUnits="userSpaceOnUse" x1="320.5542" y1="383.6587" x2="375.584" y2="383.6587">
				<stop  offset="0" style="stop-color:#F58631"/>
				<stop  offset="1" style="stop-color:#F2C23F"/>
			</linearGradient>
			
				<rect x="320.554" y="380.318" style="fill:url(#SVGID_00000011736055306795967510000002715060133140570035_);" width="55.03" height="6.681"/>
			
				<linearGradient id="SVGID_00000160164553342985298100000006783258400577596338_" gradientUnits="userSpaceOnUse" x1="1097.3173" y1="-1113.537" x2="1152.5859" y2="-1113.537" gradientTransform="matrix(0.9754 0.2204 -0.2204 0.9754 -989.5946 1215.464)">
				<stop  offset="0" style="stop-color:#FF9340"/>
				<stop  offset="1" style="stop-color:#FFCE45"/>
			</linearGradient>
			<polygon style="fill:url(#SVGID_00000160164553342985298100000006783258400577596338_);" points="380.534,381.257 325.52,379.94 
				325.679,373.262 380.693,374.578 			"/>
		</g>
		<g>
			
				<linearGradient id="SVGID_00000152247858431228217930000003007141008980026771_" gradientUnits="userSpaceOnUse" x1="330.0894" y1="260.4849" x2="359.7803" y2="260.4849">
				<stop  offset="0" style="stop-color:#2B9C27"/>
				<stop  offset="1" style="stop-color:#2EB64D"/>
			</linearGradient>
			<path style="fill:url(#SVGID_00000152247858431228217930000003007141008980026771_);" d="M331.008,271.335l-0.919-0.306
				c2.178-6.537,6.542-12.261,12.291-16.114c5.154-3.454,11.171-5.28,17.4-5.28v0.969c-6.037,0-11.867,1.769-16.86,5.117
				C337.349,259.455,333.119,265,331.008,271.335z"/>
		</g>
		<g>
			
				<linearGradient id="SVGID_00000024694701475494084320000001108830644252560569_" gradientUnits="userSpaceOnUse" x1="359.7803" y1="296.4449" x2="390.8242" y2="296.4449">
				<stop  offset="0" style="stop-color:#2B9C27"/>
				<stop  offset="1" style="stop-color:#2EB64D"/>
			</linearGradient>
			<path style="fill:url(#SVGID_00000024694701475494084320000001108830644252560569_);" d="M359.78,311.967v-0.484
				c16.851,0,30.56-13.71,30.56-30.56h0.484C390.824,298.041,376.898,311.967,359.78,311.967z"/>
		</g>
		<g>
			
				<linearGradient id="SVGID_00000016788876492935359380000011135852443488735619_" gradientUnits="userSpaceOnUse" x1="359.7803" y1="256.7363" x2="373.4707" y2="256.7363">
				<stop  offset="0" style="stop-color:#2B9C27"/>
				<stop  offset="1" style="stop-color:#2EB64D"/>
			</linearGradient>
			<path style="fill:url(#SVGID_00000016788876492935359380000011135852443488735619_);" d="M372.97,259.054
				c-3.967-2.397-8.528-3.666-13.189-3.666v-0.969c4.838,0,9.572,1.316,13.69,3.806L372.97,259.054z"/>
		</g>
		<g>
			
				<linearGradient id="SVGID_00000008137370570172769920000001647628280726713776_" gradientUnits="userSpaceOnUse" x1="324.3398" y1="261.4077" x2="380.6934" y2="261.4077">
				<stop  offset="0" style="stop-color:#2B9C27"/>
				<stop  offset="1" style="stop-color:#2EB64D"/>
			</linearGradient>
			<path style="fill:url(#SVGID_00000008137370570172769920000001647628280726713776_);" d="M325.305,277.504l-0.965-0.094
				c0.857-8.755,4.925-16.854,11.451-22.807c6.57-5.993,15.09-9.292,23.989-9.292c7.574,0,14.805,2.346,20.913,6.784l-0.57,0.784
				c-5.94-4.318-12.975-6.6-20.343-6.6C341.869,246.28,327.048,259.703,325.305,277.504z"/>
		</g>
		<g>
			<g>
				<g>
					<defs>
						<path id="SVGID_00000044863572597675603230000011352193534786204340_" d="M421.703,322.412H229.444V220.971l0.484-0.002
							h218.084v101.442L421.703,322.412z M230.413,321.442l216.631,0.001v-99.505H230.413V321.442z M245.625,243.557l-0.578-0.777
							c3.715-2.763,6.604-6.479,8.353-10.744l0.897,0.367C252.481,236.832,249.482,240.689,245.625,243.557z"/>
					</defs>
					<clipPath id="SVGID_00000011001508377694958310000016753948884666445472_">
						<use xlink:href="#SVGID_00000044863572597675603230000011352193534786204340_"  style="overflow:visible;"/>
					</clipPath>
					
						<rect x="245.047" y="232.035" style="clip-path:url(#SVGID_00000011001508377694958310000016753948884666445472_);fill:#2B9D29;" width="1.653" height="11.521"/>
					
						<rect x="246.7" y="232.035" style="clip-path:url(#SVGID_00000011001508377694958310000016753948884666445472_);fill:#2B9E2A;" width="5.751" height="11.521"/>
					
						<rect x="252.451" y="232.035" style="clip-path:url(#SVGID_00000011001508377694958310000016753948884666445472_);fill:#2B9F2B;" width="1.846" height="11.521"/>
					
						<rect x="230.413" y="221.938" style="clip-path:url(#SVGID_00000011001508377694958310000016753948884666445472_);fill:#2B9C27;" width="4.783" height="99.505"/>
					
						<rect x="235.196" y="221.938" style="clip-path:url(#SVGID_00000011001508377694958310000016753948884666445472_);fill:#2B9D28;" width="5.751" height="99.505"/>
					
						<rect x="240.947" y="221.938" style="clip-path:url(#SVGID_00000011001508377694958310000016753948884666445472_);fill:#2B9D29;" width="5.752" height="99.505"/>
					
						<rect x="246.7" y="221.938" style="clip-path:url(#SVGID_00000011001508377694958310000016753948884666445472_);fill:#2B9E2A;" width="5.751" height="99.505"/>
					
						<rect x="252.451" y="221.938" style="clip-path:url(#SVGID_00000011001508377694958310000016753948884666445472_);fill:#2B9F2B;" width="5.752" height="99.505"/>
					
						<rect x="258.203" y="221.938" style="clip-path:url(#SVGID_00000011001508377694958310000016753948884666445472_);fill:#2BA02C;" width="5.752" height="99.505"/>
					
						<rect x="263.955" y="221.938" style="clip-path:url(#SVGID_00000011001508377694958310000016753948884666445472_);fill:#2BA02D;" width="5.751" height="99.505"/>
					
						<rect x="269.707" y="221.938" style="clip-path:url(#SVGID_00000011001508377694958310000016753948884666445472_);fill:#2CA12E;" width="5.752" height="99.505"/>
					
						<rect x="275.458" y="221.938" style="clip-path:url(#SVGID_00000011001508377694958310000016753948884666445472_);fill:#2CA22F;" width="5.752" height="99.505"/>
					
						<rect x="281.21" y="221.938" style="clip-path:url(#SVGID_00000011001508377694958310000016753948884666445472_);fill:#2CA230;" width="5.752" height="99.505"/>
					
						<rect x="286.962" y="221.938" style="clip-path:url(#SVGID_00000011001508377694958310000016753948884666445472_);fill:#2CA331;" width="5.752" height="99.505"/>
					
						<rect x="292.714" y="221.938" style="clip-path:url(#SVGID_00000011001508377694958310000016753948884666445472_);fill:#2CA432;" width="5.751" height="99.505"/>
					
						<rect x="298.465" y="221.938" style="clip-path:url(#SVGID_00000011001508377694958310000016753948884666445472_);fill:#2CA433;" width="5.752" height="99.505"/>
					
						<rect x="304.217" y="221.938" style="clip-path:url(#SVGID_00000011001508377694958310000016753948884666445472_);fill:#2CA534;" width="5.752" height="99.505"/>
					
						<rect x="309.969" y="221.938" style="clip-path:url(#SVGID_00000011001508377694958310000016753948884666445472_);fill:#2CA635;" width="5.752" height="99.505"/>
					
						<rect x="315.721" y="221.938" style="clip-path:url(#SVGID_00000011001508377694958310000016753948884666445472_);fill:#2CA736;" width="5.752" height="99.505"/>
					
						<rect x="321.473" y="221.938" style="clip-path:url(#SVGID_00000011001508377694958310000016753948884666445472_);fill:#2CA737;" width="5.752" height="99.505"/>
					
						<rect x="327.225" y="221.938" style="clip-path:url(#SVGID_00000011001508377694958310000016753948884666445472_);fill:#2CA838;" width="5.752" height="99.505"/>
					
						<rect x="332.976" y="221.938" style="clip-path:url(#SVGID_00000011001508377694958310000016753948884666445472_);fill:#2CA939;" width="5.752" height="99.505"/>
					
						<rect x="338.728" y="221.938" style="clip-path:url(#SVGID_00000011001508377694958310000016753948884666445472_);fill:#2DA93B;" width="5.752" height="99.505"/>
					
						<rect x="344.48" y="221.938" style="clip-path:url(#SVGID_00000011001508377694958310000016753948884666445472_);fill:#2DAA3C;" width="5.752" height="99.505"/>
					
						<rect x="350.232" y="221.938" style="clip-path:url(#SVGID_00000011001508377694958310000016753948884666445472_);fill:#2DAB3D;" width="5.751" height="99.505"/>
					
						<rect x="355.983" y="221.938" style="clip-path:url(#SVGID_00000011001508377694958310000016753948884666445472_);fill:#2DAB3E;" width="5.752" height="99.505"/>
					
						<rect x="361.735" y="221.938" style="clip-path:url(#SVGID_00000011001508377694958310000016753948884666445472_);fill:#2DAC3F;" width="5.752" height="99.505"/>
					
						<rect x="367.487" y="221.938" style="clip-path:url(#SVGID_00000011001508377694958310000016753948884666445472_);fill:#2DAD40;" width="5.752" height="99.505"/>
					
						<rect x="373.239" y="221.938" style="clip-path:url(#SVGID_00000011001508377694958310000016753948884666445472_);fill:#2DAE41;" width="5.751" height="99.505"/>
					
						<rect x="378.99" y="221.938" style="clip-path:url(#SVGID_00000011001508377694958310000016753948884666445472_);fill:#2DAE42;" width="5.753" height="99.505"/>
					
						<rect x="384.743" y="221.938" style="clip-path:url(#SVGID_00000011001508377694958310000016753948884666445472_);fill:#2DAF43;" width="5.751" height="99.505"/>
					
						<rect x="390.494" y="221.938" style="clip-path:url(#SVGID_00000011001508377694958310000016753948884666445472_);fill:#2DB044;" width="5.752" height="99.505"/>
					
						<rect x="396.246" y="221.938" style="clip-path:url(#SVGID_00000011001508377694958310000016753948884666445472_);fill:#2DB045;" width="5.752" height="99.505"/>
					
						<rect x="401.998" y="221.938" style="clip-path:url(#SVGID_00000011001508377694958310000016753948884666445472_);fill:#2DB146;" width="5.751" height="99.505"/>
					
						<rect x="407.749" y="221.938" style="clip-path:url(#SVGID_00000011001508377694958310000016753948884666445472_);fill:#2EB247;" width="5.753" height="99.505"/>
					
						<rect x="413.502" y="221.938" style="clip-path:url(#SVGID_00000011001508377694958310000016753948884666445472_);fill:#2EB248;" width="5.751" height="99.505"/>
					
						<rect x="419.253" y="221.938" style="clip-path:url(#SVGID_00000011001508377694958310000016753948884666445472_);fill:#2EB349;" width="5.753" height="99.505"/>
					
						<rect x="425.006" y="221.938" style="clip-path:url(#SVGID_00000011001508377694958310000016753948884666445472_);fill:#2EB44A;" width="5.751" height="99.505"/>
					
						<rect x="430.757" y="221.938" style="clip-path:url(#SVGID_00000011001508377694958310000016753948884666445472_);fill:#2EB54B;" width="5.751" height="99.505"/>
					
						<rect x="436.508" y="221.938" style="clip-path:url(#SVGID_00000011001508377694958310000016753948884666445472_);fill:#2EB54C;" width="5.753" height="99.505"/>
					
						<rect x="442.261" y="221.938" style="clip-path:url(#SVGID_00000011001508377694958310000016753948884666445472_);fill:#2EB64D;" width="4.783" height="99.505"/>
					<path style="clip-path:url(#SVGID_00000011001508377694958310000016753948884666445472_);fill:#2B9C27;" d="M229.444,220.969
						v101.443V220.969z"/>
					
						<rect x="229.444" y="220.969" style="clip-path:url(#SVGID_00000011001508377694958310000016753948884666445472_);fill:#2B9C27;" width="5.752" height="101.443"/>
					
						<rect x="235.196" y="220.969" style="clip-path:url(#SVGID_00000011001508377694958310000016753948884666445472_);fill:#2B9D28;" width="5.751" height="101.443"/>
					
						<rect x="240.947" y="220.969" style="clip-path:url(#SVGID_00000011001508377694958310000016753948884666445472_);fill:#2B9D29;" width="5.752" height="101.443"/>
					
						<rect x="246.7" y="220.969" style="clip-path:url(#SVGID_00000011001508377694958310000016753948884666445472_);fill:#2B9E2A;" width="5.751" height="101.443"/>
					
						<rect x="252.451" y="220.969" style="clip-path:url(#SVGID_00000011001508377694958310000016753948884666445472_);fill:#2B9F2B;" width="5.752" height="101.443"/>
					
						<rect x="258.203" y="220.969" style="clip-path:url(#SVGID_00000011001508377694958310000016753948884666445472_);fill:#2BA02C;" width="5.752" height="101.443"/>
					
						<rect x="263.955" y="220.969" style="clip-path:url(#SVGID_00000011001508377694958310000016753948884666445472_);fill:#2BA02D;" width="5.751" height="101.443"/>
					
						<rect x="269.707" y="220.969" style="clip-path:url(#SVGID_00000011001508377694958310000016753948884666445472_);fill:#2CA12E;" width="5.752" height="101.443"/>
					
						<rect x="275.458" y="220.969" style="clip-path:url(#SVGID_00000011001508377694958310000016753948884666445472_);fill:#2CA22F;" width="5.752" height="101.443"/>
					
						<rect x="281.21" y="220.969" style="clip-path:url(#SVGID_00000011001508377694958310000016753948884666445472_);fill:#2CA230;" width="5.752" height="101.443"/>
					
						<rect x="286.962" y="220.969" style="clip-path:url(#SVGID_00000011001508377694958310000016753948884666445472_);fill:#2CA331;" width="5.752" height="101.443"/>
					
						<rect x="292.714" y="220.969" style="clip-path:url(#SVGID_00000011001508377694958310000016753948884666445472_);fill:#2CA432;" width="5.751" height="101.443"/>
					
						<rect x="298.465" y="220.969" style="clip-path:url(#SVGID_00000011001508377694958310000016753948884666445472_);fill:#2CA433;" width="5.752" height="101.443"/>
					
						<rect x="304.217" y="220.969" style="clip-path:url(#SVGID_00000011001508377694958310000016753948884666445472_);fill:#2CA534;" width="5.752" height="101.443"/>
					
						<rect x="309.969" y="220.969" style="clip-path:url(#SVGID_00000011001508377694958310000016753948884666445472_);fill:#2CA635;" width="5.752" height="101.443"/>
					
						<rect x="315.721" y="220.969" style="clip-path:url(#SVGID_00000011001508377694958310000016753948884666445472_);fill:#2CA736;" width="5.752" height="101.443"/>
					
						<rect x="321.473" y="220.969" style="clip-path:url(#SVGID_00000011001508377694958310000016753948884666445472_);fill:#2CA737;" width="5.752" height="101.443"/>
					
						<rect x="327.225" y="220.969" style="clip-path:url(#SVGID_00000011001508377694958310000016753948884666445472_);fill:#2CA838;" width="5.752" height="101.443"/>
					
						<rect x="332.976" y="220.969" style="clip-path:url(#SVGID_00000011001508377694958310000016753948884666445472_);fill:#2CA939;" width="5.752" height="101.443"/>
					
						<rect x="338.728" y="220.969" style="clip-path:url(#SVGID_00000011001508377694958310000016753948884666445472_);fill:#2DA93B;" width="5.752" height="101.443"/>
					
						<rect x="344.48" y="220.969" style="clip-path:url(#SVGID_00000011001508377694958310000016753948884666445472_);fill:#2DAA3C;" width="5.752" height="101.443"/>
					
						<rect x="350.232" y="220.969" style="clip-path:url(#SVGID_00000011001508377694958310000016753948884666445472_);fill:#2DAB3D;" width="5.751" height="101.443"/>
					
						<rect x="355.983" y="220.969" style="clip-path:url(#SVGID_00000011001508377694958310000016753948884666445472_);fill:#2DAB3E;" width="5.752" height="101.443"/>
					
						<rect x="361.735" y="220.969" style="clip-path:url(#SVGID_00000011001508377694958310000016753948884666445472_);fill:#2DAC3F;" width="5.752" height="101.443"/>
					
						<rect x="367.487" y="220.969" style="clip-path:url(#SVGID_00000011001508377694958310000016753948884666445472_);fill:#2DAD40;" width="5.752" height="101.443"/>
					
						<rect x="373.239" y="220.969" style="clip-path:url(#SVGID_00000011001508377694958310000016753948884666445472_);fill:#2DAE41;" width="5.751" height="101.443"/>
					
						<rect x="378.99" y="220.969" style="clip-path:url(#SVGID_00000011001508377694958310000016753948884666445472_);fill:#2DAE42;" width="5.753" height="101.443"/>
					
						<rect x="384.743" y="220.969" style="clip-path:url(#SVGID_00000011001508377694958310000016753948884666445472_);fill:#2DAF43;" width="5.751" height="101.443"/>
					
						<rect x="390.494" y="220.969" style="clip-path:url(#SVGID_00000011001508377694958310000016753948884666445472_);fill:#2DB044;" width="5.752" height="101.443"/>
					
						<rect x="396.246" y="220.969" style="clip-path:url(#SVGID_00000011001508377694958310000016753948884666445472_);fill:#2DB045;" width="5.752" height="101.443"/>
					
						<rect x="401.998" y="220.969" style="clip-path:url(#SVGID_00000011001508377694958310000016753948884666445472_);fill:#2DB146;" width="5.751" height="101.443"/>
					
						<rect x="407.749" y="220.969" style="clip-path:url(#SVGID_00000011001508377694958310000016753948884666445472_);fill:#2EB247;" width="5.753" height="101.443"/>
					
						<rect x="413.502" y="220.969" style="clip-path:url(#SVGID_00000011001508377694958310000016753948884666445472_);fill:#2EB248;" width="5.751" height="101.443"/>
					
						<rect x="419.253" y="220.969" style="clip-path:url(#SVGID_00000011001508377694958310000016753948884666445472_);fill:#2EB349;" width="5.753" height="101.443"/>
					
						<rect x="425.006" y="220.969" style="clip-path:url(#SVGID_00000011001508377694958310000016753948884666445472_);fill:#2EB44A;" width="5.751" height="101.443"/>
					
						<rect x="430.757" y="220.969" style="clip-path:url(#SVGID_00000011001508377694958310000016753948884666445472_);fill:#2EB54B;" width="5.751" height="101.443"/>
					
						<rect x="436.508" y="220.969" style="clip-path:url(#SVGID_00000011001508377694958310000016753948884666445472_);fill:#2EB54C;" width="5.753" height="101.443"/>
					
						<rect x="442.261" y="220.969" style="clip-path:url(#SVGID_00000011001508377694958310000016753948884666445472_);fill:#2EB64D;" width="5.752" height="101.443"/>
					<path style="clip-path:url(#SVGID_00000011001508377694958310000016753948884666445472_);fill:#2EB64D;" d="M448.013,322.412
						V220.969V322.412z"/>
				</g>
			</g>
		</g>
		<g>
			
				<linearGradient id="SVGID_00000038376750272859012430000010496325226535233685_" gradientUnits="userSpaceOnUse" x1="229.4443" y1="281.1656" x2="490.1064" y2="281.1656">
				<stop  offset="0" style="stop-color:#2B9C27"/>
				<stop  offset="1" style="stop-color:#2EB64D"/>
			</linearGradient>
			<path style="fill:url(#SVGID_00000038376750272859012430000010496325226535233685_);" d="M489.622,341.364H229.444V310.06h0.969
				v30.335h258.724V221.454l-31.518,0.003v-0.487l32.488-0.002v120.395L489.622,341.364z M460.444,331.31H259.902l-0.113-0.327
				c-3.175-9.205-10.631-16.375-19.947-19.177l0.279-0.928c9.502,2.858,17.13,10.12,20.469,19.463h199.136
				c2.93-9.343,10.127-16.826,19.357-20.124v-59.35c-9.452-2.964-17.002-10.298-20.239-19.684l0.917-0.316
				c3.174,9.206,10.632,16.376,19.946,19.178l0.345,0.104v60.758l-0.326,0.112c-9.205,3.175-16.375,10.632-19.179,19.946
				L460.444,331.31z M240.467,291.711h-0.969v-40.769l0.326-0.112c9.205-3.174,16.374-10.63,19.178-19.944l0.103-0.345h149.362
				v0.969H259.824c-2.931,9.341-10.128,16.824-19.357,20.121V291.711z"/>
		</g>
		
			<linearGradient id="SVGID_00000002374750641591664720000006007089238240671924_" gradientUnits="userSpaceOnUse" x1="229.9287" y1="280.9233" x2="489.6221" y2="280.9233">
			<stop  offset="0" style="stop-color:#3DDB6F"/>
			<stop  offset="1" style="stop-color:#84F0B1"/>
		</linearGradient>
		<path style="fill:url(#SVGID_00000002374750641591664720000006007089238240671924_);" d="M489.622,220.969v119.909H229.929v-42.82
			c3.392-0.072,6.744-0.198,10.053-0.373c93.645-4.815,153.753-46.982,176.96-66.662c7.195-6.11,10.844-10.054,10.844-10.054
			H489.622z"/>
		
			<linearGradient id="SVGID_00000031885710615910167580000015837600755395131024_" gradientUnits="userSpaceOnUse" x1="312.0629" y1="285.4756" x2="382.3061" y2="285.4756">
			<stop  offset="0" style="stop-color:#2B9C27"/>
			<stop  offset="1" style="stop-color:#2EB64D"/>
		</linearGradient>
		<path style="fill:url(#SVGID_00000031885710615910167580000015837600755395131024_);" d="M394.901,280.921
			c0,19.399-15.727,35.127-35.126,35.127c-19.084,0-34.612-15.219-35.117-34.183c7.573-2.527,14.739-5.256,21.498-8.104
			c2.563-1.076,5.068-2.171,7.514-3.285l5.175-2.403c0.775-0.373,1.54-0.741,2.301-1.114c0.664-0.32,1.323-0.646,1.977-0.974
			c2.79-1.386,5.494-2.786,8.11-4.191c4.283-2.297,8.329-4.603,12.137-6.89C390.453,261.328,394.901,270.606,394.901,280.921z"/>
		
			<linearGradient id="SVGID_00000161589378797585801970000012237287557122032805_" gradientUnits="userSpaceOnUse" x1="416.2086" y1="280.9219" x2="439.1296" y2="280.9219">
			<stop  offset="0" style="stop-color:#2B9C27"/>
			<stop  offset="1" style="stop-color:#2EB64D"/>
		</linearGradient>
		<path style="fill:url(#SVGID_00000161589378797585801970000012237287557122032805_);" d="M447.527,280.923
			c0,6.329-5.13,11.46-11.46,11.46c-6.33,0-11.461-5.131-11.461-11.46c0-6.331,5.131-11.462,11.461-11.462
			C442.397,269.461,447.527,274.592,447.527,280.923z"/>
		<g>
			
				<linearGradient id="SVGID_00000002383971628363534580000006364296749062246045_" gradientUnits="userSpaceOnUse" x1="273.6724" y1="285.4966" x2="282.8203" y2="285.4966">
				<stop  offset="0" style="stop-color:#2B9C27"/>
				<stop  offset="1" style="stop-color:#2EB64D"/>
			</linearGradient>
			<path style="fill:url(#SVGID_00000002383971628363534580000006364296749062246045_);" d="M282.82,290.07
				c-5.044,0-9.148-4.103-9.148-9.147h0.969c0,4.509,3.669,8.179,8.179,8.179V290.07z"/>
		</g>
		<g>
			
				<linearGradient id="SVGID_00000016774941811672194430000007931346532066589606_" gradientUnits="userSpaceOnUse" x1="282.8203" y1="276.3487" x2="291.9683" y2="276.3487">
				<stop  offset="0" style="stop-color:#2B9C27"/>
				<stop  offset="1" style="stop-color:#2EB64D"/>
			</linearGradient>
			<path style="fill:url(#SVGID_00000016774941811672194430000007931346532066589606_);" d="M291.968,280.923h-0.969
				c0-4.511-3.669-8.18-8.179-8.18v-0.969C287.864,271.774,291.968,275.877,291.968,280.923z"/>
		</g>
		<g>
			
				<linearGradient id="SVGID_00000131351947388685990090000016115722565977386126_" gradientUnits="userSpaceOnUse" x1="270.8745" y1="274.9498" x2="291.8496" y2="274.9498">
				<stop  offset="0" style="stop-color:#2B9C27"/>
				<stop  offset="1" style="stop-color:#2EB64D"/>
			</linearGradient>
			<path style="fill:url(#SVGID_00000131351947388685990090000016115722565977386126_);" d="M271.844,280.923h-0.969
				c0-6.588,5.359-11.946,11.946-11.946c3.466,0,6.757,1.504,9.029,4.125l-0.732,0.635c-2.088-2.409-5.113-3.791-8.297-3.791
				C276.768,269.945,271.844,274.87,271.844,280.923z"/>
		</g>
		<g>
			<path style="fill:#73FC9C;" d="M371.234,261.793c-2.616,1.405-5.32,2.806-8.11,4.191c0.368,0.077,0.727,0.179,1.085,0.291
				c0.988,0.31,1.89,0.659,2.713,1.041c0.819,0.383,1.531,0.756,2.137,1.119c0.6,0.368,1.012,0.679,1.23,0.935l3.338-6.134
				C372.886,262.723,372.091,262.243,371.234,261.793z M374.121,282.428c-0.586-1.221-1.415-2.271-2.49-3.149
				c-1.08-0.877-2.394-1.603-3.944-2.189c-1.55-0.581-3.275-1.129-5.174-1.644l-1.366-0.328v-8.159
				c-0.761,0.373-1.526,0.741-2.301,1.114v6.391c-1.754-0.514-3.057-1.085-3.915-1.725c-0.722-0.538-1.144-1.294-1.26-2.263
				c-2.446,1.114-4.951,2.209-7.514,3.285c0.102,0.436,0.237,0.843,0.397,1.22c0.455,1.076,1.139,2.025,2.054,2.85
				c0.911,0.819,2.049,1.531,3.421,2.131c1.366,0.607,2.984,1.164,4.845,1.673c0.329,0.11,0.659,0.208,0.988,0.3
				c0.325,0.093,0.654,0.174,0.984,0.247v9.419c-1.313-0.146-2.583-0.422-3.803-0.823c-1.227-0.397-2.34-0.829-3.343-1.284
				c-1.003-0.456-1.861-0.921-2.573-1.396c-0.712-0.475-1.216-0.857-1.507-1.153l-3.338,6.517c1.972,1.391,4.167,2.511,6.599,3.367
				c2.427,0.857,4.917,1.376,7.471,1.561v6.08h3.285v-6.022c1.788-0.077,3.498-0.339,5.121-0.794
				c1.624-0.456,3.047-1.144,4.269-2.055c1.226-0.911,2.195-2.083,2.902-3.503c0.712-1.424,1.07-3.139,1.07-5.15
				C374.998,285.156,374.703,283.648,374.121,282.428z M361.147,291.711v-8.817c1.822,0.585,3.246,1.225,4.268,1.918
				c1.022,0.692,1.536,1.657,1.536,2.902C366.951,290.268,365.013,291.6,361.147,291.711z"/>
		</g>
		
			<linearGradient id="SVGID_00000183229641155651483420000015345912880312914309_" gradientUnits="userSpaceOnUse" x1="229.9287" y1="280.9233" x2="489.6221" y2="280.9233">
			<stop  offset="0" style="stop-color:#2B9C27"/>
			<stop  offset="1" style="stop-color:#2EB64D"/>
		</linearGradient>
		<path style="fill:url(#SVGID_00000183229641155651483420000015345912880312914309_);" d="M427.785,220.969
			c0,0-3.648,3.944-10.844,10.054h42.36c3.217,9.327,10.775,16.628,20.267,19.486v60.05c-9.326,3.217-16.628,10.775-19.487,20.267
			H260.249c-3.217-9.327-10.775-16.628-20.267-19.487v-13.653c-3.309,0.175-6.662,0.301-10.053,0.373v42.82h259.693V220.969H427.785
			z"/>
		<g>
			
				<linearGradient id="SVGID_00000007391817019687909580000017272964535944687002_" gradientUnits="userSpaceOnUse" x1="282.8203" y1="234.0889" x2="359.6396" y2="234.0889">
				<stop  offset="0" style="stop-color:#2B9C27"/>
				<stop  offset="1" style="stop-color:#2EB64D"/>
			</linearGradient>
			
				<rect x="282.82" y="233.605" style="fill:url(#SVGID_00000007391817019687909580000017272964535944687002_);" width="76.819" height="0.969"/>
		</g>
		<g>
			<path style="fill:#FFC444;" d="M522.528,289.888c0,0-5.816-13.178,0.931-12.086c0,0,2.298,1.897,4.655,5.767
				c1.785,2.93,5.498,10.685,5.36,13.309c-0.138,2.622-2.003,4.579-4.018,8.792c0,0-4.188,7.818-4.364,8.761l-4.427-2.299
				c0,0,3.752-7.475,6.394-14.048L522.528,289.888z"/>
			
				<rect x="468.13" y="306.55" transform="matrix(0.9858 0.1678 -0.1678 0.9858 60.0257 -81.703)" style="fill:#7556B8;" width="90.402" height="15.369"/>
			
				<rect x="463.977" y="300.408" transform="matrix(0.9858 0.1678 -0.1678 0.9858 58.0194 -73.939)" style="fill:#2D3038;" width="4.829" height="11.665"/>
			<path style="fill:#EEA886;" d="M488.86,401.522h-1.099c0,0,0.366-4.145-0.65-4.186c-1.015-0.041-3.534,3.373-5.038,3.902
				c-1.504,0.526-9.224,0.975-9.265-0.448c-0.04-1.422,2.967-1.992,3.9-2.397c0.935-0.406,5.486-4.836,6.299-5.363
				c0.813-0.528,2.199-4.202,2.199-4.202l4.311-0.191c0,0,0.243,3.434,0.505,5.251c0.097,0.673,0.167,1.285,0.178,1.702
				C490.24,397.133,488.86,401.522,488.86,401.522z"/>
			<path style="fill:#EEA886;" d="M516.625,400.702h-0.914v-3.858c-0.763,0.064-3.323,2.487-4.115,3.189
				c-0.792,0.7-1.879,0.669-5.217,0.881c-3.336,0.213-3.651-1.785-3.123-2.466c0.527-0.68,2.234-0.978,3.123-1.401
				c0.889-0.425,4.394-4.379,5.329-5.314c0.934-0.935,1.504-3.612,1.504-3.612l3.9,0.34c0,0-0.025,2.451,0.42,4.506v0.001
				c0.001,0.005,0.003,0.011,0.003,0.016c0.038,0.175,0.08,0.347,0.125,0.515C518.24,395.633,516.625,400.702,516.625,400.702z"/>
			<path style="fill:#1D3B54;" d="M502.201,313.256c0,0-1.475,3.486-1.604,4.367c-0.131,0.88-3.582,9.223-4.58,14.847
				c-0.598,3.368-2.247,13.907-2.381,15.247c-0.23,2.294-1.309,7.356-1.476,9.699c-0.092,1.309-6.542,21.411-8.104,31.906
				c0,0,3.71,0.55,6.496-0.188c0,0,5.662-10.847,8.807-26.231c1.893-9.267,3.568-14.206,5.036-18.022
				c1.466-3.816,9.774-14.625,10.643-15.84c0.867-1.214,6.301-7.924,1.155-15.194C511.048,306.577,502.201,313.256,502.201,313.256z
				"/>
			<path style="fill:#1D3B54;" d="M520.775,344.136c-0.47,3.129,0.024,7.24,1.007,18.685c0.985,11.442-1.721,25.299-1.721,25.299
				c-3.396,1.163-7.308,0-7.308,0c0.09-0.805,0-27.892,0-30.307c0-2.413-0.693-5.153-0.872-7.924c-0.122-1.888-1-5.369-1.988-8.923
				c-0.297-1.064-0.603-2.135-0.9-3.172c0-0.001,0-0.001,0-0.001c-0.168-0.58-0.33-1.151-0.491-1.704
				c-1.391-4.827-3.263-23.469-3.263-23.469s10.375-8.356,15.427-0.489c5.052,7.866,2.458,13.588,2.279,14.571
				C522.768,327.686,521.246,341.007,520.775,344.136z"/>
			<path style="fill:#122536;" d="M516.474,327.323c-0.08,0.178-5.25,11.652-6.58,13.643c-0.297-1.064-0.603-2.135-0.9-3.172
				c0-0.001,0-0.001,0-0.001S516.301,327.575,516.474,327.323z"/>
			<path style="fill:#172F42;" d="M516.625,400.702h-0.914v-3.858c-0.763,0.064-3.323,2.487-4.115,3.189
				c-0.792,0.7-1.879,0.669-5.217,0.881c-3.336,0.213-3.651-1.785-3.123-2.466c0.527-0.68,2.234-0.978,3.123-1.401
				c3.57,0.19,7.927-4.829,10.019-4.818c1.11,0.006,1.101,0.621,1.135,0.737v0.001c0.001,0.005,0.003,0.011,0.003,0.016
				c0.038,0.175,0.08,0.347,0.125,0.515C518.24,395.633,516.625,400.702,516.625,400.702z"/>
			<path style="fill:#172F42;" d="M488.86,401.522h-1.099c0,0,0.366-4.145-0.65-4.186c-1.015-0.041-3.534,3.373-5.038,3.902
				c-1.504,0.526-9.224,0.975-9.265-0.448c-0.04-1.422,2.967-1.992,3.9-2.397c3.185-0.007,8.363-3.512,9.969-4.223
				c1.607-0.71,3.345-0.283,3.345-0.283c0.097,0.673,0.167,1.285,0.178,1.702C490.24,397.133,488.86,401.522,488.86,401.522z"/>
			<path style="fill:#EEA886;" d="M511.361,269.494c0,0,1.655,4.381,0.367,7.767c0,0,6.071-0.396,6.302-1.104
				c0.229-0.708-0.245-7.271,0.59-9.211C519.455,265.006,511.361,269.494,511.361,269.494z"/>
			<path style="fill:#FFC444;" d="M510.774,275.779c0,0-3.587,1.275-5.208,1.629c-1.621,0.355-5.012,1.961-4.736,8.01
				c0.276,6.047,1.288,11.292,1.655,13.891c0.368,2.598,0.138,9.213-0.46,12.426c0,0,8.601,2.174,18.718,0
				c0,0-1.794-5.48-1.748-6.898c0.046-1.417,5.978-13.088,6.254-14.931c0.277-1.842,1.473-9.969-1.242-11.765
				c-2.713-1.795-4.92-1.559-6.069-2.361C516.788,274.976,512.453,275.203,510.774,275.779z"/>
			<path style="fill:#FFC444;" d="M524.616,321.238c-14.692,3.897-26.385,0.015-26.385,0.015c1.066-2.191,1.851-4.377,2.419-6.495
				c0-0.001,0.001-0.001,0.001-0.001c0.401-1.496,0.694-2.956,0.904-4.358v-0.001c1.194-8.004-0.363-14.133-0.363-14.133
				c1.696-13.958,22.814-18.124,24.507-13.699c1.691,4.424-3.277,23.438-3.529,25.068
				C521.918,309.264,524.616,321.238,524.616,321.238z"/>
			<path style="fill:#EEA886;" d="M516.652,251.922c-2.44-0.838-9.037-1.729-10.726,8.396c-1.69,10.125,1.989,10.299,5.771,10.012
				c3.781-0.289,9.696-7.123,10.148-9.201C522.3,259.052,523.615,254.311,516.652,251.922z"/>
			<path style="fill:#FCCCA2;" d="M507.285,255.81c0,0,2.015,4.312,4.658,5.813c0,0,1.655,4.58,5.24,6.433
				c0,0,9.516-6.304,3.994-13.794C515.657,246.772,507.908,252.736,507.285,255.81z"/>
			<path style="fill:#EEA886;" d="M511.709,260.129c0.215-0.527,1.64-1.384,2.28,0.061c0.64,1.446-1.657,3.992-2.286,3.854
				C511.073,263.907,510.896,262.127,511.709,260.129z"/>
			<path style="fill:#FCCCA2;" d="M520.856,255.42c0.208-0.325,6.508-3.242,7.819,2.854c1.31,6.095-5.075,13.183-6.193,16.23
				c-1.119,3.047,0.506,10.19,0.506,10.19s-3.843-3.632-5.005-7.433C516.707,273.086,516.279,262.559,520.856,255.42z"/>
			<path style="fill:#E54242;" d="M521.174,255.211c0,0-1.929,1.527-2.178,3.935c0,0-0.361-1.878,0.416-3.026
				C520.189,254.973,521.174,255.211,521.174,255.211z"/>
			<path style="fill:#B88311;" d="M500.651,314.756c0.401-1.495,0.694-2.955,0.904-4.358v-0.001c0,0,0.968-2.06,1.295-3.044
				c0.327-0.984,2.759-13.084,2.759-13.084S508.184,305.634,500.651,314.756z"/>
			<path style="fill:#EEA886;" d="M489.835,315.459c0,0-1.895,1.881-2.508,2.07c-0.612,0.189-1.793-0.854-6.143-1.176
				c-0.382-0.029-1.054,0.315-0.895,0.819c0.157,0.505,2.051,1.878,2.861,2.088c0.811,0.209,4.634,1.729,6.497,0.983
				c1.863-0.745,3.131-3.116,3.131-3.116L489.835,315.459z"/>
			<path style="fill:#FFC444;" d="M504.553,277.739c0,0-5.031,1.995-5.33,8.988c-0.297,6.993-0.57,10.643-0.843,11.722
				c-0.274,1.08-0.796,5.418-2.063,8.028c-1.228,2.532-9.29,10.546-9.29,10.546l3.902,3.67c0,0,11.238-11.277,11.921-13.34
				c0.684-2.062,3.492-16.411,3.716-18.83C506.747,286.574,509.319,277.886,504.553,277.739z"/>
			<path style="opacity:0.1;fill:#B8B8B8;" d="M363.272,293.813c0,26.059,21.125,47.183,47.182,47.183
				c26.058,0,47.183-21.124,47.183-47.183c0-26.058-21.125-47.182-47.183-47.182C384.397,246.631,363.272,267.755,363.272,293.813z"
				/>
			<path style="opacity:0.3;fill:#869AC2;" d="M441.916,259.232c0,0-60.672-7.521-72.761,56.513l0-0.001
				c-3.48-6.541-5.453-14.005-5.453-21.932c0-25.819,20.931-46.751,46.751-46.751C422.57,247.061,433.611,251.67,441.916,259.232z"
				/>
			<path style="fill:#3F444F;" d="M410.451,237.879c-30.893,0-55.936,25.043-55.936,55.936c0,30.892,25.043,55.936,55.936,55.936
				c30.892,0,55.935-25.044,55.935-55.936C466.387,262.922,441.344,237.879,410.451,237.879z M410.451,340.401
				c-25.729,0-46.587-20.857-46.587-46.587c0-25.729,20.858-46.587,46.587-46.587c25.729,0,46.587,20.858,46.587,46.587
				C457.038,319.544,436.181,340.401,410.451,340.401z"/>
		</g>
		<g>
			<g>
				<g>
					<path style="fill:#EFAA88;" d="M244.82,323.831c0,0,2.004,0.692,2.848-0.175c0.717-0.737,2.178-1.172,2.626-1.307
						c0.601-0.181,2.24-1.42,2.474-0.664c0.235,0.756-2.603,2.174-3.138,2.59c-0.536,0.417,2.427,1.063,2.877,1.607
						c0.449,0.544-0.899,5.393-2.882,4.713c-1.982-0.679-3.653-2.712-4.025-2.762c-0.373-0.051-1.462-0.438-1.462-0.438
						L244.82,323.831z"/>
				</g>
			</g>
			<g>
				<g>
					<path style="fill:#EFAA88;" d="M252.081,325.614c0,0,5.932,2.481,6.189,2.977c0.257,0.496,0.103,0.81-0.461,0.601
						c-0.564-0.209-5.801-2.232-5.801-2.232s6.528,4.116,6.827,4.477c0.175,0.211-0.085,0.836-0.398,0.752
						c-0.313-0.084-7.015-3.794-7.015-3.794s6.088,3.855,6.248,4.23c0.141,0.33-0.243,0.843-0.714,0.588
						c-0.471-0.255-6.323-3.512-6.323-3.512s4.254,3.083,4.203,3.482c-0.032,0.243-0.232,0.794-1.306-0.036
						c-1.073-0.83-3.81-2.523-3.81-2.523L252.081,325.614z"/>
				</g>
			</g>
			<path style="fill:#292C47;" d="M218.117,295.017c0,0,8.077,12.098,12.689,16.561c1.447,1.4,15.901,11.21,16.447,11.768
				c0.545,0.558-1.415,5.388-1.415,5.388s-18.485-10.685-19.56-11.355c-1.075-0.671-14.481-16.03-15.136-18.16
				c-0.655-2.131-0.417-4.643,1.749-5.64C215.931,292.178,218.117,295.017,218.117,295.017z"/>
			<g>
				<path style="fill:#F8BB66;" d="M237.017,325.671c-2.697-15.376,7.581-30.028,22.956-32.726
					c15.376-2.698,30.028,7.58,32.726,22.956c2.698,15.376-7.58,30.028-22.956,32.727
					C254.368,351.325,239.715,341.048,237.017,325.671z"/>
				<path style="fill:#F8BB66;" d="M271.395,348.287l-9.752-55.585c14.754-1.704,28.458,8.38,31.058,23.199
					C295.301,330.719,285.848,344.867,271.395,348.287z"/>
				<path style="fill:#F8BB66;" d="M237.018,325.671c-2.286-13.032,4.749-25.545,16.31-30.699l9.478,54.014
					C250.179,348.074,239.305,338.705,237.018,325.671z"/>
				<path style="fill:#F89829;" d="M243.382,320.228c0.309-11.861,10.175-21.227,22.036-20.918
					c11.861,0.309,21.226,10.175,20.917,22.036c-0.309,11.86-10.174,21.227-22.035,20.917
					C252.438,341.953,243.073,332.088,243.382,320.228z"/>
				<g>
					<path style="fill:#F8C681;" d="M272.804,317.964c-0.12-0.255-0.321-0.551-0.602-0.887c-0.281-0.335-0.621-0.678-1.018-1.026
						c-0.398-0.35-0.849-0.682-1.355-0.998c-0.505-0.316-1.042-0.58-1.612-0.796l-1.871,6.22l0.535,0.292
						c1.004,0.586,1.893,1.171,2.667,1.753c0.775,0.582,1.393,1.194,1.856,1.836c0.462,0.642,0.758,1.348,0.886,2.117
						c0.128,0.772,0.048,1.638-0.241,2.599c-0.32,1.063-0.783,1.911-1.389,2.548c-0.606,0.637-1.321,1.104-2.142,1.402
						c-0.822,0.3-1.717,0.44-2.683,0.423c-0.967-0.019-1.964-0.171-2.992-0.458l-0.949,3.155l-1.563-0.471l0.968-3.215
						c-1.412-0.534-2.699-1.231-3.859-2.095c-1.161-0.862-2.155-1.877-2.983-3.044l2.4-2.423c0.147,0.306,0.39,0.664,0.727,1.07
						c0.336,0.407,0.745,0.824,1.228,1.254c0.482,0.429,1.029,0.846,1.64,1.247c0.61,0.402,1.265,0.753,1.962,1.049l1.871-6.22
						c-0.108-0.075-0.223-0.149-0.344-0.219c-0.121-0.068-0.235-0.141-0.344-0.218c-0.978-0.6-1.815-1.174-2.513-1.722
						c-0.698-0.549-1.241-1.122-1.629-1.72c-0.388-0.597-0.628-1.232-0.721-1.904c-0.093-0.672-0.013-1.429,0.241-2.271
						c0.295-0.98,0.728-1.801,1.297-2.46c0.569-0.658,1.247-1.17,2.034-1.534c0.787-0.364,1.642-0.577,2.567-0.637
						c0.925-0.061,1.899,0.02,2.926,0.241l0.913-3.035l1.563,0.47l-0.914,3.035c1.278,0.472,2.402,1.095,3.371,1.865
						c0.969,0.773,1.781,1.596,2.436,2.471L272.804,317.964z M262.653,315.761c-0.252,0.842-0.147,1.562,0.317,2.16
						c0.464,0.598,1.25,1.239,2.355,1.921l1.781-5.92c-1.24-0.308-2.228-0.293-2.962,0.043
						C263.409,314.302,262.913,314.9,262.653,315.761z M268.336,328.35c0.266-0.882,0.115-1.653-0.45-2.314
						c-0.566-0.662-1.425-1.363-2.579-2.104l-1.789,5.949c1.287,0.366,2.347,0.422,3.176,0.17
						C267.524,329.798,268.071,329.231,268.336,328.35z"/>
				</g>
				<path style="fill:#F8F8F8;" d="M275.825,346.846c11.896-4.994,19.199-17.701,16.875-30.944
					c-2.324-13.244-13.517-22.706-26.401-23.351L275.825,346.846z"/>
				<path style="fill:#F8F8F8;" d="M262.805,348.985l-9.478-54.014c2.078-0.927,4.303-1.615,6.646-2.026
					c0.558-0.098,1.113-0.179,1.668-0.243l9.752,55.585c-0.543,0.129-1.093,0.242-1.65,0.34
					C267.4,349.039,265.074,349.148,262.805,348.985z"/>
			</g>
			<g>
				<path style="fill:#1B1D2E;" d="M190.285,394.669c0,0,0.896,0.395,2.243,1.104c1.347,0.711,2.876,1.497,4.782,1.629
					c1.906,0.129,3.898,0.814,3.761,2.638c-0.138,1.823-6.249,2.382-11.967,1.379c-5.719-1.001-5.814-1.132-5.855-1.573
					c-0.042-0.441,0.392-4.968,0.632-5.143C184.12,394.528,190.285,394.669,190.285,394.669z"/>
			</g>
			<g>
				<path style="fill:#1F2136;" d="M190.76,392.598c0,0-0.419,2.046-0.437,2.286c-0.018,0.241-6.886,1.405-6.518-0.015
					c0.388-1.498,2.508-4.424,2.508-4.424L190.76,392.598z"/>
			</g>
			<g>
				<path style="fill:#282B45;" d="M215.453,345.342c-0.545-5.607-19.236-17.781-20.141-12.466
					c-0.906,5.315,6.808,17.52,7.291,21.506c0.485,3.987,0.081,5.03-2.939,8.473c-3.021,3.444-15.725,28.855-15.725,28.855
					c0.362,1.934,7.038,2.537,7.218,2.113c0.182-0.423,18.171-24.202,19.139-25.109c0.966-0.907,4.529-4.952,5.073-6.945
					c0.345-1.268,0.939-6.779,0.576-10.686C215.944,351.083,215.528,345.798,215.453,345.342z"/>
			</g>
			<g>
				<path style="fill:#1B1D2E;" d="M226.536,394.419c0,0,1.223,0.218,2.597,0.942c1.374,0.726,3.247,1.944,5.192,2.076
					c1.944,0.133,4.153,0.897,4.012,2.756c-0.14,1.859-6.549,2.365-12.382,1.344c-5.833-1.022-5.93-1.156-5.971-1.606
					c-0.042-0.45,0.165-3.935,0.507-4.82C220.599,394.827,226.536,394.419,226.536,394.419z"/>
			</g>
			<g>
				<path style="fill:#1F2136;" d="M228.448,392.935c0,0-0.558,1.692-0.383,1.942c0.174,0.249-7.764,0.863-7.575,0.233
					c0.109-0.365,1.222-2.764,1.809-4.021C222.811,389.993,228.448,392.935,228.448,392.935z"/>
			</g>
			<g>
				<path style="fill:#282B45;" d="M220.904,330.5c0,0,21.639,16.394,24.063,19.747c2.423,3.352-0.295,8.335-0.657,9.966
					c-0.363,1.631-15.513,30.736-15.695,33.545c0,0-6.611,0.928-8.333-1.246c0,0,9.622-28.04,11.162-33.296
					c1.54-5.255-5.346-6.07-9.604-7.973c-4.259-1.902-22.949-12.87-24.038-16.996c-0.994-3.77-0.01-6.607-0.01-6.607
					S203.027,324.254,220.904,330.5z"/>
			</g>
			<g>
				<path style="fill:#CFBEB6;" d="M222.675,290.289c0,0,1.628,7.145,1.229,11.084c-0.398,3.938-4.447,13.963-4.746,16.156
					c-0.298,2.193,1.746,12.971,1.746,12.971l-24.323,3.681c0,0,0.037-6.303,0.93-13.78c0.894-7.478,3.712-13.395,4.698-17.62
					c3.364-14.42,15.676-16.425,15.676-16.425L222.675,290.289z"/>
			</g>
			<g>
				<path style="fill:#EEA886;" d="M234.442,274.287c0,0,1.577,3.838,0.546,4.302c-0.851,0.382,0.517,4.13,0.683,4.735
					c0.167,0.607-1.559,0.853-1.956,1.191c-0.396,0.337-1.94,4.838-3.339,4.832c-1.4-0.008-7.411-2.833-8.924-4.778
					c-1.514-1.945-2.069-10.071-0.58-13.317C222.36,268.006,231.651,267.578,234.442,274.287z"/>
			</g>
			<g>
				<path style="fill:#EEA886;" d="M226.32,287.918c0,0-0.205,0.352-0.513,0.9c-0.129,0.229-0.275,0.494-0.432,0.781
					c-0.12,0.218-0.247,0.449-0.374,0.69c-0.806,1.507-1.719,3.346-1.924,4.285c-0.382,1.756-4.377-8.09-4.377-8.09
					s2.89-5.031,5.188-11.102C226.185,269.315,226.32,287.918,226.32,287.918z"/>
			</g>
			<g>
				<path style="fill:#282B45;" d="M234.751,275.115c0,0,2.413-3.712-0.915-7.004c-3.327-3.293-10.563,1.11-11.338,1.226
					c-0.775,0.115-5.017-0.054-3.718,7.708c1.129,6.745,1.482,6.527,1.482,6.527s1.707-3.17,2.553-3.658
					c1.32-0.762,3.987-0.266,3.987-0.266s-0.924-3.535,1.129-3.808C229.984,275.57,232.803,274.15,234.751,275.115z"/>
			</g>
			<g>
				<path style="fill:#EEA886;" d="M224.873,277.478c-0.127-0.485-0.488-2.552-2.333-1.555c-1.844,0.997,0.551,5.071,0.846,5.151
					C223.681,281.154,225.946,281.561,224.873,277.478z"/>
			</g>
			<g>
				<path style="fill:#EDDAD3;" d="M219.144,285.684c0,0,2.516,5.868,4.667,7.856l-1.015,3.49l-4.911-10.675L219.144,285.684z"/>
			</g>
			<polygon style="fill:#3D4169;" points="220.904,330.5 220.492,328.231 196.643,331.723 196.581,334.181 			"/>
			<g>
				<path style="fill:#323657;" d="M222.024,304.052c-0.614,1.259-1.201,2.537-1.758,3.824v0.001
					c-1.225,2.833-2.315,5.711-3.275,8.527c-0.344,1.003-0.669,2.001-0.981,2.984c-3.707,11.73-11.051,19.852-11.051,19.852
					s-9.541-1.779-11.611-3.605c0,0,2.073-13.742,6.547-26.712c0.346-1.003,0.706-1.999,1.079-2.985
					c0.001-0.001,0.001-0.001,0.001-0.001c3.334-12.747,9.535-19.58,16.91-19.58C218.008,286.541,225.255,297.44,222.024,304.052z"
					/>
			</g>
			<path style="fill:#323657;" d="M199.581,309.851c0,0-3.129,13.593-11.051,24.292c-1.073,1.45,10.385,3.697,10.385,3.697
				L199.581,309.851z"/>
			<path style="fill:#1D2133;" d="M210.417,299.29c-3.229,2.829-10.521,9.633-10.521,9.633c0.346-1.003,0.706-1.999,1.079-2.985
				c0.001-0.001,0.001-0.001,0.001-0.001C203.504,303.886,210.311,299.36,210.417,299.29z"/>
			<path style="fill:#A77860;" d="M226.32,287.918c0,0-0.205,0.352-0.513,0.9c-0.129,0.229-0.275,0.494-0.432,0.781
				c-3.07-2.826-3.671-4.701-3.689-4.76C223.124,286.13,226.32,287.918,226.32,287.918z"/>
			<g>
				<g>
					<path style="fill:#7556B8;" d="M223.871,296.964c0,0-2.185,8.499-9.677,8.305c-6.71-0.175-16.719,2.15-20.121,4.385
						l-4.229,2.972l1.4-4.381c0,0,3.542-6.805,22.961-3.867c0,0,5.864,1.747,8.909-8.44
						C223.114,295.938,224.041,296.553,223.871,296.964z"/>
				</g>
			</g>
			<path style="fill:#548AD1;" d="M223.751,293.746c0,0,0.368,2.398,0.103,3.284c-0.099,0.331-1.002-0.196-1.002-0.196
				L223.751,293.746z"/>
			<g>
				<path style="fill:#EEA886;" d="M251.85,319.542c0,0,0.521,0.418,1.064,0.401c0.937-0.029,1.98-1.072,2.981-0.169
					c1,0.902-0.973,4.884-1.705,5.361c-0.732,0.479-2.438-0.313-4.294-2.454S251.85,319.542,251.85,319.542z"/>
			</g>
			<g>
				<path style="fill:#EEA886;" d="M255.514,319.52c0,0,1.91,0.608,3.952,1.548c1.792,0.824,3.901,2.099,3.699,2.552
					c-0.306,0.689-1.916-0.555-3.747-1.251c-1.686-0.642-1.462-0.229-1.462-0.229s-0.057-0.122,1.643,0.939
					c1.829,1.141,3.745,2.442,3.587,2.817c-0.197,0.464-0.26,0.505-0.992,0.201c0.383,0.267,0.364,0.409,0.268,0.582
					c-0.497,0.891-3.446-0.361-4.617-0.858c0.897,0.388,1.514,0.77,0.857,1.117c-0.751,0.398-4.84-1.563-6.372-2.122
					C250.659,324.205,255.514,319.52,255.514,319.52z"/>
			</g>
			<path style="fill:#323657;" d="M219.529,290.602c0,0,9.44,12.797,14.704,17.434c1.652,1.454,18.202,10.474,18.826,11.055
				c0.624,0.582-1.533,6.908-1.533,6.908s-20.732-10.721-21.939-11.397c-1.208-0.678-17.678-19.259-18.502-21.552
				c-0.824-2.292,0.351-2.552,2.664-3.751C216.996,287.614,219.529,290.602,219.529,290.602z"/>
		</g>
		<g>
			
				<linearGradient id="SVGID_00000114764821153277250130000006733468386880177585_" gradientUnits="userSpaceOnUse" x1="221.1758" y1="226.9023" x2="252.7788" y2="226.9023">
				<stop  offset="0" style="stop-color:#2B9C27"/>
				<stop  offset="1" style="stop-color:#2EB64D"/>
			</linearGradient>
			<polygon style="fill:url(#SVGID_00000114764821153277250130000006733468386880177585_);" points="222.145,241.356 
				221.176,241.356 221.176,212.448 252.779,212.448 252.779,213.417 222.145,213.417 			"/>
		</g>
		<g>
			<polygon style="fill:#5AB1DC;" points="231.433,203.92 220.015,192.503 197.881,192.503 197.881,177.726 198.366,177.726 
				198.366,192.018 220.215,192.018 231.775,203.578 			"/>
		</g>
		<g>
			<polygon style="fill:#5AB1DC;" points="596.773,248.705 556.06,248.705 556.06,188.813 556.545,188.813 556.545,248.22 
				596.773,248.22 			"/>
		</g>
		<g>
			<path style="fill:#5AB1DC;" d="M240.085,144.458h-76.11v-0.242c0-6.948,5.652-12.6,12.6-12.6c4.085,0,7.906,1.976,10.269,5.298
				c2.303-1.374,5.241-1.563,7.688-0.508c2.949-5.75,8.767-9.312,15.24-9.312c5.35,0,10.444,2.545,13.669,6.816
				c1.581-0.79,3.353-1.206,5.136-1.206c6.345,0,11.508,5.164,11.508,11.511V144.458z M164.462,143.973h75.135
				c-0.129-5.969-5.023-10.785-11.02-10.785c-1.775,0-3.537,0.431-5.095,1.246l-0.184,0.097l-0.123-0.168
				c-3.126-4.248-8.136-6.784-13.402-6.784c-6.365,0-12.078,3.545-14.911,9.251l-0.105,0.211l-0.214-0.1
				c-1.053-0.488-2.181-0.736-3.355-0.736c-1.523,0-3.003,0.429-4.281,1.24l-0.197,0.125l-0.132-0.193
				c-2.261-3.304-6.001-5.277-10.002-5.277C169.975,132.1,164.591,137.404,164.462,143.973z"/>
		</g>
		<g>
			<path style="fill:#5AB1DC;" d="M442.218,114.418h-60.394v-0.243c0-6.768,5.503-12.273,12.268-12.273
				c2.608,0,5.09,0.805,7.191,2.329c3.103-3.998,7.768-6.287,12.833-6.287c6.412,0,12.191,3.75,14.811,9.579
				c1.429-1.071,3.186-1.657,4.98-1.657c4.582,0,8.31,3.728,8.31,8.31V114.418z M382.31,113.933h59.418
				c-0.127-4.203-3.587-7.583-7.82-7.583c-1.789,0-3.539,0.62-4.926,1.744l-0.248,0.202l-0.127-0.295
				c-2.48-5.815-8.168-9.572-14.491-9.572c-4.992,0-9.581,2.291-12.593,6.285l-0.146,0.193l-0.192-0.146
				c-2.058-1.553-4.51-2.374-7.093-2.374C387.676,102.387,382.44,107.544,382.31,113.933z"/>
		</g>
		
			<linearGradient id="SVGID_00000092456895828329664640000002007659071454471588_" gradientUnits="userSpaceOnUse" x1="125.7266" y1="325.8206" x2="165.7957" y2="325.8206">
			<stop  offset="0" style="stop-color:#2B9C27"/>
			<stop  offset="1" style="stop-color:#2EB64D"/>
		</linearGradient>
		<path style="fill:url(#SVGID_00000092456895828329664640000002007659071454471588_);" d="M158.791,273.199
			c-6.115-2.097-4.845,9.69-7.429,18.411c-2.585,8.722-28.748,3.805-17.765,25.643c10.982,21.839-13.889,7.303-6.46,26.36
			c7.429,19.058,0.646,39.438,8.721,34.254c8.075-5.184,4.537-29.183,12.935-32.033c8.398-2.852,9.768-6.178,1.453-13.929
			c-8.315-7.754,21.789-15.449,14.359-31.103C157.177,285.151,165.857,275.622,158.791,273.199z"/>
		<g>
			<path style="fill:#FFFFFF;" d="M138.673,376.617c-0.769-3.263-7.337-31.974-1.209-35.443c5.401-3.059,5.268-14.955,4.426-26.189
				c-0.746-9.945,12.026-14.594,12.57-14.786l0.324,0.913c-0.126,0.045-12.618,4.595-11.928,13.801
				c0.866,11.536,0.958,23.78-4.914,27.104c-4.653,2.636-0.369,25.709,1.674,34.377L138.673,376.617z"/>
		</g>
		
			<linearGradient id="SVGID_00000165210542020010076610000011541651090389517453_" gradientUnits="userSpaceOnUse" x1="115.6001" y1="382.9561" x2="152.5747" y2="382.9561">
			<stop  offset="0" style="stop-color:#FF9340"/>
			<stop  offset="1" style="stop-color:#FFCE45"/>
		</linearGradient>
		<polygon style="fill:url(#SVGID_00000165210542020010076610000011541651090389517453_);" points="152.575,366.394 
			143.843,399.519 124.331,399.519 115.6,366.394 		"/>
		
			<linearGradient id="SVGID_00000054228890575782824980000010057223641162455712_" gradientUnits="userSpaceOnUse" x1="115.6001" y1="382.9561" x2="152.5747" y2="382.9561">
			<stop  offset="0" style="stop-color:#C97332"/>
			<stop  offset="1" style="stop-color:#FFCE45"/>
		</linearGradient>
		<path style="fill:url(#SVGID_00000054228890575782824980000010057223641162455712_);" d="M152.575,366.394
			c0,0-19.222,3.608-19.222,33.125h-9.021l-8.731-33.125H152.575z"/>
	</g>
</g>
</svg>
